EncodeSansExpanded-Regular.ufo
<glyph name="exclam" format="2">
  <advance width="553.6161616161617"/>
  <unicode hex="0021"/>
  <outline>
    <contour>
      <point x="224.52525252525254" y="370.54545454545456" type="line"/>
      <point x="330.6060606060606" y="370.54545454545456" type="line"/>
      <point x="365.33333333333337" y="916.7676767676768" type="line"/>
      <point x="365.33333333333337" y="1480.0" type="line"/>
      <point x="188.28282828282826" y="1480.0" type="line"/>
      <point x="188.28282828282826" y="916.7676767676768" type="line"/>
    </contour>
    <contour>
      <point x="276.80808080808083" y="-12.525252525252526" type="curve" smooth="yes"/>
      <point x="349.6767676767677" y="-12.525252525252526"/>
      <point x="396.38383838383845" y="29.151515151515163"/>
      <point x="396.38383838383845" y="93.41414141414145" type="curve" smooth="yes"/>
      <point x="396.38383838383845" y="157.67676767676772"/>
      <point x="350.6868686868687" y="200.84848484848493"/>
      <point x="276.80808080808083" y="200.84848484848493" type="curve" smooth="yes"/>
      <point x="202.92929292929293" y="200.84848484848493"/>
      <point x="157.2323232323232" y="158.68686868686873"/>
      <point x="157.2323232323232" y="93.41414141414145" type="curve" smooth="yes"/>
      <point x="157.2323232323232" y="28.141414141414153"/>
      <point x="203.93939393939394" y="-12.525252525252526"/>
    </contour>
  </outline>
</glyph>
<glyph name="quotedbl" format="2">
  <advance width="836.9898989898991"/>
  <unicode hex="0022"/>
  <outline>
    <contour>
      <point x="182.88888888888889" y="912.5656565656566" type="line"/>
      <point x="283.49494949494954" y="912.5656565656566" type="line"/>
      <point x="318.64646464646466" y="1616.0" type="line"/>
      <point x="147.73737373737373" y="1616.0" type="line"/>
    </contour>
    <contour>
      <point x="553.4949494949495" y="912.5656565656566" type="line"/>
      <point x="654.1010101010102" y="912.5656565656566" type="line"/>
      <point x="689.2525252525254" y="1616.0" type="line"/>
      <point x="518.3434343434344" y="1616.0" type="line"/>
    </contour>
  </outline>
</glyph>
<glyph name="dollar" format="2">
  <advance width="1210.5656565656566"/>
  <unicode hex="0024"/>
  <outline>
    <contour>
      <point x="535.2323232323232" y="-18.505050505050505" type="curve" smooth="yes"/>
      <point x="905.979797979798" y="-18.505050505050505"/>
      <point x="1118.1616161616162" y="134.60606060606062"/>
      <point x="1118.1616161616162" y="404.7070707070707" type="curve" smooth="yes"/>
      <point x="1118.1616161616162" y="618.2626262626263"/>
      <point x="989.1515151515152" y="744.3434343434344"/>
      <point x="657.010101010101" y="808.8686868686868" type="curve" smooth="yes"/>
      <point x="566.8282828282829" y="826.4040404040404" type="line" smooth="yes"/>
      <point x="341.71717171717177" y="870.8282828282829"/>
      <point x="263.89898989898995" y="942.1616161616162"/>
      <point x="263.89898989898995" y="1089.8181818181818" type="curve" smooth="yes"/>
      <point x="263.89898989898995" y="1259.939393939394"/>
      <point x="390.66666666666674" y="1357.7575757575758"/>
      <point x="676.5656565656566" y="1357.7575757575758" type="curve" smooth="yes"/>
      <point x="801.0707070707072" y="1357.7575757575758"/>
      <point x="932.1616161616162" y="1339.2525252525252"/>
      <point x="1050.1010101010102" y="1303.7777777777778" type="curve"/>
      <point x="1050.1010101010102" y="1447.5353535353536" type="line"/>
      <point x="938.1212121212122" y="1480.5050505050506"/>
      <point x="807.5757575757576" y="1498.5050505050506"/>
      <point x="673.4949494949495" y="1498.5050505050506" type="curve" smooth="yes"/>
      <point x="284.5858585858586" y="1498.5050505050506"/>
      <point x="92.40404040404039" y="1339.9595959595958"/>
      <point x="92.40404040404039" y="1082.7878787878788" type="curve" smooth="yes"/>
      <point x="92.40404040404039" y="865.7171717171717"/>
      <point x="222.9090909090909" y="736.6666666666666"/>
      <point x="524.5454545454545" y="678.1414141414141" type="curve" smooth="yes"/>
      <point x="614.7272727272727" y="660.6060606060606" type="line" smooth="yes"/>
      <point x="854.3838383838383" y="613.6767676767677"/>
      <point x="946.6666666666666" y="547.8181818181818"/>
      <point x="946.6666666666666" y="397.1515151515152" type="curve" smooth="yes"/>
      <point x="946.6666666666666" y="219.05050505050508"/>
      <point x="820.9494949494949" y="122.24242424242429"/>
      <point x="535.7171717171717" y="122.24242424242429" type="curve" smooth="yes"/>
      <point x="417.19191919191917" y="122.24242424242429"/>
      <point x="259.45454545454544" y="142.26262626262633"/>
      <point x="116.46464646464646" y="189.2525252525253" type="curve"/>
      <point x="116.46464646464646" y="45.494949494949495" type="line"/>
      <point x="248.0" y="3.0101010101010104"/>
      <point x="396.06060606060606" y="-18.505050505050505"/>
    </contour>
    <contour>
      <point x="526.3030303030303" y="-240.0" type="line"/>
      <point x="685.2525252525253" y="-240.0" type="line"/>
      <point x="685.2525252525253" y="15.151515151515161" type="line"/>
      <point x="526.3030303030303" y="15.151515151515163" type="line"/>
    </contour>
    <contour>
      <point x="526.3030303030303" y="1464.8484848484848" type="line"/>
      <point x="685.2525252525253" y="1464.8484848484848" type="line"/>
      <point x="685.2525252525253" y="1720.0" type="line"/>
      <point x="526.3030303030303" y="1720.0" type="line"/>
    </contour>
  </outline>
</glyph>
<glyph name="percent" format="2">
  <advance width="2020.6868686868688"/>
  <unicode hex="0025"/>
  <note>
450
</note>
  <outline>
    <contour>
      <point x="559.010101010101" y="0.0" type="line"/>
      <point x="709.7777777777778" y="0.0" type="line"/>
      <point x="1461.6767676767677" y="1480.0" type="line"/>
      <point x="1310.909090909091" y="1480.0" type="line"/>
    </contour>
    <contour>
      <point x="493.2727272727273" y="574.969696969697" type="curve" smooth="yes"/>
      <point x="707.5151515151515" y="574.969696969697"/>
      <point x="862.1616161616162" y="714.5858585858585"/>
      <point x="862.1616161616162" y="1036.4848484848485" type="curve" smooth="yes"/>
      <point x="862.1616161616162" y="1358.3838383838383"/>
      <point x="710.5050505050506" y="1498.5050505050506"/>
      <point x="493.2727272727273" y="1498.5050505050506" type="curve" smooth="yes"/>
      <point x="276.04040404040404" y="1498.5050505050506"/>
      <point x="124.38383838383837" y="1358.3838383838383"/>
      <point x="124.38383838383837" y="1036.4848484848485" type="curve" smooth="yes"/>
      <point x="124.38383838383837" y="714.5858585858585"/>
      <point x="279.030303030303" y="574.969696969697"/>
    </contour>
    <contour>
      <point x="493.2727272727273" y="691.4949494949495" type="curve" smooth="yes"/>
      <point x="357.4747474747475" y="691.4949494949495"/>
      <point x="263.59595959595964" y="786.3636363636364"/>
      <point x="263.59595959595964" y="1037.979797979798" type="curve" smooth="yes"/>
      <point x="263.59595959595964" y="1289.5959595959596"/>
      <point x="357.4747474747475" y="1381.979797979798"/>
      <point x="493.2727272727273" y="1381.979797979798" type="curve" smooth="yes"/>
      <point x="627.5757575757576" y="1381.979797979798"/>
      <point x="722.9494949494949" y="1289.5959595959596"/>
      <point x="722.9494949494949" y="1034.989898989899" type="curve" smooth="yes"/>
      <point x="722.9494949494949" y="780.3838383838385"/>
      <point x="627.5757575757576" y="691.4949494949495"/>
    </contour>
    <contour>
      <point x="1527.4141414141416" y="-18.0" type="curve" smooth="yes"/>
      <point x="1741.6565656565658" y="-18.0"/>
      <point x="1896.3030303030305" y="121.61616161616162"/>
      <point x="1896.3030303030305" y="443.5151515151515" type="curve" smooth="yes"/>
      <point x="1896.3030303030305" y="765.4141414141415"/>
      <point x="1744.6464646464647" y="905.5353535353536"/>
      <point x="1527.4141414141416" y="905.5353535353536" type="curve" smooth="yes"/>
      <point x="1310.1818181818182" y="905.5353535353536"/>
      <point x="1158.5252525252527" y="765.4141414141415"/>
      <point x="1158.5252525252527" y="443.5151515151515" type="curve" smooth="yes"/>
      <point x="1158.5252525252527" y="121.61616161616162"/>
      <point x="1313.1717171717173" y="-18.0"/>
    </contour>
    <contour>
      <point x="1527.4141414141416" y="98.52525252525257" type="curve" smooth="yes"/>
      <point x="1393.1111111111113" y="98.52525252525257"/>
      <point x="1297.737373737374" y="193.39393939393943"/>
      <point x="1297.737373737374" y="445.01010101010104" type="curve" smooth="yes"/>
      <point x="1297.737373737374" y="696.6262626262626"/>
      <point x="1393.1111111111113" y="789.0101010101009"/>
      <point x="1527.4141414141416" y="789.0101010101009" type="curve" smooth="yes"/>
      <point x="1661.7171717171718" y="789.0101010101009"/>
      <point x="1757.0909090909092" y="696.6262626262626"/>
      <point x="1757.0909090909092" y="442.020202020202" type="curve" smooth="yes"/>
      <point x="1757.0909090909092" y="187.41414141414145"/>
      <point x="1661.7171717171718" y="98.52525252525257"/>
    </contour>
  </outline>
</glyph>
<glyph name="ampersand" format="2">
  <advance width="1677.0707070707072"/>
  <unicode hex="0026"/>
  <outline>
    <contour>
      <point x="1604.7070707070707" y="-20.0" type="line"/>
      <point x="1677.0707070707072" y="103.69696969696975" type="line"/>
      <point x="783.6767676767677" y="697.5555555555557" type="line" smooth="yes"/>
      <point x="556.1414141414142" y="856.6868686868687"/>
      <point x="503.69696969696975" y="938.5454545454545"/>
      <point x="503.69696969696975" y="1067.7777777777778" type="curve" smooth="yes"/>
      <point x="503.69696969696975" y="1248.9292929292928"/>
      <point x="615.5151515151515" y="1357.7575757575758"/>
      <point x="914.868686868687" y="1357.7575757575758" type="curve" smooth="yes"/>
      <point x="1021.8181818181818" y="1357.7575757575758"/>
      <point x="1118.3434343434344" y="1344.2626262626263"/>
      <point x="1196.828282828283" y="1322.7878787878788" type="curve"/>
      <point x="1196.828282828283" y="1466.5454545454545" type="line"/>
      <point x="1118.7878787878788" y="1486.020202020202"/>
      <point x="1022.7878787878788" y="1498.5050505050506"/>
      <point x="908.2828282828283" y="1498.5050505050506" type="curve" smooth="yes"/>
      <point x="516.8888888888889" y="1498.5050505050506"/>
      <point x="332.2020202020202" y="1338.9292929292928"/>
      <point x="332.2020202020202" y="1073.3333333333333" type="curve" smooth="yes"/>
      <point x="332.2020202020202" y="900.4242424242424"/>
      <point x="415.1515151515151" y="769.3333333333334"/>
      <point x="711.3131313131313" y="573.8585858585858" type="curve" smooth="yes"/>
    </contour>
    <contour>
      <point x="766.5858585858587" y="-18.0" type="curve" smooth="yes"/>
      <point x="1185.3535353535353" y="-18.0"/>
      <point x="1416.060606060606" y="174.62626262626264"/>
      <point x="1416.060606060606" y="523.979797979798" type="curve" smooth="yes"/>
      <point x="1416.060606060606" y="615.4141414141415"/>
      <point x="1401.0707070707072" y="709.3939393939394"/>
      <point x="1370.6060606060605" y="796.8686868686868" type="curve"/>
      <point x="1227.878787878788" y="796.8686868686868" type="line"/>
      <point x="1258.3434343434344" y="709.3939393939394"/>
      <point x="1276.8282828282827" y="611.9191919191919"/>
      <point x="1276.8282828282827" y="524.4646464646465" type="curve" smooth="yes"/>
      <point x="1276.8282828282827" y="241.4545454545455"/>
      <point x="1095.878787878788" y="109.11111111111114"/>
      <point x="782.2222222222223" y="109.11111111111114" type="curve" smooth="yes"/>
      <point x="454.7474747474748" y="109.11111111111114"/>
      <point x="328.3232323232324" y="238.8686868686869"/>
      <point x="328.3232323232324" y="418.1212121212121" type="curve" smooth="yes"/>
      <point x="328.3232323232324" y="560.4040404040404"/>
      <point x="401.21212121212125" y="663.7373737373737"/>
      <point x="556.8686868686868" y="730.6666666666666" type="curve"/>
      <point x="464.3636363636364" y="812.9090909090909" type="line"/>
      <point x="271.4343434343434" y="738.5050505050505"/>
      <point x="156.82828282828282" y="594.5252525252525"/>
      <point x="156.82828282828282" y="401.5151515151515" type="curve" smooth="yes"/>
      <point x="156.82828282828282" y="156.96969696969697"/>
      <point x="344.969696969697" y="-18.0"/>
    </contour>
  </outline>
</glyph>
<glyph name="quotesingle" format="2">
  <advance width="466.3838383838384"/>
  <unicode hex="0027"/>
  <outline>
    <contour>
      <point x="182.88888888888889" y="912.5656565656566" type="line"/>
      <point x="283.49494949494954" y="912.5656565656566" type="line"/>
      <point x="318.64646464646466" y="1616.0" type="line"/>
      <point x="147.73737373737373" y="1616.0" type="line"/>
    </contour>
  </outline>
</glyph>
<glyph name="parenleft" format="2">
  <advance width="738.3232323232323"/>
  <unicode hex="0028"/>
  <outline>
    <contour>
      <point x="535.4545454545455" y="-440.0" type="curve"/>
      <point x="726.9898989898991" y="-440.0" type="line"/>
      <point x="428.8888888888889" y="-127.01010101010101"/>
      <point x="316.36363636363643" y="206.38383838383837"/>
      <point x="316.36363636363643" y="588.0" type="curve" smooth="yes"/>
      <point x="316.36363636363643" y="969.6161616161617"/>
      <point x="428.8888888888889" y="1303.010101010101"/>
      <point x="726.9898989898991" y="1616.0" type="curve"/>
      <point x="535.4545454545455" y="1616.0" type="line"/>
      <point x="259.85858585858585" y="1329.6161616161617"/>
      <point x="144.36363636363635" y="973.5959595959596"/>
      <point x="144.36363636363635" y="588.0" type="curve" smooth="yes"/>
      <point x="144.36363636363635" y="202.4040404040404"/>
      <point x="259.85858585858585" y="-153.61616161616163"/>
    </contour>
  </outline>
</glyph>
<glyph name="parenright" format="2">
  <advance width="738.3232323232323"/>
  <unicode hex="0029"/>
  <outline>
    <contour>
      <point x="11.333333333333286" y="-440.0" type="curve"/>
      <point x="202.8686868686869" y="-440.0" type="line"/>
      <point x="478.46464646464653" y="-153.61616161616163"/>
      <point x="593.9595959595961" y="202.4040404040404"/>
      <point x="593.9595959595961" y="588.0" type="curve" smooth="yes"/>
      <point x="593.9595959595961" y="973.5959595959596"/>
      <point x="478.46464646464653" y="1329.6161616161617"/>
      <point x="202.8686868686869" y="1616.0" type="curve"/>
      <point x="11.333333333333286" y="1616.0" type="line"/>
      <point x="309.4343434343434" y="1303.010101010101"/>
      <point x="421.95959595959596" y="969.6161616161617"/>
      <point x="421.95959595959596" y="588.0" type="curve" smooth="yes"/>
      <point x="421.95959595959596" y="206.38383838383837"/>
      <point x="309.4343434343434" y="-127.01010101010101"/>
    </contour>
  </outline>
</glyph>
<glyph name="asterisk" format="2">
  <advance width="960.5252525252525"/>
  <unicode hex="002A"/>
  <outline>
    <contour>
      <point x="544.1414141414142" y="1177.7575757575758" type="line"/>
      <point x="734.0606060606061" y="1217.171717171717" type="line"/>
      <point x="930.5252525252525" y="1280.1616161616162" type="line"/>
      <point x="893.3535353535353" y="1393.1919191919192" type="line"/>
      <point x="698.3838383838385" y="1330.2020202020203" type="line"/>
      <point x="517.4747474747475" y="1247.6565656565656" type="line"/>
      <point x="540.040404040404" y="1445.090909090909" type="line"/>
      <point x="540.040404040404" y="1616.0" type="line"/>
      <point x="420.4848484848485" y="1616.0" type="line"/>
      <point x="420.4848484848485" y="1445.090909090909" type="line"/>
      <point x="443.0505050505051" y="1247.6565656565656" type="line"/>
      <point x="262.14141414141415" y="1330.2020202020203" type="line"/>
      <point x="67.17171717171718" y="1393.1919191919192" type="line"/>
      <point x="30.0" y="1280.1616161616162" type="line"/>
      <point x="226.46464646464648" y="1217.171717171717" type="line"/>
      <point x="416.3838383838384" y="1177.7575757575758" type="line"/>
      <point x="284.3838383838384" y="1032.3636363636363" type="line"/>
      <point x="176.94949494949495" y="885.939393939394" type="line"/>
      <point x="273.89898989898995" y="815.6161616161615" type="line"/>
      <point x="381.33333333333337" y="961.5353535353535" type="line"/>
      <point x="480.26262626262627" y="1139.070707070707" type="line"/>
      <point x="579.1919191919192" y="961.5353535353535" type="line"/>
      <point x="686.6262626262626" y="815.6161616161615" type="line"/>
      <point x="783.5757575757576" y="885.939393939394" type="line"/>
      <point x="676.1414141414142" y="1032.3636363636363" type="line"/>
    </contour>
  </outline>
</glyph>
<glyph name="plus" format="2">
  <advance width="1130.2222222222222"/>
  <unicode hex="002B"/>
  <outline>
    <contour>
      <point x="494.7474747474747" y="350.7272727272727" type="line"/>
      <point x="635.4747474747476" y="350.7272727272727" type="line"/>
      <point x="635.4747474747476" y="693.1515151515151" type="line"/>
      <point x="959.4141414141415" y="693.1515151515151" type="line"/>
      <point x="959.4141414141415" y="826.8484848484849" type="line"/>
      <point x="635.4747474747476" y="826.8484848484849" type="line"/>
      <point x="635.4747474747476" y="1169.2727272727273" type="line"/>
      <point x="494.7474747474747" y="1169.2727272727273" type="line"/>
      <point x="494.7474747474747" y="826.8484848484849" type="line"/>
      <point x="170.8080808080808" y="826.8484848484849" type="line"/>
      <point x="170.8080808080808" y="693.1515151515151" type="line"/>
      <point x="494.7474747474747" y="693.1515151515151" type="line"/>
    </contour>
  </outline>
</glyph>
<glyph name="hyphen" format="2">
  <advance width="978.0808080808081"/>
  <unicode hex="002D"/>
  <outline>
    <contour>
      <point x="170.8080808080808" y="491.6363636363636" type="line"/>
      <point x="807.2727272727273" y="491.6363636363636" type="line"/>
      <point x="807.2727272727273" y="633.4141414141415" type="line"/>
      <point x="170.8080808080808" y="633.4141414141415" type="line"/>
    </contour>
  </outline>
</glyph>
<glyph name="period" format="2">
  <advance width="513.6161616161617"/>
  <unicode hex="002E"/>
  <outline>
    <contour>
      <point x="256.80808080808083" y="-12.525252525252526" type="curve" smooth="yes"/>
      <point x="329.6767676767677" y="-12.525252525252526"/>
      <point x="376.38383838383845" y="31.171717171717184"/>
      <point x="376.38383838383845" y="98.4646464646465" type="curve" smooth="yes"/>
      <point x="376.38383838383845" y="165.7575757575758"/>
      <point x="330.6868686868687" y="210.94949494949503"/>
      <point x="256.80808080808083" y="210.94949494949503" type="curve" smooth="yes"/>
      <point x="182.92929292929293" y="210.94949494949503"/>
      <point x="137.2323232323232" y="166.76767676767682"/>
      <point x="137.2323232323232" y="98.4646464646465" type="curve" smooth="yes"/>
      <point x="137.2323232323232" y="30.161616161616173"/>
      <point x="183.93939393939394" y="-12.525252525252526"/>
    </contour>
  </outline>
</glyph>
<glyph name="slash" format="2">
  <advance width="727.6161616161617"/>
  <unicode hex="002F"/>
  <outline>
    <contour>
      <point x="0.0" y="-240.0" type="line"/>
      <point x="168.50505050505058" y="-240.0" type="line"/>
      <point x="727.6161616161617" y="1616.0" type="line"/>
      <point x="559.1111111111111" y="1616.0" type="line"/>
    </contour>
  </outline>
</glyph>
<glyph name="zero" format="2">
  <advance width="1414.0404040404042"/>
  <unicode hex="0030"/>
  <note>
600
</note>
  <outline>
    <contour>
      <point x="706.7676767676768" y="-18.505050505050505" type="curve" smooth="yes"/>
      <point x="1052.5252525252527" y="-18.505050505050505"/>
      <point x="1279.6767676767677" y="196.14141414141415"/>
      <point x="1279.6767676767677" y="740.0" type="curve" smooth="yes"/>
      <point x="1279.6767676767677" y="1283.858585858586"/>
      <point x="1057.0101010101012" y="1498.5050505050506"/>
      <point x="706.7676767676768" y="1498.5050505050506" type="curve" smooth="yes"/>
      <point x="356.52525252525254" y="1498.5050505050506"/>
      <point x="134.36363636363635" y="1283.858585858586"/>
      <point x="134.36363636363635" y="740.0" type="curve" smooth="yes"/>
      <point x="134.36363636363635" y="196.14141414141415"/>
      <point x="361.01010101010104" y="-18.505050505050505"/>
    </contour>
    <contour>
      <point x="707.2727272727273" y="126.28282828282833" type="curve" smooth="yes"/>
      <point x="463.59595959595964" y="126.28282828282833"/>
      <point x="304.8484848484849" y="267.61616161616166"/>
      <point x="304.8484848484849" y="742.989898989899" type="curve" smooth="yes"/>
      <point x="304.8484848484849" y="1212.3838383838383"/>
      <point x="464.6060606060606" y="1353.7171717171716"/>
      <point x="707.2727272727273" y="1353.7171717171716" type="curve" smooth="yes"/>
      <point x="949.4343434343434" y="1353.7171717171716"/>
      <point x="1109.1919191919192" y="1212.3838383838383"/>
      <point x="1109.1919191919192" y="737.010101010101" type="curve" smooth="yes"/>
      <point x="1109.1919191919192" y="267.61616161616166"/>
      <point x="949.4343434343434" y="126.28282828282833"/>
    </contour>
  </outline>
</glyph>
<glyph name="one" format="2">
  <advance width="864.2020202020203"/>
  <unicode hex="0031"/>
  <outline>
    <contour>
      <point x="488.8888888888889" y="0.0" type="line"/>
      <point x="659.9191919191919" y="0.0" type="line"/>
      <point x="659.9191919191919" y="1484.5050505050506" type="line"/>
      <point x="544.7272727272727" y="1484.5050505050506" type="line"/>
      <point x="32.06060606060606" y="1117.878787878788" type="line"/>
      <point x="32.06060606060606" y="947.4747474747473" type="line"/>
      <point x="544.7272727272727" y="1311.111111111111" type="line"/>
      <point x="488.8888888888889" y="1368.080808080808" type="line"/>
    </contour>
  </outline>
</glyph>
<glyph name="two" format="2">
  <advance width="1122.0404040404042"/>
  <unicode hex="0032"/>
  <outline>
    <contour>
      <point x="73.41414141414141" y="0.0" type="line"/>
      <point x="1048.6060606060605" y="0.0" type="line"/>
      <point x="1048.6060606060605" y="140.76767676767682" type="line"/>
      <point x="257.55555555555566" y="140.76767676767682" type="line"/>
      <point x="267.5151515151516" y="92.52525252525257" type="line"/>
      <point x="689.2929292929293" y="567.0909090909091" type="line" smooth="yes"/>
      <point x="886.2020202020203" y="788.4040404040404"/>
      <point x="952.6868686868687" y="922.9090909090909"/>
      <point x="952.6868686868687" y="1093.3535353535353" type="curve" smooth="yes"/>
      <point x="952.6868686868688" y="1368.4444444444443"/>
      <point x="779.0707070707072" y="1498.5050505050506"/>
      <point x="441.07070707070704" y="1498.5050505050506" type="curve" smooth="yes"/>
      <point x="296.0808080808081" y="1498.5050505050506"/>
      <point x="155.4141414141414" y="1474.4848484848485"/>
      <point x="55.41414141414141" y="1438.5050505050506" type="curve"/>
      <point x="55.41414141414141" y="1294.7474747474746" type="line"/>
      <point x="164.86868686868686" y="1334.7272727272727"/>
      <point x="293.95959595959596" y="1357.7575757575758"/>
      <point x="431.979797979798" y="1357.7575757575758" type="curve" smooth="yes"/>
      <point x="671.3535353535353" y="1357.7575757575758"/>
      <point x="782.6868686868686" y="1269.3939393939393"/>
      <point x="782.6868686868686" y="1076.7272727272727" type="curve" smooth="yes"/>
      <point x="782.6868686868686" y="950.4242424242424"/>
      <point x="724.7474747474747" y="833.0909090909091"/>
      <point x="554.4040404040404" y="638.3232323232323" type="curve" smooth="yes"/>
      <point x="73.41414141414141" y="91.01010101010104" type="line"/>
    </contour>
  </outline>
</glyph>
<glyph name="three" format="2">
  <advance width="1133.030303030303"/>
  <unicode hex="0033"/>
  <outline>
    <contour>
      <point x="467.21212121212125" y="-18.505050505050505" type="curve" smooth="yes"/>
      <point x="875.4949494949495" y="-18.505050505050505"/>
      <point x="1055.5555555555557" y="145.53535353535352"/>
      <point x="1055.5555555555557" y="409.0505050505051" type="curve" smooth="yes"/>
      <point x="1055.5555555555557" y="624.0202020202021"/>
      <point x="914.1010101010102" y="752.4444444444445"/>
      <point x="663.7979797979799" y="779.959595959596" type="curve"/>
      <point x="663.7979797979799" y="754.5050505050505" type="line"/>
      <point x="867.6565656565657" y="795.4949494949495"/>
      <point x="1003.0505050505051" y="923.4747474747475"/>
      <point x="1003.0505050505051" y="1117.858585858586" type="curve" smooth="yes"/>
      <point x="1003.0505050505051" y="1355.9595959595958"/>
      <point x="823.959595959596" y="1498.5050505050506"/>
      <point x="493.57575757575756" y="1498.5050505050506" type="curve" smooth="yes"/>
      <point x="359.5353535353535" y="1498.5050505050506"/>
      <point x="222.3838383838384" y="1478.4848484848485"/>
      <point x="108.40404040404039" y="1442.989898989899" type="curve"/>
      <point x="108.40404040404039" y="1308.8282828282827" type="line"/>
      <point x="231.37373737373736" y="1348.3232323232323"/>
      <point x="360.9494949494949" y="1366.3434343434342"/>
      <point x="480.969696969697" y="1366.3434343434342" type="curve" smooth="yes"/>
      <point x="713.7777777777777" y="1366.3434343434342"/>
      <point x="836.5858585858585" y="1270.0"/>
      <point x="836.5858585858585" y="1107.2727272727273" type="curve" smooth="yes"/>
      <point x="836.5858585858585" y="917.1717171717172"/>
      <point x="690.4040404040404" y="825.8181818181819"/>
      <point x="403.21212121212125" y="825.8181818181819" type="curve" smooth="yes"/>
      <point x="281.25252525252523" y="825.8181818181819" type="line"/>
      <point x="281.25252525252523" y="693.1515151515151" type="line"/>
      <point x="510.0" y="693.1515151515151" type="line" smooth="yes"/>
      <point x="774.3232323232323" y="693.1515151515151"/>
      <point x="892.6262626262626" y="594.3232323232323"/>
      <point x="892.6262626262626" y="417.6161616161616" type="curve" smooth="yes"/>
      <point x="892.6262626262626" y="224.46464646464648"/>
      <point x="763.3131313131313" y="113.6565656565657"/>
      <point x="463.13131313131316" y="113.6565656565657" type="curve" smooth="yes"/>
      <point x="334.04040404040404" y="113.6565656565657"/>
      <point x="191.95959595959596" y="136.6666666666667"/>
      <point x="61.474747474747474" y="177.13131313131316" type="curve"/>
      <point x="61.474747474747474" y="42.96969696969697" type="line"/>
      <point x="184.02020202020202" y="3.4949494949494944"/>
      <point x="329.07070707070704" y="-18.505050505050505"/>
    </contour>
  </outline>
</glyph>
<glyph name="four" format="2">
  <advance width="1320.080808080808"/>
  <unicode hex="0034"/>
  <outline>
    <contour>
      <point x="51.93939393939394" y="351.67676767676767" type="line"/>
      <point x="1274.6262626262626" y="351.67676767676767" type="line"/>
      <point x="1274.6262626262626" y="490.42424242424244" type="line"/>
      <point x="201.8585858585859" y="490.42424242424244" type="line"/>
      <point x="224.40404040404047" y="443.21212121212125" type="line"/>
      <point x="873.9595959595961" y="1480.0" type="line"/>
      <point x="701.0101010101009" y="1480.0" type="line"/>
      <point x="51.93939393939394" y="444.7070707070707" type="line"/>
    </contour>
    <contour>
      <point x="886.8282828282828" y="0.0" type="line"/>
      <point x="1045.2323232323233" y="0.0" type="line"/>
      <point x="1045.2323232323233" y="980.0" type="line"/>
      <point x="907.3939393939394" y="980.0" type="line"/>
      <point x="886.8282828282828" y="490.42424242424244" type="line"/>
    </contour>
  </outline>
</glyph>
<glyph name="five" format="2">
  <advance width="1149.5151515151515"/>
  <unicode hex="0035"/>
  <outline>
    <contour>
      <point x="494.2020202020202" y="-18.505050505050505" type="curve" smooth="yes"/>
      <point x="886.4848484848485" y="-18.505050505050505"/>
      <point x="1082.5454545454545" y="138.06060606060606"/>
      <point x="1083.050505050505" y="423.6161616161616" type="curve" smooth="yes"/>
      <point x="1083.5555555555557" y="689.1919191919192"/>
      <point x="906.0" y="829.2727272727273"/>
      <point x="417.33333333333337" y="856.2626262626263" type="curve" smooth="yes"/>
      <point x="199.1919191919192" y="868.2626262626263" type="line"/>
      <point x="318.86868686868695" y="796.989898989899" type="line"/>
      <point x="363.35353535353545" y="1411.7575757575758" type="line"/>
      <point x="284.949494949495" y="1347.3131313131312" type="line"/>
      <point x="1020.040404040404" y="1347.3131313131312" type="line"/>
      <point x="1020.040404040404" y="1480.0" type="line"/>
      <point x="205.91919191919192" y="1480.0" type="line"/>
      <point x="152.4040404040404" y="737.1111111111111" type="line"/>
      <point x="370.54545454545456" y="725.1111111111111" type="line" smooth="yes"/>
      <point x="791.8181818181818" y="701.1313131313132"/>
      <point x="919.6161616161615" y="609.7777777777777"/>
      <point x="919.6161616161615" y="422.6060606060606" type="curve" smooth="yes"/>
      <point x="919.6161616161615" y="219.01010101010104"/>
      <point x="781.3333333333334" y="115.67676767676772"/>
      <point x="490.1212121212121" y="115.67676767676772" type="curve" smooth="yes"/>
      <point x="358.04040404040404" y="115.67676767676772"/>
      <point x="215.95959595959596" y="138.68686868686873"/>
      <point x="88.46464646464646" y="179.15151515151518" type="curve"/>
      <point x="88.46464646464646" y="44.98989898989899" type="line"/>
      <point x="209.5151515151515" y="6.0"/>
      <point x="354.5656565656566" y="-18.505050505050505"/>
    </contour>
  </outline>
</glyph>
<glyph name="six" format="2">
  <advance width="1294.1010101010102"/>
  <unicode hex="0036"/>
  <outline>
    <contour>
      <point x="720.7474747474748" y="-18.505050505050505" type="curve" smooth="yes"/>
      <point x="1022.5858585858587" y="-18.505050505050505"/>
      <point x="1220.141414141414" y="136.14141414141415"/>
      <point x="1220.141414141414" y="416.14141414141415" type="curve" smooth="yes"/>
      <point x="1220.141414141414" y="708.7474747474747"/>
      <point x="1026.060606060606" y="851.2323232323232"/>
      <point x="707.0707070707072" y="851.2323232323232" type="curve" smooth="yes"/>
      <point x="552.6060606060606" y="851.2323232323232"/>
      <point x="383.6565656565657" y="803.7575757575758"/>
      <point x="280.72727272727275" y="726.8080808080808" type="curve"/>
      <point x="280.72727272727275" y="597.2525252525253" type="line"/>
      <point x="387.15151515151524" y="683.6363636363636"/>
      <point x="551.9191919191919" y="722.10101010101"/>
      <point x="679.3333333333334" y="722.10101010101" type="curve" smooth="yes"/>
      <point x="924.4444444444445" y="722.10101010101"/>
      <point x="1060.7474747474748" y="621.7777777777777"/>
      <point x="1060.7474747474748" y="412.1212121212121" type="curve" smooth="yes"/>
      <point x="1060.7474747474748" y="206.48484848484853"/>
      <point x="923.4747474747475" y="110.62626262626267"/>
      <point x="720.7474747474748" y="110.62626262626267" type="curve" smooth="yes"/>
      <point x="461.13131313131316" y="110.62626262626267"/>
      <point x="308.8484848484849" y="260.8686868686869"/>
      <point x="308.8484848484849" y="672.8080808080808" type="curve" smooth="yes"/>
      <point x="308.8484848484849" y="733.7979797979798" type="line" smooth="yes"/>
      <point x="308.8484848484849" y="1155.070707070707"/>
      <point x="485.1717171717172" y="1364.3232323232323"/>
      <point x="842.949494949495" y="1364.3232323232323" type="curve" smooth="yes"/>
      <point x="936.0202020202021" y="1364.3232323232323"/>
      <point x="1055.050505050505" y="1350.3030303030303"/>
      <point x="1147.090909090909" y="1313.7979797979797" type="curve"/>
      <point x="1147.090909090909" y="1449.979797979798" type="line"/>
      <point x="1053.5151515151515" y="1486.0"/>
      <point x="942.9898989898991" y="1498.5050505050506"/>
      <point x="832.8686868686868" y="1498.5050505050506" type="curve" smooth="yes"/>
      <point x="381.030303030303" y="1498.5050505050506"/>
      <point x="141.37373737373736" y="1225.4141414141413"/>
      <point x="141.37373737373736" y="690.969696969697" type="curve" smooth="yes"/>
      <point x="141.37373737373736" y="194.08080808080808"/>
      <point x="364.06060606060606" y="-18.505050505050505"/>
    </contour>
  </outline>
</glyph>
<glyph name="seven" format="2">
  <advance width="1056.5656565656566"/>
  <unicode hex="0037"/>
  <outline>
    <contour>
      <point x="202.0" y="0.0" type="line"/>
      <point x="380.5252525252526" y="0.0" type="line"/>
      <point x="995.5757575757576" y="1388.9898989898988" type="line"/>
      <point x="995.5757575757576" y="1480.0" type="line"/>
      <point x="14.98989898989899" y="1480.0" type="line"/>
      <point x="14.98989898989899" y="1339.232323232323" type="line"/>
      <point x="877.9797979797979" y="1339.232323232323" type="line"/>
      <point x="827.6363636363636" y="1390.4848484848485" type="line"/>
    </contour>
  </outline>
</glyph>
<glyph name="eight" format="2">
  <advance width="1414.0404040404042"/>
  <unicode hex="0038"/>
  <outline>
    <contour>
      <point x="714.7474747474748" y="-18.505050505050505" type="curve" smooth="yes"/>
      <point x="1101.1313131313132" y="-18.505050505050505"/>
      <point x="1294.6464646464647" y="147.15151515151516"/>
      <point x="1294.6464646464647" y="390.14141414141415" type="curve" smooth="yes"/>
      <point x="1294.6464646464647" y="599.6565656565657"/>
      <point x="1154.7070707070707" y="731.7171717171717"/>
      <point x="773.030303030303" y="801.3131313131313" type="curve" smooth="yes"/>
      <point x="438.08080808080814" y="861.3535353535353"/>
      <point x="337.27272727272737" y="949.6969696969697"/>
      <point x="337.27272727272737" y="1113.8989898989898" type="curve" smooth="yes"/>
      <point x="337.27272727272737" y="1271.5555555555554"/>
      <point x="456.5656565656566" y="1372.4040404040404"/>
      <point x="707.3535353535353" y="1372.4040404040404" type="curve" smooth="yes"/>
      <point x="949.5757575757576" y="1372.4040404040404"/>
      <point x="1085.8383838383838" y="1281.050505050505"/>
      <point x="1085.8383838383838" y="1109.3737373737374" type="curve" smooth="yes"/>
      <point x="1085.8383838383838" y="957.6363636363636"/>
      <point x="1001.4545454545455" y="858.2424242424242"/>
      <point x="797.1717171717172" y="782.2828282828283" type="curve"/>
      <point x="913.6767676767678" y="732.1212121212121" type="line"/>
      <point x="1133.2929292929293" y="804.6262626262626"/>
      <point x="1239.6969696969697" y="939.6363636363636"/>
      <point x="1239.6969696969697" y="1125.5151515151515" type="curve" smooth="yes"/>
      <point x="1239.6969696969697" y="1359.010101010101"/>
      <point x="1047.6161616161617" y="1498.5050505050506"/>
      <point x="712.3838383838383" y="1498.5050505050506" type="curve" smooth="yes"/>
      <point x="360.9090909090909" y="1498.5050505050506"/>
      <point x="171.83838383838383" y="1346.3838383838383"/>
      <point x="171.83838383838383" y="1107.3535353535353" type="curve" smooth="yes"/>
      <point x="171.83838383838383" y="887.8787878787879"/>
      <point x="312.80808080808083" y="744.7676767676768"/>
      <point x="702.9494949494949" y="675.2121212121212" type="curve" smooth="yes"/>
      <point x="1020.8888888888889" y="618.2020202020202"/>
      <point x="1130.7272727272727" y="537.8181818181818"/>
      <point x="1130.7272727272727" y="379.57575757575756" type="curve" smooth="yes"/>
      <point x="1130.7272727272727" y="204.42424242424244"/>
      <point x="990.969696969697" y="107.59595959595964"/>
      <point x="716.7474747474748" y="107.59595959595964" type="curve" smooth="yes"/>
      <point x="430.5656565656566" y="107.59595959595964"/>
      <point x="281.3131313131314" y="206.44444444444446"/>
      <point x="281.3131313131314" y="393.11111111111114" type="curve" smooth="yes"/>
      <point x="281.3131313131314" y="542.8484848484849"/>
      <point x="382.64646464646466" y="669.6969696969696"/>
      <point x="595.979797979798" y="725.6767676767677" type="curve"/>
      <point x="463.4141414141414" y="774.3232323232323" type="line"/>
      <point x="245.37373737373736" y="709.3535353535353"/>
      <point x="117.87878787878788" y="572.3636363636364"/>
      <point x="117.87878787878788" y="372.9494949494949" type="curve" smooth="yes"/>
      <point x="117.87878787878788" y="125.57575757575758"/>
      <point x="313.83838383838383" y="-18.505050505050505"/>
    </contour>
  </outline>
</glyph>
<glyph name="nine" format="2">
  <advance width="1294.1010101010102"/>
  <unicode hex="0039"/>
  <outline>
    <contour>
      <point x="573.3535353535353" y="1498.5050505050506" type="curve" smooth="yes"/>
      <point x="271.5151515151515" y="1498.5050505050506"/>
      <point x="73.95959595959596" y="1343.858585858586"/>
      <point x="73.95959595959596" y="1063.858585858586" type="curve" smooth="yes"/>
      <point x="73.95959595959596" y="771.2525252525253"/>
      <point x="268.04040404040404" y="628.7676767676768"/>
      <point x="587.030303030303" y="628.7676767676768" type="curve" smooth="yes"/>
      <point x="741.4949494949495" y="628.7676767676768"/>
      <point x="910.4444444444445" y="676.2424242424242"/>
      <point x="1013.3737373737374" y="753.1919191919192" type="curve"/>
      <point x="1013.3737373737374" y="882.7474747474747" type="line"/>
      <point x="906.9494949494949" y="796.3636363636364"/>
      <point x="742.1818181818182" y="757.89898989899"/>
      <point x="614.7676767676768" y="757.89898989899" type="curve" smooth="yes"/>
      <point x="369.6565656565657" y="757.89898989899"/>
      <point x="233.35353535353542" y="858.2222222222223"/>
      <point x="233.35353535353542" y="1067.8787878787878" type="curve" smooth="yes"/>
      <point x="233.35353535353542" y="1273.5151515151515"/>
      <point x="370.62626262626264" y="1369.3737373737374"/>
      <point x="573.3535353535353" y="1369.3737373737374" type="curve" smooth="yes"/>
      <point x="832.969696969697" y="1369.3737373737374"/>
      <point x="985.2525252525252" y="1219.1313131313132"/>
      <point x="985.2525252525252" y="807.1919191919192" type="curve" smooth="yes"/>
      <point x="985.2525252525252" y="746.2020202020202" type="line" smooth="yes"/>
      <point x="985.2525252525252" y="324.92929292929296"/>
      <point x="808.929292929293" y="115.67676767676772"/>
      <point x="451.1515151515151" y="115.67676767676772" type="curve" smooth="yes"/>
      <point x="358.0808080808081" y="115.67676767676772"/>
      <point x="239.05050505050505" y="129.69696969696975"/>
      <point x="147.010101010101" y="166.20202020202026" type="curve"/>
      <point x="147.010101010101" y="30.02020202020202" type="line"/>
      <point x="240.5858585858586" y="-6.0"/>
      <point x="351.1111111111111" y="-18.505050505050505"/>
      <point x="461.23232323232327" y="-18.505050505050505" type="curve" smooth="yes"/>
      <point x="913.0707070707072" y="-18.505050505050505"/>
      <point x="1152.7272727272727" y="254.5858585858586"/>
      <point x="1152.7272727272727" y="789.030303030303" type="curve" smooth="yes"/>
      <point x="1152.7272727272727" y="1285.919191919192"/>
      <point x="930.0404040404042" y="1498.5050505050506"/>
    </contour>
  </outline>
</glyph>
<glyph name="colon" format="2">
  <advance width="513.6161616161617"/>
  <unicode hex="003A"/>
  <outline>
    <contour>
      <point x="256.80808080808083" y="-12.525252525252526" type="curve" smooth="yes"/>
      <point x="329.6767676767677" y="-12.525252525252526"/>
      <point x="376.38383838383845" y="31.171717171717184"/>
      <point x="376.38383838383845" y="98.4646464646465" type="curve" smooth="yes"/>
      <point x="376.38383838383845" y="165.7575757575758"/>
      <point x="330.6868686868687" y="210.94949494949503"/>
      <point x="256.80808080808083" y="210.94949494949503" type="curve" smooth="yes"/>
      <point x="182.92929292929293" y="210.94949494949503"/>
      <point x="137.2323232323232" y="166.76767676767682"/>
      <point x="137.2323232323232" y="98.4646464646465" type="curve" smooth="yes"/>
      <point x="137.2323232323232" y="30.161616161616173"/>
      <point x="183.93939393939394" y="-12.525252525252526"/>
    </contour>
    <contour>
      <point x="256.80808080808083" y="874.10101010101" type="curve" smooth="yes"/>
      <point x="329.6767676767677" y="874.10101010101"/>
      <point x="376.38383838383845" y="917.7979797979798"/>
      <point x="376.38383838383845" y="985.090909090909" type="curve" smooth="yes"/>
      <point x="376.38383838383845" y="1052.3838383838383"/>
      <point x="330.6868686868687" y="1097.5757575757575"/>
      <point x="256.80808080808083" y="1097.5757575757575" type="curve" smooth="yes"/>
      <point x="182.92929292929293" y="1097.5757575757575"/>
      <point x="137.2323232323232" y="1053.3939393939395"/>
      <point x="137.2323232323232" y="985.090909090909" type="curve" smooth="yes"/>
      <point x="137.2323232323232" y="916.7878787878788"/>
      <point x="183.93939393939394" y="874.10101010101"/>
    </contour>
  </outline>
</glyph>
<glyph name="semicolon" format="2">
  <advance width="513.6161616161617"/>
  <unicode hex="003B"/>
  <outline>
    <contour>
      <point x="173.97979797979798" y="-315.1515151515152" type="curve"/>
      <point x="272.0202020202021" y="-315.1515151515152" type="line"/>
      <point x="332.7474747474748" y="-209.03030303030303"/>
      <point x="375.3737373737374" y="-74.82828282828282"/>
      <point x="375.3737373737374" y="64.32323232323235" type="curve" smooth="yes"/>
      <point x="375.3737373737374" y="164.72727272727278"/>
      <point x="330.6868686868687" y="210.94949494949503"/>
      <point x="253.79797979797982" y="210.94949494949503" type="curve" smooth="yes"/>
      <point x="181.43434343434342" y="210.94949494949503"/>
      <point x="137.2323232323232" y="166.76767676767682"/>
      <point x="137.2323232323232" y="99.95959595959599" type="curve" smooth="yes"/>
      <point x="137.2323232323232" y="31.656565656565668"/>
      <point x="183.93939393939394" y="-12.525252525252526"/>
      <point x="256.80808080808083" y="-12.525252525252526" type="curve" smooth="yes"/>
      <point x="279.9191919191919" y="-12.525252525252526" type="line"/>
      <point x="250.66666666666669" y="22.101010101010107" type="line"/>
      <point x="250.66666666666669" y="-87.97979797979798"/>
      <point x="222.1010101010101" y="-191.05050505050505"/>
    </contour>
    <contour>
      <point x="256.80808080808083" y="874.10101010101" type="curve" smooth="yes"/>
      <point x="329.6767676767677" y="874.10101010101"/>
      <point x="376.38383838383845" y="917.7979797979798"/>
      <point x="376.38383838383845" y="985.090909090909" type="curve" smooth="yes"/>
      <point x="376.38383838383845" y="1052.3838383838383"/>
      <point x="330.6868686868687" y="1097.5757575757575"/>
      <point x="256.80808080808083" y="1097.5757575757575" type="curve" smooth="yes"/>
      <point x="182.92929292929293" y="1097.5757575757575"/>
      <point x="137.2323232323232" y="1053.3939393939395"/>
      <point x="137.2323232323232" y="985.090909090909" type="curve" smooth="yes"/>
      <point x="137.2323232323232" y="916.7878787878788"/>
      <point x="183.93939393939394" y="874.10101010101"/>
    </contour>
  </outline>
</glyph>
<glyph name="less" format="2">
  <advance width="1130.2222222222222"/>
  <unicode hex="003C"/>
  <outline>
    <contour>
      <point x="959.4141414141415" y="359.030303030303" type="line"/>
      <point x="959.4141414141415" y="498.7070707070707" type="line"/>
      <point x="278.74747474747477" y="777.5555555555555" type="line"/>
      <point x="278.74747474747477" y="744.969696969697" type="line"/>
      <point x="959.4141414141415" y="1021.2929292929293" type="line"/>
      <point x="959.4141414141415" y="1160.969696969697" type="line"/>
      <point x="170.8080808080808" y="833.4747474747475" type="line"/>
      <point x="170.8080808080808" y="686.5252525252525" type="line"/>
    </contour>
  </outline>
</glyph>
<glyph name="equal" format="2">
  <advance width="1130.2222222222222"/>
  <unicode hex="003D"/>
  <outline>
    <contour>
      <point x="170.8080808080808" y="892.3232323232323" type="line"/>
      <point x="959.4141414141415" y="892.3232323232323" type="line"/>
      <point x="959.4141414141415" y="1026.020202020202" type="line"/>
      <point x="170.8080808080808" y="1026.020202020202" type="line"/>
    </contour>
    <contour>
      <point x="170.8080808080808" y="493.9797979797979" type="line"/>
      <point x="959.4141414141415" y="493.9797979797979" type="line"/>
      <point x="959.4141414141415" y="627.6767676767677" type="line"/>
      <point x="170.8080808080808" y="627.6767676767677" type="line"/>
    </contour>
  </outline>
</glyph>
<glyph name="greater" format="2">
  <advance width="1130.2222222222222"/>
  <unicode hex="003E"/>
  <outline>
    <contour>
      <point x="170.8080808080808" y="359.030303030303" type="line"/>
      <point x="959.4141414141415" y="686.5252525252525" type="line"/>
      <point x="959.4141414141415" y="833.4747474747475" type="line"/>
      <point x="170.8080808080808" y="1160.969696969697" type="line"/>
      <point x="170.8080808080808" y="1021.2929292929293" type="line"/>
      <point x="851.4747474747475" y="744.969696969697" type="line"/>
      <point x="851.4747474747475" y="777.5555555555555" type="line"/>
      <point x="170.8080808080808" y="498.7070707070707" type="line"/>
    </contour>
  </outline>
</glyph>
<glyph name="question" format="2">
  <advance width="1007.1111111111111"/>
  <unicode hex="003F"/>
  <outline>
    <contour>
      <point x="411.979797979798" y="358.58585858585866" type="line"/>
      <point x="518.0606060606061" y="358.58585858585866" type="line"/>
      <point x="532.6060606060606" y="671.4545454545455" type="line"/>
      <point x="825.959595959596" y="768.3232323232323"/>
      <point x="941.1313131313132" y="894.8282828282828"/>
      <point x="941.1313131313132" y="1115.3333333333333" type="curve" smooth="yes"/>
      <point x="941.1313131313132" y="1355.9595959595958"/>
      <point x="762.040404040404" y="1498.5050505050506"/>
      <point x="431.65656565656565" y="1498.5050505050506" type="curve" smooth="yes"/>
      <point x="297.6161616161616" y="1498.5050505050506"/>
      <point x="160.46464646464648" y="1478.4848484848485"/>
      <point x="46.484848484848484" y="1442.989898989899" type="curve"/>
      <point x="46.484848484848484" y="1303.7777777777778" type="line"/>
      <point x="169.45454545454544" y="1343.2727272727273"/>
      <point x="298.020202020202" y="1361.2929292929293"/>
      <point x="418.04040404040404" y="1361.2929292929293" type="curve" smooth="yes"/>
      <point x="651.8585858585859" y="1361.2929292929293"/>
      <point x="774.6666666666666" y="1266.4646464646464"/>
      <point x="774.6666666666666" y="1106.2626262626263" type="curve" smooth="yes"/>
      <point x="774.6666666666666" y="941.5959595959596"/>
      <point x="681.7373737373737" y="844.2020202020202"/>
      <point x="382.8080808080808" y="762.8888888888889" type="curve"/>
    </contour>
    <contour>
      <point x="465.2727272727273" y="-12.525252525252526" type="curve" smooth="yes"/>
      <point x="539.6363636363637" y="-12.525252525252526"/>
      <point x="584.848484848485" y="30.646464646464658"/>
      <point x="584.848484848485" y="93.41414141414145" type="curve" smooth="yes"/>
      <point x="584.848484848485" y="157.67676767676772"/>
      <point x="539.1515151515152" y="200.84848484848493"/>
      <point x="465.2727272727273" y="200.84848484848493" type="curve" smooth="yes"/>
      <point x="391.3939393939394" y="200.84848484848493"/>
      <point x="345.6969696969697" y="158.68686868686873"/>
      <point x="345.6969696969697" y="93.41414141414145" type="curve" smooth="yes"/>
      <point x="345.6969696969697" y="29.636363636363647"/>
      <point x="392.4040404040404" y="-12.525252525252526"/>
    </contour>
  </outline>
</glyph>
<glyph name="at" format="2">
  <advance width="2171.878787878788"/>
  <unicode hex="0040"/>
  <outline>
    <contour>
      <point x="1138.9292929292928" y="-460.0" type="curve" smooth="yes"/>
      <point x="1293.050505050505" y="-460.0"/>
      <point x="1450.141414141414" y="-440.5050505050505"/>
      <point x="1590.2828282828284" y="-404.5050505050505" type="curve"/>
      <point x="1590.2828282828284" y="-283.9797979797979" type="line"/>
      <point x="1433.1919191919192" y="-322.96969696969694"/>
      <point x="1291.5555555555557" y="-340.96969696969694"/>
      <point x="1138.9292929292928" y="-340.96969696969694" type="curve" smooth="yes"/>
      <point x="543.3939393939395" y="-340.96969696969694"/>
      <point x="259.49494949494954" y="-63.75757575757575"/>
      <point x="259.49494949494954" y="522.989898989899" type="curve" smooth="yes"/>
      <point x="259.49494949494954" y="1096.2828282828282"/>
      <point x="540.4040404040404" y="1378.969696969697"/>
      <point x="1092.4444444444443" y="1378.969696969697" type="curve" smooth="yes"/>
      <point x="1643.4949494949497" y="1378.969696969697"/>
      <point x="1919.919191919192" y="1104.2828282828282"/>
      <point x="1921.4343434343434" y="560.5656565656566" type="curve" smooth="yes"/>
      <point x="1922.4444444444446" y="220.7676767676768"/>
      <point x="1814.1010101010102" y="98.00000000000003"/>
      <point x="1684.2626262626263" y="98.00000000000003" type="curve" smooth="yes"/>
      <point x="1590.888888888889" y="98.00000000000003"/>
      <point x="1538.4444444444446" y="140.94949494949498"/>
      <point x="1538.4444444444446" y="270.74747474747477" type="curve" smooth="yes"/>
      <point x="1538.4444444444446" y="696.5858585858585" type="line" smooth="yes"/>
      <point x="1538.4444444444446" y="999.8787878787879"/>
      <point x="1379.858585858586" y="1096.5050505050506"/>
      <point x="1080.8686868686868" y="1096.5050505050506" type="curve" smooth="yes"/>
      <point x="966.7878787878788" y="1096.5050505050506"/>
      <point x="836.2222222222222" y="1077.4949494949494"/>
      <point x="733.1313131313132" y="1040.4848484848485" type="curve"/>
      <point x="733.1313131313132" y="908.3434343434343" type="line"/>
      <point x="847.090909090909" y="948.3232323232323"/>
      <point x="969.1313131313132" y="964.3434343434343"/>
      <point x="1061.151515151515" y="964.3434343434343" type="curve" smooth="yes"/>
      <point x="1266.121212121212" y="964.3434343434343"/>
      <point x="1372.969696969697" y="908.8686868686868"/>
      <point x="1372.969696969697" y="700.1414141414141" type="curve" smooth="yes"/>
      <point x="1372.969696969697" y="239.71717171717174" type="line"/>
      <point x="1287.1515151515152" y="151.4545454545455"/>
      <point x="1165.2929292929293" y="107.0707070707071"/>
      <point x="1051.5757575757575" y="107.0707070707071" type="curve" smooth="yes"/>
      <point x="896.8888888888889" y="107.0707070707071"/>
      <point x="818.4444444444446" y="174.40404040404044"/>
      <point x="818.4444444444446" y="292.7070707070707" type="curve" smooth="yes"/>
      <point x="818.4444444444446" y="409.03030303030306"/>
      <point x="894.8282828282829" y="467.8989898989899"/>
      <point x="1074.0404040404042" y="488.8484848484848" type="curve" smooth="yes"/>
      <point x="1427.1919191919192" y="529.7575757575758" type="line"/>
      <point x="1423.5555555555557" y="635.6565656565657" type="line"/>
      <point x="1063.939393939394" y="594.7474747474747" type="line" smooth="yes"/>
      <point x="773.6161616161617" y="565.2727272727273"/>
      <point x="647.4747474747475" y="464.7070707070707"/>
      <point x="647.4747474747475" y="279.11111111111114" type="curve" smooth="yes"/>
      <point x="647.4747474747475" y="96.56565656565657"/>
      <point x="779.0101010101009" y="-17.515151515151516"/>
      <point x="1013.1919191919192" y="-17.515151515151516" type="curve" smooth="yes"/>
      <point x="1160.6464646464647" y="-17.515151515151516"/>
      <point x="1300.1010101010102" y="37.91919191919192"/>
      <point x="1375.4949494949494" y="130.50505050505052" type="curve"/>
      <point x="1389.030303030303" y="130.50505050505052" type="line"/>
      <point x="1427.1717171717173" y="37.95959595959596"/>
      <point x="1512.828282828283" y="-17.515151515151516"/>
      <point x="1650.969696969697" y="-17.515151515151516" type="curve" smooth="yes"/>
      <point x="1877.3535353535353" y="-17.515151515151516"/>
      <point x="2046.020202020202" y="147.47474747474746"/>
      <point x="2047.5151515151515" y="567.070707070707" type="curve" smooth="yes"/>
      <point x="2049.010101010101" y="1167.090909090909"/>
      <point x="1714.3030303030305" y="1498.0"/>
      <point x="1092.4444444444443" y="1498.0" type="curve" smooth="yes"/>
      <point x="472.5858585858586" y="1498.0"/>
      <point x="124.36363636363635" y="1167.090909090909"/>
      <point x="124.36363636363635" y="520.0" type="curve" smooth="yes"/>
      <point x="124.36363636363635" y="-130.08080808080808"/>
      <point x="474.0808080808081" y="-458.5050505050505"/>
    </contour>
  </outline>
</glyph>
<glyph name="B" format="2">
  <advance width="1387.4545454545455"/>
  <unicode hex="0042"/>
  <anchor x="711.7777777777778" y="0.0" name="bottom"/>
  <anchor x="711.7777777777778" y="1480.0" name="top"/>
  <outline>
    <contour>
      <point x="607.0505050505051" y="-12.525252525252526" type="curve" smooth="yes"/>
      <point x="1122.0" y="-12.525252525252526"/>
      <point x="1305.050505050505" y="138.06060606060606"/>
      <point x="1305.050505050505" y="407.57575757575756" type="curve" smooth="yes"/>
      <point x="1305.050505050505" y="607.5959595959596"/>
      <point x="1192.0" y="743.4949494949495"/>
      <point x="949.7777777777778" y="769.4949494949495" type="curve"/>
      <point x="945.2929292929293" y="754.5050505050505" type="line"/>
      <point x="1163.5353535353536" y="786.5050505050505"/>
      <point x="1262.5656565656566" y="917.4747474747475"/>
      <point x="1262.5656565656566" y="1096.909090909091" type="curve" smooth="yes"/>
      <point x="1262.5656565656566" y="1358.949494949495"/>
      <point x="1084.969696969697" y="1495.5151515151515"/>
      <point x="655.6767676767677" y="1495.5151515151515" type="curve" smooth="yes"/>
      <point x="482.64646464646466" y="1495.5151515151515"/>
      <point x="338.8282828282828" y="1478.969696969697"/>
      <point x="194.28282828282826" y="1448.4444444444443" type="curve"/>
      <point x="194.28282828282826" y="14.989898989898988" type="line"/>
      <point x="344.24242424242425" y="-4.505050505050505"/>
      <point x="473.0505050505051" y="-12.525252525252526"/>
    </contour>
    <contour>
      <point x="641.8787878787879" y="117.61616161616166" type="curve" smooth="yes"/>
      <point x="532.0808080808081" y="117.61616161616166"/>
      <point x="451.1919191919192" y="122.10101010101015"/>
      <point x="362.28282828282835" y="135.57575757575762" type="curve"/>
      <point x="362.28282828282835" y="1339.8989898989898" type="line"/>
      <point x="446.66666666666674" y="1355.8787878787878"/>
      <point x="538.5656565656566" y="1365.3737373737374"/>
      <point x="670.8080808080808" y="1365.3737373737374" type="curve" smooth="yes"/>
      <point x="978.8484848484849" y="1365.3737373737374"/>
      <point x="1100.121212121212" y="1285.4949494949494"/>
      <point x="1100.121212121212" y="1091.858585858586" type="curve" smooth="yes"/>
      <point x="1100.121212121212" y="906.2020202020202"/>
      <point x="977.8585858585858" y="825.3131313131313"/>
      <point x="720.2020202020202" y="825.3131313131313" type="curve" smooth="yes"/>
      <point x="337.1919191919192" y="825.3131313131313" type="line"/>
      <point x="337.1919191919192" y="693.6565656565656" type="line"/>
      <point x="740.7676767676768" y="693.6565656565656" type="line" smooth="yes"/>
      <point x="1018.4040404040404" y="693.6565656565656"/>
      <point x="1144.6464646464647" y="608.7878787878788"/>
      <point x="1144.6464646464647" y="414.1010101010101" type="curve" smooth="yes"/>
      <point x="1144.6464646464647" y="218.94949494949498"/>
      <point x="1031.3333333333333" y="117.61616161616166"/>
    </contour>
  </outline>
</glyph>
<glyph name="F" format="2">
  <advance width="1297.5959595959596"/>
  <unicode hex="0046"/>
  <outline>
    <contour>
      <point x="194.28282828282826" y="0.0" type="line"/>
      <point x="365.3131313131314" y="0.0" type="line"/>
      <point x="365.3131313131314" y="1339.7575757575758" type="line"/>
      <point x="1218.121212121212" y="1339.7575757575758" type="line"/>
      <point x="1218.121212121212" y="1480.0" type="line"/>
      <point x="194.28282828282826" y="1480.0" type="line"/>
    </contour>
    <contour>
      <point x="304.7878787878788" y="676.989898989899" type="line"/>
      <point x="1115.090909090909" y="676.989898989899" type="line"/>
      <point x="1115.090909090909" y="817.2323232323232" type="line"/>
      <point x="304.7878787878788" y="817.2323232323232" type="line"/>
    </contour>
  </outline>
</glyph>
<glyph name="H" format="2">
  <advance width="1631.050505050505"/>
  <unicode hex="0048"/>
  <anchor x="815.7777777777778" y="0.0" name="bottom"/>
  <anchor x="815.7777777777778" y="1160.7070707070707" name="center"/>
  <anchor x="815.7777777777778" y="1520.0" name="top"/>
  <anchor x="45.494949494949495" y="1480.0" name="topleft"/>
  <outline>
    <contour>
      <point x="194.28282828282826" y="0.0" type="line"/>
      <point x="365.3131313131314" y="0.0" type="line"/>
      <point x="365.3131313131314" y="684.060606060606" type="line"/>
      <point x="1265.7373737373737" y="684.060606060606" type="line"/>
      <point x="1265.7373737373737" y="0.0" type="line"/>
      <point x="1436.767676767677" y="0.0" type="line"/>
      <point x="1436.767676767677" y="1480.0" type="line"/>
      <point x="1265.7373737373737" y="1480.0" type="line"/>
      <point x="1265.7373737373737" y="834.909090909091" type="line"/>
      <point x="365.3131313131314" y="834.909090909091" type="line"/>
      <point x="365.3131313131314" y="1480.0" type="line"/>
      <point x="194.28282828282826" y="1480.0" type="line"/>
    </contour>
  </outline>
</glyph>
<glyph name="I" format="2">
  <advance width="559.5959595959596"/>
  <unicode hex="0049"/>
  <anchor x="279.29292929292933" y="0.0" name="bottom"/>
  <anchor x="365.3131313131314" y="0.0" name="ogonek"/>
  <anchor x="279.7979797979798" y="1520.0" name="top"/>
  <outline>
    <contour>
      <point x="194.28282828282826" y="0.0" type="line"/>
      <point x="365.3131313131314" y="0.0" type="line"/>
      <point x="365.3131313131314" y="1480.0" type="line"/>
      <point x="194.28282828282826" y="1480.0" type="line"/>
    </contour>
  </outline>
</glyph>
<glyph name="J" format="2">
  <advance width="559.5959595959596"/>
  <unicode hex="004A"/>
  <anchor x="413.15151515151524" y="0.0" name="bottom"/>
  <anchor x="280.3030303030303" y="1520.0" name="top"/>
  <outline>
    <contour>
      <point x="109.57575757575762" y="-344.54545454545456" type="line"/>
      <point x="290.78787878787887" y="-145.97979797979798"/>
      <point x="354.8484848484849" y="33.61616161616163"/>
      <point x="365.3131313131314" y="267.1717171717172" type="curve"/>
      <point x="365.3131313131314" y="1480.0" type="line"/>
      <point x="195.29292929292927" y="1480.0" type="line"/>
      <point x="195.29292929292927" y="290.04040404040404" type="line" smooth="yes"/>
      <point x="195.29292929292927" y="66.1010101010101"/>
      <point x="136.86868686868686" y="-103.25252525252523"/>
      <point x="-0.04040404040404333" y="-268.1414141414141" type="curve"/>
    </contour>
  </outline>
</glyph>
<glyph name="K" format="2">
  <advance width="1381.5555555555557"/>
  <unicode hex="004B"/>
  <anchor x="711.3535353535353" y="0.0" name="bottom"/>
  <anchor x="709.8383838383838" y="1480.0" name="top"/>
  <outline>
    <contour>
      <point x="1185.151515151515" y="0.0" type="line"/>
      <point x="1381.2323232323233" y="0.0" type="line"/>
      <point x="747.9797979797981" y="783.5959595959596" type="line"/>
      <point x="744.949494949495" y="737.8787878787879" type="line"/>
      <point x="1337.2121212121212" y="1480.0" type="line"/>
      <point x="1147.171717171717" y="1480.0" type="line"/>
      <point x="570.969696969697" y="756.989898989899" type="line"/>
    </contour>
    <contour>
      <point x="194.28282828282826" y="0.0" type="line"/>
      <point x="365.3131313131314" y="0.0" type="line"/>
      <point x="365.3131313131314" y="1480.0" type="line"/>
      <point x="194.28282828282826" y="1480.0" type="line"/>
    </contour>
    <contour>
      <point x="337.1919191919193" y="684.060606060606" type="line"/>
      <point x="653.3333333333334" y="684.060606060606" type="line"/>
      <point x="653.3333333333334" y="834.909090909091" type="line"/>
      <point x="337.1919191919193" y="834.909090909091" type="line"/>
    </contour>
  </outline>
</glyph>
<glyph name="M" format="2">
  <advance width="1945.7777777777778"/>
  <unicode hex="004D"/>
  <anchor x="980.969696969697" y="0.0" name="bottom"/>
  <anchor x="980.969696969697" y="1480.0" name="top"/>
  <outline>
    <contour>
      <point x="198.28282828282826" y="0.0" type="line"/>
      <point x="359.7373737373738" y="0.0" type="line"/>
      <point x="359.7373737373738" y="1341.6767676767677" type="line"/>
      <point x="301.0505050505051" y="1341.6767676767677" type="line"/>
      <point x="894.989898989899" y="205.05050505050505" type="line"/>
      <point x="1050.7878787878788" y="205.05050505050505" type="line"/>
      <point x="1637.1717171717173" y="1341.6767676767677" type="line"/>
      <point x="1586.0404040404042" y="1341.6767676767677" type="line"/>
      <point x="1586.0404040404042" y="0.0" type="line"/>
      <point x="1747.4949494949497" y="0.0" type="line"/>
      <point x="1747.4949494949497" y="1480.0" type="line"/>
      <point x="1546.2222222222222" y="1480.0" type="line"/>
      <point x="957.3737373737374" y="328.46464646464653" type="line"/>
      <point x="994.929292929293" y="328.46464646464653" type="line"/>
      <point x="399.55555555555566" y="1480.0" type="line"/>
      <point x="198.28282828282826" y="1480.0" type="line"/>
    </contour>
  </outline>
</glyph>
<glyph name="N" format="2">
  <advance width="1656.0"/>
  <unicode hex="004E"/>
  <anchor x="828.7474747474748" y="0.0" name="bottom"/>
  <anchor x="828.7474747474748" y="1520.0" name="top"/>
  <outline>
    <contour>
      <point x="194.28282828282826" y="0.0" type="line"/>
      <point x="356.7474747474748" y="0.0" type="line"/>
      <point x="356.7474747474748" y="1297.2727272727273" type="line"/>
      <point x="315.6363636363637" y="1297.2727272727273" type="line"/>
      <point x="1286.20202020202" y="0.0" type="line"/>
      <point x="1461.7171717171718" y="0.0" type="line"/>
      <point x="1461.7171717171718" y="1480.0" type="line"/>
      <point x="1299.2525252525252" y="1480.0" type="line"/>
      <point x="1299.2525252525252" y="182.7272727272728" type="line"/>
      <point x="1340.3636363636365" y="182.7272727272728" type="line"/>
      <point x="369.79797979797985" y="1480.0" type="line"/>
      <point x="194.28282828282826" y="1480.0" type="line"/>
    </contour>
  </outline>
</glyph>
<glyph name="P" format="2">
  <advance width="1368.0404040404042"/>
  <unicode hex="0050"/>
  <outline>
    <contour>
      <point x="194.28282828282826" y="0.0" type="line"/>
      <point x="365.3131313131314" y="0.0" type="line"/>
      <point x="365.3131313131314" y="496.1414141414141" type="line"/>
      <point x="449.6565656565657" y="488.66666666666663"/>
      <point x="517.5757575757576" y="485.17171717171715"/>
      <point x="599.939393939394" y="485.17171717171715" type="curve" smooth="yes"/>
      <point x="1064.4646464646466" y="485.17171717171715"/>
      <point x="1269.111111111111" y="665.1919191919192"/>
      <point x="1269.111111111111" y="993.3333333333334" type="curve" smooth="yes"/>
      <point x="1269.111111111111" y="1341.9595959595958"/>
      <point x="1045.0101010101012" y="1495.5151515151515"/>
      <point x="626.6666666666666" y="1495.5151515151515" type="curve" smooth="yes"/>
      <point x="469.01010101010104" y="1495.5151515151515"/>
      <point x="340.34343434343435" y="1481.4949494949494"/>
      <point x="194.28282828282826" y="1452.989898989899" type="curve"/>
    </contour>
    <contour>
      <point x="600.949494949495" y="616.8282828282829" type="curve" smooth="yes"/>
      <point x="511.0909090909091" y="616.8282828282829"/>
      <point x="441.21212121212125" y="621.8181818181819"/>
      <point x="365.3131313131314" y="632.3030303030304" type="curve"/>
      <point x="365.3131313131314" y="1340.9090909090908" type="line"/>
      <point x="446.66666666666674" y="1355.8787878787878"/>
      <point x="531.4949494949495" y="1363.858585858586"/>
      <point x="638.2828282828283" y="1363.858585858586" type="curve" smooth="yes"/>
      <point x="945.8787878787879" y="1363.858585858586"/>
      <point x="1099.6363636363635" y="1251.010101010101"/>
      <point x="1099.6363636363635" y="991.8383838383838" type="curve" smooth="yes"/>
      <point x="1099.6363636363635" y="740.6060606060606"/>
      <point x="959.3333333333333" y="616.8282828282829"/>
    </contour>
  </outline>
</glyph>
<glyph name="Q" format="2">
  <advance width="1652.8080808080808"/>
  <unicode hex="0051"/>
  <outline>
    <contour>
      <point x="1478.848484848485" y="-234.0404040404041" type="curve"/>
      <point x="1502.5050505050506" y="-96.3232323232323" type="line"/>
      <point x="1243.3333333333335" y="-74.76767676767675"/>
      <point x="958.848484848485" y="-32.2222222222222"/>
      <point x="761.1313131313132" y="42.82828282828285" type="curve"/>
      <point x="712.7474747474748" y="1.0909090909090988" type="line"/>
      <point x="1248.3232323232323" y="-57.01010101010101"/>
      <point x="1528.4444444444446" y="215.69696969696972"/>
      <point x="1528.4444444444446" y="740.0" type="curve" smooth="yes"/>
      <point x="1528.4444444444446" y="1264.3030303030303"/>
      <point x="1242.8080808080808" y="1498.5050505050506"/>
      <point x="826.4040404040404" y="1498.5050505050506" type="curve" smooth="yes"/>
      <point x="410.0" y="1498.5050505050506"/>
      <point x="124.36363636363635" y="1256.3434343434344"/>
      <point x="124.36363636363635" y="734.9494949494949" type="curve" smooth="yes"/>
      <point x="124.36363636363635" y="165.69696969696972"/>
      <point x="422.98989898989896" y="-124.76767676767679"/>
    </contour>
    <contour>
      <point x="826.4040404040404" y="125.2525252525253" type="curve" smooth="yes"/>
      <point x="509.13131313131316" y="125.2525252525253"/>
      <point x="300.4040404040405" y="301.0909090909091"/>
      <point x="300.4040404040405" y="745.010101010101" type="curve" smooth="yes"/>
      <point x="300.4040404040405" y="1177.8989898989898"/>
      <point x="511.6565656565657" y="1354.7474747474746"/>
      <point x="826.4040404040404" y="1354.7474747474746" type="curve" smooth="yes"/>
      <point x="1141.151515151515" y="1354.7474747474746"/>
      <point x="1352.4040404040404" y="1176.3838383838383"/>
      <point x="1352.4040404040404" y="734.989898989899" type="curve" smooth="yes"/>
      <point x="1352.4040404040404" y="303.61616161616166"/>
      <point x="1142.6666666666667" y="125.2525252525253"/>
    </contour>
  </outline>
</glyph>
<glyph name="T" format="2">
  <advance width="1316.7272727272727"/>
  <unicode hex="0054"/>
  <anchor x="658.3636363636364" y="0.0" name="bottom"/>
  <anchor x="658.3636363636364" y="774.7474747474747" name="center"/>
  <anchor x="658.3636363636364" y="1520.0" name="top"/>
  <outline>
    <contour>
      <point x="572.8484848484849" y="0.0" type="line"/>
      <point x="743.878787878788" y="0.0" type="line"/>
      <point x="743.878787878788" y="1337.7373737373737" type="line"/>
      <point x="1296.2222222222222" y="1337.7373737373737" type="line"/>
      <point x="1296.2222222222222" y="1480.0" type="line"/>
      <point x="20.505050505050505" y="1480.0" type="line"/>
      <point x="20.505050505050505" y="1337.7373737373737" type="line"/>
      <point x="572.8484848484849" y="1337.7373737373737" type="line"/>
    </contour>
  </outline>
</glyph>
<glyph name="V" format="2">
  <advance width="1481.3737373737374"/>
  <unicode hex="0056"/>
  <outline>
    <contour>
      <point x="618.6868686868687" y="0.0" type="line"/>
      <point x="862.6868686868688" y="0.0" type="line"/>
      <point x="1461.919191919192" y="1480.0" type="line"/>
      <point x="1289.919191919192" y="1480.0" type="line"/>
      <point x="725.8383838383838" y="79.39393939393942" type="line"/>
      <point x="766.0808080808081" y="79.39393939393942" type="line"/>
      <point x="203.03030303030312" y="1480.0" type="line"/>
      <point x="19.45454545454545" y="1480.0" type="line"/>
    </contour>
  </outline>
</glyph>
<glyph name="W" format="2">
  <advance width="2390.7070707070707"/>
  <unicode hex="0057"/>
  <anchor x="1196.1010101010102" y="0.0" name="bottom"/>
  <anchor x="1196.1010101010102" y="1520.0" name="top"/>
  <outline>
    <contour>
      <point x="543.7373737373737" y="0.0" type="line"/>
      <point x="765.5151515151516" y="0.0" type="line"/>
      <point x="1220.2626262626263" y="1384.0" type="line"/>
      <point x="1172.4848484848485" y="1384.0" type="line"/>
      <point x="1625.1919191919192" y="0.0" type="line"/>
      <point x="1846.969696969697" y="0.0" type="line"/>
      <point x="2321.8585858585857" y="1480.0" type="line"/>
      <point x="2155.3939393939395" y="1480.0" type="line"/>
      <point x="1714.1818181818182" y="89.49494949494954" type="line"/>
      <point x="1749.3737373737374" y="89.49494949494954" type="line"/>
      <point x="1299.1717171717173" y="1480.0" type="line"/>
      <point x="1097.5959595959596" y="1480.0" type="line"/>
      <point x="644.3434343434344" y="89.49494949494954" type="line"/>
      <point x="683.0707070707072" y="89.49494949494954" type="line"/>
      <point x="243.87878787878793" y="1480.0" type="line"/>
      <point x="67.35353535353535" y="1480.0" type="line"/>
    </contour>
  </outline>
</glyph>
<glyph name="X" format="2">
  <advance width="1424.5656565656566"/>
  <unicode hex="0058"/>
  <outline>
    <contour>
      <point x="1211.7373737373737" y="0.0" type="line"/>
      <point x="1412.3434343434344" y="0.0" type="line"/>
      <point x="813.3737373737374" y="756.5858585858585" type="line"/>
      <point x="712.7878787878788" y="873.7171717171718" type="line"/>
      <point x="230.92929292929298" y="1480.0" type="line"/>
      <point x="30.32323232323231" y="1480.0" type="line"/>
      <point x="608.1818181818181" y="753.070707070707" type="line"/>
      <point x="708.7676767676768" y="635.9393939393939" type="line"/>
    </contour>
    <contour>
      <point x="11.23232323232321" y="0.0" type="line"/>
      <point x="206.30303030303037" y="0.0" type="line"/>
      <point x="708.7676767676768" y="635.9393939393939" type="line"/>
      <point x="813.3737373737374" y="756.5858585858585" type="line"/>
      <point x="1388.7070707070707" y="1480.0" type="line"/>
      <point x="1195.6363636363635" y="1480.0" type="line"/>
      <point x="712.7878787878788" y="873.7171717171718" type="line"/>
      <point x="608.1818181818181" y="753.070707070707" type="line"/>
    </contour>
  </outline>
</glyph>
<glyph name="Y" format="2">
  <advance width="1316.7272727272727"/>
  <unicode hex="0059"/>
  <anchor x="657.8585858585859" y="0.0" name="bottom"/>
  <anchor x="657.8585858585859" y="1520.0" name="top"/>
  <anchor x="14.989898989898988" y="1480.0" name="topleft"/>
  <outline>
    <contour>
      <point x="573.8585858585858" y="0.0" type="line"/>
      <point x="744.8888888888889" y="0.0" type="line"/>
      <point x="744.8888888888889" y="723.6767676767677" type="line"/>
      <point x="706.7070707070708" y="605.030303030303" type="line"/>
      <point x="1332.8080808080808" y="1480.0" type="line"/>
      <point x="1151.8383838383838" y="1480.0" type="line"/>
      <point x="631.2727272727273" y="755.3939393939394" type="line"/>
      <point x="694.5050505050506" y="755.3939393939394" type="line"/>
      <point x="165.4343434343435" y="1480.0" type="line"/>
      <point x="-27.111111111111118" y="1480.0" type="line"/>
      <point x="612.040404040404" y="605.030303030303" type="line"/>
      <point x="573.8585858585858" y="725.1919191919192" type="line"/>
    </contour>
  </outline>
</glyph>
<glyph name="Z" format="2">
  <advance width="1313.0707070707072"/>
  <unicode hex="005A"/>
  <anchor x="656.7878787878788" y="0.0" name="bottom"/>
  <anchor x="656.7878787878788" y="1520.0" name="top"/>
  <outline>
    <contour>
      <point x="73.53535353535354" y="0.0" type="line"/>
      <point x="1239.5353535353536" y="0.0" type="line"/>
      <point x="1239.5353535353536" y="140.76767676767682" type="line"/>
      <point x="263.2323232323233" y="140.76767676767682" type="line"/>
      <point x="272.2020202020203" y="100.60606060606065" type="line"/>
      <point x="1226.5454545454545" y="1385.9595959595958" type="line"/>
      <point x="1226.5454545454545" y="1480.0" type="line"/>
      <point x="86.52525252525253" y="1480.0" type="line"/>
      <point x="86.52525252525253" y="1339.232323232323" type="line"/>
      <point x="1036.8484848484848" y="1339.232323232323" type="line"/>
      <point x="1027.8787878787878" y="1379.3939393939393" type="line"/>
      <point x="73.53535353535354" y="94.04040404040408" type="line"/>
    </contour>
  </outline>
</glyph>
<glyph name="bracketleft" format="2">
  <advance width="738.3232323232323"/>
  <unicode hex="005B"/>
  <outline>
    <contour>
      <point x="214.28282828282826" y="-440.0" type="line"/>
      <point x="768.7272727272727" y="-440.0" type="line"/>
      <point x="768.7272727272727" y="-301.2525252525252" type="line"/>
      <point x="382.28282828282835" y="-301.2525252525252" type="line"/>
      <point x="382.28282828282835" y="1477.2525252525252" type="line"/>
      <point x="773.7777777777778" y="1477.2525252525252" type="line"/>
      <point x="773.7777777777778" y="1616.0" type="line"/>
      <point x="214.28282828282826" y="1616.0" type="line"/>
    </contour>
  </outline>
</glyph>
<glyph name="backslash" format="2">
  <advance width="733.5959595959596"/>
  <unicode hex="005C"/>
  <outline>
    <contour>
      <point x="562.1010101010102" y="-240.0" type="line"/>
      <point x="733.5959595959596" y="-240.0" type="line"/>
      <point x="171.49494949494957" y="1616.0" type="line"/>
      <point x="0.0" y="1616.0" type="line"/>
    </contour>
  </outline>
</glyph>
<glyph name="bracketright" format="2">
  <advance width="738.3232323232323"/>
  <unicode hex="005D"/>
  <outline>
    <contour>
      <point x="-30.404040404040398" y="-440.0" type="line"/>
      <point x="524.0404040404042" y="-440.0" type="line"/>
      <point x="524.0404040404042" y="1616.0" type="line"/>
      <point x="-35.45454545454545" y="1616.0" type="line"/>
      <point x="-35.45454545454545" y="1477.2525252525252" type="line"/>
      <point x="356.040404040404" y="1477.2525252525252" type="line"/>
      <point x="356.040404040404" y="-301.2525252525252" type="line"/>
      <point x="-30.404040404040398" y="-301.2525252525252" type="line"/>
    </contour>
  </outline>
</glyph>
<glyph name="underscore" format="2">
  <advance width="1279.0707070707072"/>
  <unicode hex="005F"/>
  <outline>
    <contour>
      <point x="97.47474747474747" y="-139.25252525252532" type="line"/>
      <point x="1181.5959595959596" y="-139.25252525252532" type="line"/>
      <point x="1181.5959595959596" y="-0.5050505050505054" type="line"/>
      <point x="97.47474747474747" y="-0.5050505050505054" type="line"/>
    </contour>
  </outline>
</glyph>
<glyph name="grave" format="2">
  <advance width="1200.0"/>
  <unicode hex="0060"/>
  <anchor x="600.0" y="1200.0" name="_top"/>
  <anchor x="600.0" y="1581.2525252525252" name="top"/>
  <outline>
    <contour>
      <point x="517.5353535353535" y="1252.888888888889" type="line"/>
      <point x="682.4646464646464" y="1252.888888888889" type="line"/>
      <point x="416.989898989899" y="1616.0" type="line"/>
      <point x="225.9191919191919" y="1616.0" type="line"/>
    </contour>
  </outline>
</glyph>
<glyph name="b" format="2">
  <advance width="1294.1616161616162"/>
  <unicode hex="0062"/>
  <anchor x="648.8282828282829" y="0.0" name="bottom"/>
  <anchor x="259.7979797979798" y="1616.0" name="top"/>
  <outline>
    <contour>
      <point x="570.8484848484849" y="-19.01010101010101" type="curve" smooth="yes"/>
      <point x="974.1616161616162" y="-19.01010101010101"/>
      <point x="1181.818181818182" y="177.55555555555554"/>
      <point x="1181.818181818182" y="565.0505050505051" type="curve" smooth="yes"/>
      <point x="1181.818181818182" y="945.9797979797979"/>
      <point x="972.7474747474748" y="1101.5555555555557"/>
      <point x="709.2323232323233" y="1101.5555555555557" type="curve" smooth="yes"/>
      <point x="559.7777777777778" y="1101.5555555555557"/>
      <point x="438.32323232323233" y="1050.1010101010102"/>
      <point x="353.33333333333337" y="965.6363636363636" type="curve"/>
      <point x="343.79797979797985" y="965.6363636363636" type="line"/>
      <point x="343.79797979797985" y="1616.0" type="line"/>
      <point x="175.7979797979798" y="1616.0" type="line"/>
      <point x="175.7979797979798" y="35.05050505050505" type="line"/>
      <point x="302.44444444444446" y="-2.0"/>
      <point x="436.18181818181824" y="-19.01010101010101"/>
    </contour>
    <contour>
      <point x="587.4343434343434" y="116.18181818181823" type="curve" smooth="yes"/>
      <point x="490.58585858585866" y="116.18181818181823"/>
      <point x="406.7070707070708" y="129.6565656565657"/>
      <point x="343.79797979797985" y="148.12121212121218" type="curve"/>
      <point x="343.79797979797985" y="826.6262626262626" type="line"/>
      <point x="428.6868686868687" y="921.3939393939394"/>
      <point x="545.010101010101" y="960.3030303030303"/>
      <point x="663.3131313131313" y="960.3030303030303" type="curve" smooth="yes"/>
      <point x="865.070707070707" y="960.3030303030303"/>
      <point x="1012.3434343434344" y="854.4646464646464"/>
      <point x="1012.3434343434344" y="550.989898989899" type="curve" smooth="yes"/>
      <point x="1012.3434343434344" y="253.47474747474752"/>
      <point x="869.5555555555555" y="116.18181818181823"/>
    </contour>
  </outline>
</glyph>
<glyph name="f" format="2">
  <advance width="824.5252525252525"/>
  <unicode hex="0066"/>
  <outline>
    <contour>
      <point x="253.91919191919192" y="0.0" type="line"/>
      <point x="421.919191919192" y="0.0" type="line"/>
      <point x="421.919191919192" y="1209.6767676767677" type="line" smooth="yes"/>
      <point x="421.919191919192" y="1417.8383838383838"/>
      <point x="516.3232323232323" y="1497.2727272727273"/>
      <point x="718.6666666666667" y="1497.2727272727273" type="curve" smooth="yes"/>
      <point x="765.6363636363637" y="1497.2727272727273"/>
      <point x="818.5656565656566" y="1492.2828282828282"/>
      <point x="869.030303030303" y="1483.7979797979797" type="curve"/>
      <point x="869.030303030303" y="1622.5050505050506" type="line"/>
      <point x="814.9898989898991" y="1630.5050505050506"/>
      <point x="760.0202020202021" y="1636.0"/>
      <point x="701.4545454545455" y="1636.0" type="curve" smooth="yes"/>
      <point x="408.6666666666667" y="1636.0"/>
      <point x="253.91919191919192" y="1486.7878787878788"/>
      <point x="253.91919191919192" y="1200.1616161616162" type="curve" smooth="yes"/>
    </contour>
    <contour>
      <point x="29.070707070707076" y="946.3030303030303" type="line"/>
      <point x="822.0" y="946.3030303030303" type="line"/>
      <point x="822.0" y="1085.050505050505" type="line"/>
      <point x="29.070707070707076" y="1085.050505050505" type="line"/>
    </contour>
  </outline>
</glyph>
<glyph name="j" format="2">
  <advance width="519.5959595959596"/>
  <unicode hex="006A"/>
  <anchor x="257.2727272727273" y="1208.969696969697" name="_top"/>
  <anchor x="257.2727272727273" y="1208.969696969697" name="top"/>
  <outline>
    <contour>
      <point x="89.07070707070712" y="-464.04040404040404" type="line"/>
      <point x="269.27272727272737" y="-265.47474747474746"/>
      <point x="343.79797979797985" y="-71.93939393939394"/>
      <point x="343.79797979797985" y="176.56565656565658" type="curve" smooth="yes"/>
      <point x="343.79797979797985" y="1085.050505050505" type="line"/>
      <point x="175.7979797979798" y="1085.050505050505" type="line"/>
      <point x="175.7979797979798" y="169.53535353535355" type="line" smooth="yes"/>
      <point x="175.7979797979798" y="-54.404040404040394"/>
      <point x="117.37373737373736" y="-223.75757575757575"/>
      <point x="-19.535353535353536" y="-388.6464646464646" type="curve"/>
    </contour>
    <contour>
      <point x="257.2727272727273" y="1330.080808080808" type="curve" smooth="yes"/>
      <point x="332.1616161616162" y="1330.080808080808"/>
      <point x="372.80808080808083" y="1366.7070707070707"/>
      <point x="372.80808080808083" y="1429.9595959595958" type="curve" smooth="yes"/>
      <point x="372.80808080808083" y="1493.2121212121212"/>
      <point x="332.1616161616162" y="1531.3333333333333"/>
      <point x="257.2727272727273" y="1531.3333333333333" type="curve" smooth="yes"/>
      <point x="182.3838383838384" y="1531.3333333333333"/>
      <point x="141.73737373737373" y="1493.2121212121212"/>
      <point x="141.73737373737373" y="1429.9595959595958" type="curve" smooth="yes"/>
      <point x="141.73737373737373" y="1366.7070707070707"/>
      <point x="182.3838383838384" y="1330.080808080808"/>
    </contour>
  </outline>
</glyph>
<glyph name="k" format="2">
  <advance width="1176.4444444444446"/>
  <unicode hex="006B"/>
  <anchor x="619.4343434343434" y="0.0" name="bottom"/>
  <anchor x="259.7979797979798" y="1616.0" name="top"/>
  <outline>
    <contour>
      <point x="998.969696969697" y="0.0" type="line"/>
      <point x="1190.5252525252527" y="0.0" type="line"/>
      <point x="691.2525252525254" y="579.6767676767677" type="line"/>
      <point x="691.2525252525254" y="536.9494949494949" type="line"/>
      <point x="1157.0101010101012" y="1085.050505050505" type="line"/>
      <point x="967.9797979797979" y="1085.050505050505" type="line"/>
      <point x="511.2525252525253" y="555.5353535353536" type="line"/>
    </contour>
    <contour>
      <point x="323.7575757575758" y="484.6464646464646" type="line"/>
      <point x="585.030303030303" y="484.6464646464646" type="line"/>
      <point x="585.030303030303" y="626.4242424242425" type="line"/>
      <point x="323.7575757575758" y="626.4242424242425" type="line"/>
    </contour>
    <contour>
      <point x="175.7979797979798" y="0.0" type="line"/>
      <point x="343.79797979797985" y="0.0" type="line"/>
      <point x="343.79797979797985" y="1616.0" type="line"/>
      <point x="175.7979797979798" y="1616.0" type="line"/>
    </contour>
  </outline>
</glyph>
<glyph name="m" format="2">
  <advance width="1892.787878787879"/>
  <unicode hex="006D"/>
  <anchor x="959.3939393939395" y="0.0" name="bottom"/>
  <anchor x="959.3939393939395" y="1200.0" name="top"/>
  <outline>
    <contour>
      <point x="175.7979797979798" y="0.0" type="line"/>
      <point x="343.79797979797985" y="0.0" type="line"/>
      <point x="343.79797979797985" y="804.5454545454545" type="line"/>
      <point x="425.13131313131316" y="908.3232323232323"/>
      <point x="537.4343434343434" y="955.2525252525252"/>
      <point x="645.7979797979798" y="955.2525252525252" type="curve" smooth="yes"/>
      <point x="786.0808080808081" y="955.2525252525252"/>
      <point x="876.4040404040404" y="883.3737373737373"/>
      <point x="876.4040404040404" y="674.6868686868687" type="curve" smooth="yes"/>
      <point x="876.4040404040404" y="0.0" type="line"/>
      <point x="1041.878787878788" y="0.0" type="line"/>
      <point x="1041.878787878788" y="684.2626262626262" type="line" smooth="yes"/>
      <point x="1041.878787878788" y="982.9494949494949"/>
      <point x="896.7676767676768" y="1101.5555555555557"/>
      <point x="686.6464646464647" y="1101.5555555555557" type="curve" smooth="yes"/>
      <point x="552.6262626262627" y="1101.5555555555557"/>
      <point x="429.15151515151524" y="1052.080808080808"/>
      <point x="338.6868686868687" y="960.6464646464647" type="curve"/>
      <point x="327.6565656565657" y="960.6464646464647" type="line"/>
      <point x="316.10101010101016" y="1085.050505050505" type="line"/>
      <point x="175.7979797979798" y="1085.050505050505" type="line"/>
    </contour>
    <contour>
      <point x="1564.969696969697" y="0.0" type="line"/>
      <point x="1732.4646464646466" y="0.0" type="line"/>
      <point x="1732.4646464646466" y="682.7474747474747" type="line" smooth="yes"/>
      <point x="1732.4646464646466" y="982.9494949494949"/>
      <point x="1582.848484848485" y="1101.5555555555557"/>
      <point x="1363.6969696969697" y="1101.5555555555557" type="curve" smooth="yes"/>
      <point x="1234.1818181818182" y="1101.5555555555557"/>
      <point x="1084.7272727272727" y="1054.080808080808"/>
      <point x="961.7373737373738" y="915.6767676767677" type="curve"/>
      <point x="1004.4242424242425" y="777.6363636363636" type="line"/>
      <point x="1087.2525252525252" y="908.3232323232323"/>
      <point x="1216.4646464646464" y="955.2525252525252"/>
      <point x="1327.858585858586" y="955.2525252525252" type="curve" smooth="yes"/>
      <point x="1469.1313131313132" y="955.2525252525252"/>
      <point x="1564.969696969697" y="883.3737373737373"/>
      <point x="1564.969696969697" y="674.6868686868687" type="curve" smooth="yes"/>
    </contour>
  </outline>
</glyph>
<glyph name="p" format="2">
  <advance width="1294.1616161616162"/>
  <unicode hex="0070"/>
  <outline>
    <contour>
      <point x="175.7979797979798" y="-440.0" type="line"/>
      <point x="343.79797979797985" y="-440.0" type="line"/>
      <point x="343.79797979797985" y="0.9494949494949445" type="line"/>
      <point x="410.24242424242425" y="-9.030303030303033"/>
      <point x="494.1616161616162" y="-19.01010101010101"/>
      <point x="579.5757575757576" y="-19.01010101010101" type="curve" smooth="yes"/>
      <point x="972.6464646464647" y="-19.01010101010101"/>
      <point x="1181.818181818182" y="179.07070707070707"/>
      <point x="1181.818181818182" y="563.5353535353536" type="curve" smooth="yes"/>
      <point x="1181.818181818182" y="950.5252525252525"/>
      <point x="967.2121212121212" y="1101.5555555555557"/>
      <point x="693.6565656565657" y="1101.5555555555557" type="curve" smooth="yes"/>
      <point x="547.6565656565657" y="1101.5555555555557"/>
      <point x="423.1919191919193" y="1047.0707070707072"/>
      <point x="339.69696969696975" y="958.1212121212121" type="curve"/>
      <point x="330.1616161616162" y="958.1212121212121" type="line"/>
      <point x="318.1212121212122" y="1085.050505050505" type="line"/>
      <point x="175.7979797979798" y="1085.050505050505" type="line"/>
    </contour>
    <contour>
      <point x="573.979797979798" y="116.68686868686873" type="curve" smooth="yes"/>
      <point x="490.58585858585866" y="116.68686868686873"/>
      <point x="406.7070707070708" y="127.17171717171722"/>
      <point x="343.79797979797985" y="143.63636363636368" type="curve"/>
      <point x="343.79797979797985" y="815.131313131313" type="line"/>
      <point x="427.6767676767677" y="920.8888888888888"/>
      <point x="543.5151515151515" y="960.3030303030303"/>
      <point x="657.8383838383838" y="960.3030303030303" type="curve" smooth="yes"/>
      <point x="864.5656565656566" y="960.3030303030303"/>
      <point x="1012.3434343434344" y="854.4646464646464"/>
      <point x="1012.3434343434344" y="549.9797979797979" type="curve" smooth="yes"/>
      <point x="1012.3434343434344" y="253.979797979798"/>
      <point x="869.5555555555555" y="116.68686868686873"/>
    </contour>
  </outline>
</glyph>
<glyph name="q" format="2">
  <advance width="1294.1616161616162"/>
  <unicode hex="0071"/>
  <outline>
    <contour>
      <point x="950.3636363636364" y="-440.0" type="line"/>
      <point x="1118.3636363636365" y="-440.0" type="line"/>
      <point x="1118.3636363636365" y="1047.4949494949494" type="line"/>
      <point x="996.2626262626263" y="1083.030303030303"/>
      <point x="857.979797979798" y="1101.5555555555557"/>
      <point x="723.3131313131314" y="1101.5555555555557" type="curve" smooth="yes"/>
      <point x="320.0" y="1101.5555555555557"/>
      <point x="112.34343434343432" y="904.989898989899"/>
      <point x="112.34343434343432" y="517.4949494949495" type="curve" smooth="yes"/>
      <point x="112.34343434343432" y="136.56565656565658"/>
      <point x="321.4141414141414" y="-19.01010101010101"/>
      <point x="584.929292929293" y="-19.01010101010101" type="curve" smooth="yes"/>
      <point x="734.3838383838383" y="-19.01010101010101"/>
      <point x="855.8383838383838" y="32.44444444444444"/>
      <point x="940.8282828282828" y="116.9090909090909" type="curve"/>
      <point x="950.3636363636364" y="116.9090909090909" type="line"/>
    </contour>
    <contour>
      <point x="630.8484848484849" y="122.24242424242429" type="curve" smooth="yes"/>
      <point x="429.0909090909091" y="122.24242424242429"/>
      <point x="281.81818181818187" y="228.0808080808081"/>
      <point x="281.81818181818187" y="531.5555555555555" type="curve" smooth="yes"/>
      <point x="281.81818181818187" y="829.070707070707"/>
      <point x="426.6262626262627" y="966.3636363636363"/>
      <point x="706.7272727272727" y="966.3636363636363" type="curve" smooth="yes"/>
      <point x="804.0808080808081" y="966.3636363636363"/>
      <point x="887.4545454545455" y="954.3838383838383"/>
      <point x="950.3636363636364" y="937.4141414141413" type="curve"/>
      <point x="950.3636363636364" y="255.91919191919195" type="line"/>
      <point x="865.4747474747475" y="161.15151515151518"/>
      <point x="746.1616161616162" y="122.24242424242429"/>
    </contour>
  </outline>
</glyph>
<glyph name="v" format="2">
  <advance width="1205.7373737373737"/>
  <unicode hex="0076"/>
  <anchor x="604.3636363636364" y="0.0" name="bottom"/>
  <anchor x="604.3636363636364" y="1200.0" name="top"/>
  <outline>
    <contour>
      <point x="497.77777777777777" y="0.0" type="line"/>
      <point x="707.4545454545455" y="0.0" type="line"/>
      <point x="1180.8686868686868" y="1085.050505050505" type="line"/>
      <point x="1014.4040404040404" y="1085.050505050505" type="line"/>
      <point x="601.3939393939395" y="121.83838383838389" type="line"/>
      <point x="617.9191919191919" y="121.83838383838389" type="line"/>
      <point x="204.90909090909096" y="1085.050505050505" type="line"/>
      <point x="24.868686868686858" y="1085.050505050505" type="line"/>
    </contour>
  </outline>
</glyph>
<glyph name="x" format="2">
  <advance width="1161.6565656565658"/>
  <unicode hex="0078"/>
  <anchor x="582.3232323232323" y="0.0" name="bottom"/>
  <anchor x="582.3232323232323" y="1200.0" name="top"/>
  <outline>
    <contour>
      <point x="938.2222222222222" y="0.0" type="line"/>
      <point x="1135.7777777777778" y="0.0" type="line"/>
      <point x="681.878787878788" y="549.5353535353536" type="line"/>
      <point x="583.8383838383838" y="661.6565656565657" type="line"/>
      <point x="235.41414141414148" y="1085.050505050505" type="line"/>
      <point x="37.85858585858585" y="1085.050505050505" type="line"/>
      <point x="480.26262626262627" y="546.5252525252525" type="line"/>
      <point x="579.8181818181819" y="434.40404040404036" type="line"/>
    </contour>
    <contour>
      <point x="28.363636363636353" y="0.0" type="line"/>
      <point x="222.38383838383845" y="0.0" type="line"/>
      <point x="579.8181818181819" y="434.40404040404036" type="line"/>
      <point x="681.878787878788" y="549.5353535353536" type="line"/>
      <point x="1123.2727272727273" y="1085.050505050505" type="line"/>
      <point x="932.2424242424242" y="1085.050505050505" type="line"/>
      <point x="583.8383838383838" y="661.6565656565657" type="line"/>
      <point x="480.26262626262627" y="546.5252525252525" type="line"/>
    </contour>
  </outline>
</glyph>
<glyph name="y" format="2">
  <advance width="1205.7373737373737"/>
  <unicode hex="0079"/>
  <anchor x="910.0" y="0.0" name="bottom"/>
  <anchor x="604.3636363636364" y="1200.0" name="top"/>
  <outline>
    <contour>
      <point x="347.5353535353535" y="-440.0" type="line"/>
      <point x="515.4949494949495" y="-440.0" type="line"/>
      <point x="1180.8686868686868" y="1085.050505050505" type="line"/>
      <point x="1014.4040404040404" y="1085.050505050505" type="line"/>
      <point x="601.3939393939395" y="121.83838383838389" type="line"/>
      <point x="540.0" y="0.0" type="line"/>
    </contour>
    <contour>
      <point x="497.77777777777777" y="0.0" type="line"/>
      <point x="662.7272727272727" y="0.0" type="line"/>
      <point x="204.90909090909096" y="1085.050505050505" type="line"/>
      <point x="24.868686868686858" y="1085.050505050505" type="line"/>
    </contour>
  </outline>
</glyph>
<glyph name="z" format="2">
  <advance width="1060.2222222222222"/>
  <unicode hex="007A"/>
  <anchor x="534.8888888888889" y="0.0" name="bottom"/>
  <anchor x="534.8888888888889" y="1200.0" name="top"/>
  <outline>
    <contour>
      <point x="74.06060606060606" y="0.0" type="line"/>
      <point x="995.2121212121212" y="0.0" type="line"/>
      <point x="995.2121212121212" y="138.7474747474748" type="line"/>
      <point x="273.2323232323233" y="138.7474747474748" type="line"/>
      <point x="273.2323232323233" y="102.62626262626267" type="line"/>
      <point x="982.2222222222223" y="979.3939393939394" type="line"/>
      <point x="982.2222222222223" y="1085.050505050505" type="line"/>
      <point x="87.05050505050505" y="1085.050505050505" type="line"/>
      <point x="87.05050505050505" y="946.3030303030303" type="line"/>
      <point x="783.0505050505051" y="946.3030303030303" type="line"/>
      <point x="783.0505050505051" y="982.4242424242424" type="line"/>
      <point x="74.06060606060606" y="105.6565656565657" type="line"/>
    </contour>
  </outline>
</glyph>
<glyph name="braceleft" format="2">
  <advance width="778.3232323232323"/>
  <unicode hex="007B"/>
  <outline>
    <contour>
      <point x="670.040404040404" y="-460.0" type="curve" smooth="yes"/>
      <point x="724.1414141414141" y="-460.0"/>
      <point x="775.6969696969697" y="-455.4949494949495"/>
      <point x="813.7777777777778" y="-448.98989898989896" type="curve"/>
      <point x="813.7777777777778" y="-318.2424242424242" type="line"/>
      <point x="689.2727272727273" y="-318.2424242424242" type="line" smooth="yes"/>
      <point x="511.61616161616166" y="-318.2424242424242"/>
      <point x="422.28282828282835" y="-250.38383838383834"/>
      <point x="422.28282828282835" y="-70.7272727272727" type="curve" smooth="yes"/>
      <point x="422.28282828282835" y="368.44444444444446" type="line" smooth="yes"/>
      <point x="422.28282828282835" y="534.5454545454545"/>
      <point x="357.59595959595964" y="615.6363636363636"/>
      <point x="207.6161616161616" y="635.070707070707" type="curve"/>
      <point x="207.6161616161616" y="613.9797979797979" type="line"/>
      <point x="357.59595959595964" y="633.4141414141415"/>
      <point x="422.28282828282835" y="714.5050505050505"/>
      <point x="422.28282828282835" y="880.6060606060606" type="curve" smooth="yes"/>
      <point x="422.28282828282835" y="1246.7272727272727" type="line" smooth="yes"/>
      <point x="422.28282828282835" y="1426.3838383838383"/>
      <point x="511.61616161616166" y="1494.2424242424242"/>
      <point x="689.2727272727273" y="1494.2424242424242" type="curve" smooth="yes"/>
      <point x="813.7777777777778" y="1494.2424242424242" type="line"/>
      <point x="813.7777777777778" y="1624.989898989899" type="line"/>
      <point x="775.6969696969697" y="1631.4949494949494"/>
      <point x="724.1414141414141" y="1636.0"/>
      <point x="670.040404040404" y="1636.0" type="curve" smooth="yes"/>
      <point x="394.86868686868684" y="1636.0"/>
      <point x="254.28282828282826" y="1508.4040404040404"/>
      <point x="254.28282828282826" y="1251.3333333333333" type="curve" smooth="yes"/>
      <point x="254.28282828282826" y="870.2020202020202" type="line" smooth="yes"/>
      <point x="254.28282828282826" y="746.3838383838385"/>
      <point x="195.8181818181818" y="693.89898989899"/>
      <point x="79.47474747474747" y="693.89898989899" type="curve" smooth="yes"/>
      <point x="41.35353535353534" y="693.89898989899" type="line"/>
      <point x="41.35353535353534" y="555.1515151515151" type="line"/>
      <point x="79.47474747474747" y="555.1515151515151" type="line" smooth="yes"/>
      <point x="195.8181818181818" y="555.1515151515151"/>
      <point x="254.28282828282826" y="502.66666666666663"/>
      <point x="254.28282828282826" y="378.8484848484848" type="curve" smooth="yes"/>
      <point x="254.28282828282826" y="-75.33333333333331" type="line" smooth="yes"/>
      <point x="254.28282828282826" y="-332.4040404040404"/>
      <point x="394.86868686868684" y="-460.0"/>
    </contour>
  </outline>
</glyph>
<glyph name="bar" format="2">
  <advance width="545.4545454545455"/>
  <unicode hex="007C"/>
  <outline>
    <contour>
      <point x="194.28282828282826" y="-440.0" type="line"/>
      <point x="351.1717171717172" y="-440.0" type="line"/>
      <point x="351.1717171717172" y="1616.0" type="line"/>
      <point x="194.28282828282826" y="1616.0" type="line"/>
    </contour>
  </outline>
</glyph>
<glyph name="braceright" format="2">
  <advance width="778.3232323232323"/>
  <unicode hex="007D"/>
  <outline>
    <contour>
      <point x="108.2828282828283" y="-460.0" type="curve" smooth="yes"/>
      <point x="383.4545454545455" y="-460.0"/>
      <point x="524.0404040404042" y="-332.4040404040404"/>
      <point x="524.0404040404042" y="-75.33333333333331" type="curve" smooth="yes"/>
      <point x="524.0404040404042" y="378.8484848484848" type="line" smooth="yes"/>
      <point x="524.0404040404042" y="502.66666666666663"/>
      <point x="582.5050505050506" y="555.1515151515151"/>
      <point x="698.8484848484849" y="555.1515151515151" type="curve" smooth="yes"/>
      <point x="736.969696969697" y="555.1515151515151" type="line"/>
      <point x="736.969696969697" y="693.89898989899" type="line"/>
      <point x="698.8484848484849" y="693.89898989899" type="line" smooth="yes"/>
      <point x="582.5050505050506" y="693.89898989899"/>
      <point x="524.0404040404042" y="746.3838383838385"/>
      <point x="524.0404040404042" y="870.2020202020202" type="curve" smooth="yes"/>
      <point x="524.0404040404042" y="1251.3333333333333" type="line" smooth="yes"/>
      <point x="524.0404040404042" y="1508.4040404040404"/>
      <point x="383.4545454545455" y="1636.0"/>
      <point x="108.2828282828283" y="1636.0" type="curve" smooth="yes"/>
      <point x="54.181818181818194" y="1636.0"/>
      <point x="2.626262626262635" y="1631.4949494949494"/>
      <point x="-35.45454545454545" y="1624.989898989899" type="curve"/>
      <point x="-35.45454545454545" y="1494.2424242424242" type="line"/>
      <point x="89.05050505050505" y="1494.2424242424242" type="line" smooth="yes"/>
      <point x="266.70707070707067" y="1494.2424242424242"/>
      <point x="356.040404040404" y="1426.3838383838383"/>
      <point x="356.040404040404" y="1246.7272727272727" type="curve" smooth="yes"/>
      <point x="356.040404040404" y="880.6060606060606" type="line" smooth="yes"/>
      <point x="356.040404040404" y="714.5050505050505"/>
      <point x="420.7272727272727" y="633.4141414141415"/>
      <point x="570.7070707070707" y="613.9797979797979" type="curve"/>
      <point x="570.7070707070707" y="635.070707070707" type="line"/>
      <point x="420.7272727272727" y="615.6363636363636"/>
      <point x="356.040404040404" y="534.5454545454545"/>
      <point x="356.040404040404" y="368.44444444444446" type="curve" smooth="yes"/>
      <point x="356.040404040404" y="-70.7272727272727" type="line" smooth="yes"/>
      <point x="356.040404040404" y="-250.38383838383834"/>
      <point x="266.70707070707067" y="-318.2424242424242"/>
      <point x="89.05050505050505" y="-318.2424242424242" type="curve" smooth="yes"/>
      <point x="-35.45454545454545" y="-318.2424242424242" type="line"/>
      <point x="-35.45454545454545" y="-448.98989898989896" type="line"/>
      <point x="2.626262626262635" y="-455.4949494949495"/>
      <point x="54.181818181818194" y="-460.0"/>
    </contour>
  </outline>
</glyph>
<glyph name="asciitilde" format="2">
  <advance width="1130.2222222222222"/>
  <unicode hex="007E"/>
  <outline>
    <contour>
      <point x="748.2222222222222" y="631.1717171717171" type="curve" smooth="yes"/>
      <point x="835.8181818181819" y="631.1717171717171"/>
      <point x="908.3434343434344" y="662.6666666666666"/>
      <point x="959.4141414141415" y="724.2020202020202" type="curve"/>
      <point x="959.4141414141415" y="871.8585858585859" type="line"/>
      <point x="897.3333333333334" y="798.3434343434344"/>
      <point x="830.3030303030304" y="763.3535353535353"/>
      <point x="747.7373737373738" y="763.3535353535353" type="curve" smooth="yes"/>
      <point x="635.1515151515151" y="763.3535353535353"/>
      <point x="524.1010101010102" y="879.8585858585859"/>
      <point x="382.0" y="879.8585858585859" type="curve" smooth="yes"/>
      <point x="294.4040404040404" y="879.8585858585859"/>
      <point x="221.87878787878788" y="848.3636363636364"/>
      <point x="170.8080808080808" y="786.8282828282829" type="curve"/>
      <point x="170.8080808080808" y="639.1717171717171" type="line"/>
      <point x="232.88888888888889" y="712.6868686868687"/>
      <point x="299.9191919191919" y="747.6767676767677"/>
      <point x="382.4848484848485" y="747.6767676767677" type="curve" smooth="yes"/>
      <point x="495.07070707070704" y="747.6767676767677"/>
      <point x="606.1212121212121" y="631.1717171717171"/>
    </contour>
  </outline>
</glyph>
<glyph name="exclamdown" format="2">
  <advance width="553.6161616161617"/>
  <unicode hex="00A1"/>
  <outline>
    <contour>
      <point x="224.52525252525254" y="704.4040404040404" type="line"/>
      <point x="188.28282828282826" y="163.2323232323232" type="line"/>
      <point x="188.28282828282826" y="-380.0" type="line"/>
      <point x="365.33333333333337" y="-380.0" type="line"/>
      <point x="365.33333333333337" y="163.2323232323232" type="line"/>
      <point x="330.6060606060606" y="704.4040404040404" type="line"/>
    </contour>
    <contour>
      <point x="276.80808080808083" y="1097.5757575757575" type="curve" smooth="yes"/>
      <point x="203.93939393939394" y="1097.5757575757575"/>
      <point x="157.2323232323232" y="1054.888888888889"/>
      <point x="157.2323232323232" y="986.5858585858585" type="curve" smooth="yes"/>
      <point x="157.2323232323232" y="918.2828282828282"/>
      <point x="202.92929292929293" y="874.10101010101"/>
      <point x="276.80808080808083" y="874.10101010101" type="curve" smooth="yes"/>
      <point x="350.6868686868687" y="874.10101010101"/>
      <point x="396.38383838383845" y="919.2929292929292"/>
      <point x="396.38383838383845" y="986.5858585858585" type="curve" smooth="yes"/>
      <point x="396.38383838383845" y="1053.8787878787878"/>
      <point x="349.6767676767677" y="1097.5757575757575"/>
    </contour>
  </outline>
</glyph>
<glyph name="cent" format="2">
  <advance width="1025.5959595959596"/>
  <unicode hex="00A2"/>
  <outline>
    <contour>
      <point x="654.4646464646465" y="-19.01010101010101" type="curve" smooth="yes"/>
      <point x="760.0606060606061" y="-19.01010101010101"/>
      <point x="864.6060606060607" y="-1.0101010101010104"/>
      <point x="957.0707070707072" y="31.95959595959596" type="curve"/>
      <point x="957.0707070707072" y="170.6666666666667" type="line"/>
      <point x="842.0404040404042" y="134.70707070707076"/>
      <point x="755.0909090909091" y="120.22222222222227"/>
      <point x="671.0707070707072" y="120.22222222222227" type="curve" smooth="yes"/>
      <point x="420.2424242424243" y="120.22222222222227"/>
      <point x="285.35353535353545" y="247.05050505050508"/>
      <point x="285.35353535353545" y="544.5050505050505" type="curve" smooth="yes"/>
      <point x="285.35353535353545" y="836.4848484848485"/>
      <point x="417.71717171717177" y="962.3232323232323"/>
      <point x="703.030303030303" y="962.3232323232323" type="curve" smooth="yes"/>
      <point x="795.0303030303031" y="962.3232323232323"/>
      <point x="871.030303030303" y="949.8383838383838"/>
      <point x="957.0707070707072" y="928.3636363636364" type="curve"/>
      <point x="957.0707070707072" y="1067.0707070707072" type="line"/>
      <point x="872.5454545454546" y="1090.060606060606"/>
      <point x="788.4848484848485" y="1101.5555555555557"/>
      <point x="692.4040404040404" y="1101.5555555555557" type="curve" smooth="yes"/>
      <point x="315.030303030303" y="1101.5555555555557"/>
      <point x="112.34343434343432" y="917.959595959596"/>
      <point x="112.34343434343432" y="541.5151515151515" type="curve" smooth="yes"/>
      <point x="112.34343434343432" y="163.57575757575756"/>
      <point x="306.04040404040404" y="-19.01010101010101"/>
    </contour>
    <contour>
      <point x="565.8989898989898" y="-240.0" type="line"/>
      <point x="714.7474747474748" y="-240.0" type="line"/>
      <point x="714.7474747474748" y="15.151515151515163" type="line"/>
      <point x="565.8989898989898" y="15.151515151515163" type="line"/>
    </contour>
    <contour>
      <point x="565.8989898989898" y="1069.8989898989898" type="line"/>
      <point x="714.7474747474748" y="1069.8989898989898" type="line"/>
      <point x="714.7474747474748" y="1325.050505050505" type="line"/>
      <point x="565.8989898989898" y="1325.050505050505" type="line"/>
    </contour>
  </outline>
</glyph>
<glyph name="sterling" format="2">
  <advance width="1443.4747474747476"/>
  <unicode hex="00A3"/>
  <outline>
    <contour>
      <point x="327.37373737373736" y="55.23232323232325" type="line"/>
      <point x="492.8484848484849" y="55.23232323232325" type="line"/>
      <point x="492.8484848484849" y="1019.8383838383838" type="line" smooth="yes"/>
      <point x="492.8484848484849" y="1270.4040404040404"/>
      <point x="633.5959595959596" y="1357.7575757575758"/>
      <point x="920.5050505050506" y="1357.7575757575758" type="curve" smooth="yes"/>
      <point x="1045.0101010101012" y="1357.7575757575758"/>
      <point x="1176.1010101010102" y="1339.2525252525252"/>
      <point x="1294.0404040404042" y="1303.7777777777778" type="curve"/>
      <point x="1294.0404040404042" y="1447.5353535353536" type="line"/>
      <point x="1182.060606060606" y="1480.5050505050506"/>
      <point x="1051.5151515151515" y="1498.5050505050506"/>
      <point x="917.4343434343434" y="1498.5050505050506" type="curve" smooth="yes"/>
      <point x="528.5252525252525" y="1498.5050505050506"/>
      <point x="327.37373737373736" y="1345.3737373737374"/>
      <point x="327.37373737373736" y="1013.2727272727273" type="curve" smooth="yes"/>
    </contour>
    <contour>
      <point x="82.52525252525253" y="0.0" type="line"/>
      <point x="1343.5757575757575" y="0.0" type="line"/>
      <point x="1343.5757575757575" y="136.22222222222229" type="line"/>
      <point x="82.52525252525253" y="136.22222222222229" type="line"/>
    </contour>
    <contour>
      <point x="82.52525252525253" y="685.6767676767677" type="line"/>
      <point x="1083.939393939394" y="685.6767676767677" type="line"/>
      <point x="1083.939393939394" y="814.3232323232323" type="line"/>
      <point x="82.52525252525253" y="814.3232323232323" type="line"/>
    </contour>
  </outline>
</glyph>
<glyph name="yen" format="2">
  <advance width="1351.5959595959596"/>
  <unicode hex="00A5"/>
  <outline>
    <contour>
      <point x="591.2929292929293" y="0.0" type="line"/>
      <point x="762.3232323232323" y="0.0" type="line"/>
      <point x="762.3232323232323" y="723.6767676767677" type="line"/>
      <point x="724.1414141414142" y="605.030303030303" type="line"/>
      <point x="1353.2323232323233" y="1480.0" type="line"/>
      <point x="1172.2626262626263" y="1480.0" type="line"/>
      <point x="648.7070707070707" y="755.3939393939394" type="line"/>
      <point x="711.939393939394" y="755.3939393939394" type="line"/>
      <point x="185.8585858585859" y="1480.0" type="line"/>
      <point x="-6.686868686868703" y="1480.0" type="line"/>
      <point x="629.4747474747475" y="605.030303030303" type="line"/>
      <point x="591.2929292929293" y="725.1919191919192" type="line"/>
    </contour>
    <contour>
      <point x="253.8181818181818" y="295.25252525252523" type="line"/>
      <point x="1099.79797979798" y="295.25252525252523" type="line"/>
      <point x="1099.79797979798" y="406.22222222222223" type="line"/>
      <point x="253.8181818181818" y="406.22222222222223" type="line"/>
    </contour>
    <contour>
      <point x="253.8181818181818" y="641.7777777777777" type="line"/>
      <point x="1099.79797979798" y="641.7777777777777" type="line"/>
      <point x="1099.79797979798" y="752.7474747474747" type="line"/>
      <point x="253.8181818181818" y="752.7474747474747" type="line"/>
    </contour>
  </outline>
</glyph>
<glyph name="brokenbar" format="2">
  <advance width="545.4545454545455"/>
  <unicode hex="00A6"/>
  <outline>
    <contour>
      <point x="194.28282828282826" y="836.0" type="line"/>
      <point x="351.1717171717172" y="836.0" type="line"/>
      <point x="351.1717171717172" y="1616.0" type="line"/>
      <point x="194.28282828282826" y="1616.0" type="line"/>
    </contour>
    <contour>
      <point x="194.28282828282826" y="-440.0" type="line"/>
      <point x="351.1717171717172" y="-440.0" type="line"/>
      <point x="351.1717171717172" y="340.0" type="line"/>
      <point x="194.28282828282826" y="340.0" type="line"/>
    </contour>
  </outline>
</glyph>
<glyph name="section" format="2">
  <advance width="1169.6565656565658"/>
  <unicode hex="00A7"/>
  <outline>
    <contour>
      <point x="514.2020202020202" y="-19.01010101010101" type="curve" smooth="yes"/>
      <point x="843.5353535353536" y="-19.01010101010101"/>
      <point x="991.6969696969697" y="105.05050505050505"/>
      <point x="991.6969696969697" y="299.1717171717172" type="curve" smooth="yes"/>
      <point x="991.6969696969697" y="456.22222222222223"/>
      <point x="895.0909090909091" y="540.7272727272727"/>
      <point x="686.1414141414142" y="577.2121212121212" type="curve" smooth="yes"/>
      <point x="484.2828282828283" y="612.2626262626263" type="line" smooth="yes"/>
      <point x="334.04040404040404" y="639.2121212121212"/>
      <point x="291.11111111111114" y="707.5757575757576"/>
      <point x="291.11111111111114" y="792.4040404040404" type="curve" smooth="yes"/>
      <point x="291.11111111111114" y="854.2626262626262"/>
      <point x="319.0505050505051" y="909.6767676767677"/>
      <point x="385.4545454545455" y="952.6868686868687" type="curve"/>
      <point x="290.020202020202" y="1021.4545454545455" type="line"/>
      <point x="194.9090909090909" y="965.4343434343434"/>
      <point x="144.3232323232323" y="883.4141414141415"/>
      <point x="144.3232323232323" y="782.8282828282828" type="curve" smooth="yes"/>
      <point x="144.3232323232323" y="622.7272727272727"/>
      <point x="239.95959595959596" y="526.7272727272727"/>
      <point x="442.9090909090909" y="490.7474747474747" type="curve" smooth="yes"/>
      <point x="644.2626262626263" y="456.2020202020202" type="line" smooth="yes"/>
      <point x="788.4242424242424" y="430.76767676767673"/>
      <point x="833.3333333333334" y="380.88888888888886"/>
      <point x="833.3333333333334" y="286.1212121212121" type="curve" smooth="yes"/>
      <point x="833.3333333333334" y="172.90909090909093"/>
      <point x="752.989898989899" y="103.5555555555556"/>
      <point x="516.6666666666667" y="103.5555555555556" type="curve" smooth="yes"/>
      <point x="401.5959595959596" y="103.5555555555556"/>
      <point x="296.969696969697" y="114.56565656565661"/>
      <point x="170.94949494949495" y="149.5555555555556" type="curve"/>
      <point x="170.94949494949495" y="25.494949494949495" type="line"/>
      <point x="279.01010101010104" y="-6.0"/>
      <point x="394.6868686868687" y="-19.01010101010101"/>
    </contour>
    <contour>
      <point x="881.5555555555555" y="458.5050505050505" type="line"/>
      <point x="972.2222222222223" y="515.030303030303"/>
      <point x="1025.3333333333335" y="595.070707070707"/>
      <point x="1025.3333333333335" y="699.1717171717172" type="curve" smooth="yes"/>
      <point x="1025.3333333333335" y="861.2727272727273"/>
      <point x="928.7272727272727" y="948.7878787878788"/>
      <point x="720.2828282828284" y="984.2626262626263" type="curve" smooth="yes"/>
      <point x="513.8787878787879" y="1018.3030303030304" type="line" smooth="yes"/>
      <point x="371.21212121212125" y="1043.7373737373737"/>
      <point x="331.27272727272737" y="1106.5656565656566"/>
      <point x="331.27272727272737" y="1188.8686868686868" type="curve" smooth="yes"/>
      <point x="331.27272727272737" y="1293.5959595959596"/>
      <point x="408.64646464646466" y="1373.939393939394"/>
      <point x="668.6464646464647" y="1373.939393939394" type="curve" smooth="yes"/>
      <point x="764.1616161616162" y="1373.939393939394"/>
      <point x="846.2222222222223" y="1363.939393939394"/>
      <point x="949.6969696969697" y="1336.4646464646464" type="curve"/>
      <point x="949.6969696969697" y="1460.5252525252524" type="line"/>
      <point x="857.6969696969697" y="1484.5050505050506"/>
      <point x="759.0909090909091" y="1496.5050505050506"/>
      <point x="659.0505050505051" y="1496.5050505050506" type="curve" smooth="yes"/>
      <point x="310.06060606060606" y="1496.5050505050506"/>
      <point x="172.9090909090909" y="1363.4545454545455"/>
      <point x="172.9090909090909" y="1180.3030303030303" type="curve" smooth="yes"/>
      <point x="172.9090909090909" y="1027.7777777777778"/>
      <point x="268.04040404040404" y="934.2828282828283"/>
      <point x="477.0505050505051" y="897.2929292929293" type="curve" smooth="yes"/>
      <point x="678.4040404040404" y="862.2424242424242" type="line" smooth="yes"/>
      <point x="830.1414141414142" y="835.2929292929293"/>
      <point x="878.5454545454545" y="779.8787878787879"/>
      <point x="878.5454545454545" y="682.5858585858585" type="curve" smooth="yes"/>
      <point x="878.5454545454545" y="613.1919191919192"/>
      <point x="847.070707070707" y="560.7878787878788"/>
      <point x="776.6060606060606" y="520.2626262626263" type="curve"/>
    </contour>
  </outline>
</glyph>
<glyph name="copyright" format="2">
  <advance width="1739.7575757575758"/>
  <unicode hex="00A9"/>
  <outline>
    <contour>
      <point x="869.8787878787879" y="-22.0" type="curve" smooth="yes"/>
      <point x="1317.3939393939395" y="-22.0"/>
      <point x="1615.3939393939395" y="282.0"/>
      <point x="1615.3939393939395" y="740.0" type="curve" smooth="yes"/>
      <point x="1615.3939393939395" y="1198.0"/>
      <point x="1317.3939393939395" y="1502.0"/>
      <point x="869.8787878787879" y="1502.0" type="curve" smooth="yes"/>
      <point x="422.3636363636364" y="1502.0"/>
      <point x="124.36363636363635" y="1198.0"/>
      <point x="124.36363636363635" y="740.0" type="curve" smooth="yes"/>
      <point x="124.36363636363635" y="282.0"/>
      <point x="422.3636363636364" y="-22.0"/>
    </contour>
    <contour>
      <point x="912.969696969697" y="324.0" type="curve" smooth="yes"/>
      <point x="991.9797979797979" y="324.0"/>
      <point x="1063.979797979798" y="336.0"/>
      <point x="1127.4343434343434" y="362.96969696969694" type="curve"/>
      <point x="1127.4343434343434" y="475.4343434343435" type="line"/>
      <point x="1046.4444444444443" y="446.969696969697"/>
      <point x="982.0202020202021" y="437.97979797979804"/>
      <point x="924.5252525252525" y="437.97979797979804" type="curve" smooth="yes"/>
      <point x="749.7373737373738" y="437.97979797979804"/>
      <point x="642.8888888888889" y="533.8383838383838"/>
      <point x="642.8888888888889" y="736.4848484848485" type="curve" smooth="yes"/>
      <point x="642.8888888888889" y="935.1515151515151"/>
      <point x="748.2222222222223" y="1030.020202020202"/>
      <point x="944.0" y="1030.020202020202" type="curve" smooth="yes"/>
      <point x="1010.4646464646464" y="1030.020202020202"/>
      <point x="1065.939393939394" y="1021.030303030303"/>
      <point x="1127.4343434343434" y="1005.050505050505" type="curve"/>
      <point x="1127.4343434343434" y="1117.5151515151515" type="line"/>
      <point x="1065.4545454545455" y="1136.0"/>
      <point x="1004.9494949494949" y="1144.0"/>
      <point x="935.4343434343434" y="1144.0" type="curve" smooth="yes"/>
      <point x="667.3939393939394" y="1144.0"/>
      <point x="513.3131313131313" y="994.989898989899"/>
      <point x="513.3131313131313" y="733.4949494949495" type="curve" smooth="yes"/>
      <point x="513.3131313131313" y="465.03030303030306"/>
      <point x="672.3636363636364" y="324.0"/>
    </contour>
    <contour>
      <point x="869.8787878787879" y="82.36363636363639" type="curve" smooth="yes"/>
      <point x="481.0505050505051" y="82.36363636363639"/>
      <point x="231.2525252525253" y="341.6969696969697"/>
      <point x="231.2525252525253" y="740.0" type="curve" smooth="yes"/>
      <point x="231.2525252525253" y="1138.3030303030303"/>
      <point x="481.0505050505051" y="1397.6363636363635"/>
      <point x="869.8787878787879" y="1397.6363636363635" type="curve" smooth="yes"/>
      <point x="1258.7070707070707" y="1397.6363636363635"/>
      <point x="1508.5050505050506" y="1138.3030303030303"/>
      <point x="1508.5050505050506" y="740.0" type="curve" smooth="yes"/>
      <point x="1508.5050505050506" y="341.6969696969697"/>
      <point x="1258.7070707070707" y="82.36363636363639"/>
    </contour>
  </outline>
</glyph>
<glyph name="ordfeminine" format="2">
  <advance width="986.969696969697"/>
  <unicode hex="00AA"/>
  <outline>
    <contour>
      <point x="397.979797979798" y="594.989898989899" type="curve" smooth="yes"/>
      <point x="517.9191919191919" y="594.989898989899"/>
      <point x="633.3535353535353" y="639.4343434343434"/>
      <point x="702.3232323232323" y="707.9191919191919" type="curve"/>
      <point x="711.3535353535353" y="707.9191919191919" type="line"/>
      <point x="723.4141414141415" y="610.0" type="line"/>
      <point x="856.1818181818182" y="610.0" type="line"/>
      <point x="856.1818181818182" y="1158.121212121212" type="line" smooth="yes"/>
      <point x="856.1818181818182" y="1412.909090909091"/>
      <point x="721.0909090909091" y="1494.5252525252524"/>
      <point x="453.6363636363636" y="1494.5252525252524" type="curve" smooth="yes"/>
      <point x="356.1010101010101" y="1494.5252525252524"/>
      <point x="245.010101010101" y="1481.030303030303"/>
      <point x="152.9090909090909" y="1451.030303030303" type="curve"/>
      <point x="152.9090909090909" y="1331.4747474747473" type="line"/>
      <point x="249.87878787878788" y="1362.4444444444443"/>
      <point x="351.4141414141414" y="1374.949494949495"/>
      <point x="432.44444444444446" y="1374.949494949495" type="curve" smooth="yes"/>
      <point x="614.9494949494949" y="1374.949494949495"/>
      <point x="699.7575757575758" y="1330.4848484848485"/>
      <point x="699.7575757575758" y="1176.3030303030303" type="curve" smooth="yes"/>
      <point x="699.7575757575758" y="805.1717171717172" type="line"/>
      <point x="626.9090909090909" y="739.3737373737374"/>
      <point x="533.6161616161617" y="705.979797979798"/>
      <point x="439.8585858585859" y="705.979797979798" type="curve" smooth="yes"/>
      <point x="305.0909090909091" y="705.979797979798"/>
      <point x="246.20202020202026" y="761.3737373737374"/>
      <point x="246.20202020202026" y="850.1818181818182" type="curve" smooth="yes"/>
      <point x="246.20202020202026" y="936.5050505050505"/>
      <point x="305.5757575757576" y="985.4141414141415"/>
      <point x="466.26262626262627" y="1002.3636363636364" type="curve" smooth="yes"/>
      <point x="754.4646464646464" y="1030.7878787878788" type="line"/>
      <point x="744.3434343434344" y="1119.5959595959596" type="line"/>
      <point x="446.0808080808081" y="1090.6666666666667" type="line" smooth="yes"/>
      <point x="193.39393939393938" y="1068.7070707070707"/>
      <point x="88.30303030303028" y="987.1717171717172"/>
      <point x="88.30303030303028" y="836.0808080808081" type="curve" smooth="yes"/>
      <point x="88.30303030303028" y="690.0606060606061"/>
      <point x="195.29292929292927" y="594.989898989899"/>
    </contour>
  </outline>
</glyph>
<glyph name="guillemetleft" format="2">
  <advance width="1182.767676767677"/>
  <unicode hex="00AB"/>
  <outline>
    <contour>
      <point x="444.7474747474747" y="137.47474747474746" type="line"/>
      <point x="625.7575757575758" y="137.47474747474746" type="line"/>
      <point x="308.3232323232324" y="562.5252525252525" type="line"/>
      <point x="625.7575757575758" y="987.5757575757576" type="line"/>
      <point x="444.7474747474747" y="987.5757575757576" type="line"/>
      <point x="127.3131313131313" y="562.5252525252525" type="line"/>
    </contour>
    <contour>
      <point x="914.4444444444446" y="137.47474747474746" type="line"/>
      <point x="1095.4545454545455" y="137.47474747474746" type="line"/>
      <point x="778.0202020202021" y="562.5252525252525" type="line"/>
      <point x="1095.4545454545455" y="987.5757575757576" type="line"/>
      <point x="914.4444444444446" y="987.5757575757576" type="line"/>
      <point x="597.010101010101" y="562.5252525252525" type="line"/>
    </contour>
  </outline>
</glyph>
<glyph name="logicalnot" format="2">
  <advance width="1426.989898989899"/>
  <unicode hex="00AC"/>
  <outline>
    <contour>
      <point x="1125.939393939394" y="196.54545454545456" type="line"/>
      <point x="1266.6666666666667" y="196.54545454545456" type="line"/>
      <point x="1266.6666666666667" y="826.8484848484849" type="line"/>
      <point x="170.8080808080808" y="826.8484848484849" type="line"/>
      <point x="170.8080808080808" y="693.1515151515151" type="line"/>
      <point x="1125.939393939394" y="693.1515151515151" type="line"/>
    </contour>
  </outline>
</glyph>
<glyph name="softhyphen" format="2">
  <advance width="978.0808080808081"/>
  <unicode hex="00AD"/>
  <outline>
    <contour>
      <point x="170.8080808080808" y="491.6363636363636" type="line"/>
      <point x="807.2727272727273" y="491.6363636363636" type="line"/>
      <point x="807.2727272727273" y="633.4141414141415" type="line"/>
      <point x="170.8080808080808" y="633.4141414141415" type="line"/>
    </contour>
  </outline>
</glyph>
<glyph name="registered" format="2">
  <advance width="1551.5959595959596"/>
  <unicode hex="00AE"/>
  <outline>
    <contour>
      <point x="775.7979797979798" y="268.0" type="curve" smooth="yes"/>
      <point x="1137.7979797979797" y="268.0"/>
      <point x="1385.7979797979797" y="518.0"/>
      <point x="1385.7979797979797" y="882.0" type="curve" smooth="yes"/>
      <point x="1385.7979797979797" y="1246.0"/>
      <point x="1137.7979797979797" y="1498.0"/>
      <point x="775.7979797979798" y="1498.0" type="curve" smooth="yes"/>
      <point x="413.7979797979798" y="1498.0"/>
      <point x="165.7979797979798" y="1246.0"/>
      <point x="165.7979797979798" y="882.0" type="curve" smooth="yes"/>
      <point x="165.7979797979798" y="518.0"/>
      <point x="413.7979797979798" y="268.0"/>
    </contour>
    <contour>
      <point x="935.6161616161615" y="600.0" type="line"/>
      <point x="1038.3838383838383" y="600.0" type="line"/>
      <point x="868.4444444444445" y="849.8989898989898" type="line"/>
      <point x="782.1818181818181" y="823.8989898989898" type="line"/>
    </contour>
    <contour>
      <point x="775.7979797979798" y="356.72727272727275" type="curve" smooth="yes"/>
      <point x="462.9494949494949" y="356.72727272727275"/>
      <point x="259.0505050505051" y="563.6363636363636"/>
      <point x="259.0505050505051" y="882.0" type="curve" smooth="yes"/>
      <point x="259.0505050505051" y="1200.8686868686868"/>
      <point x="462.9494949494949" y="1409.2727272727273"/>
      <point x="775.7979797979798" y="1409.2727272727273" type="curve" smooth="yes"/>
      <point x="1088.6464646464647" y="1409.2727272727273"/>
      <point x="1292.5454545454545" y="1200.8686868686868"/>
      <point x="1292.5454545454545" y="882.0" type="curve" smooth="yes"/>
      <point x="1292.5454545454545" y="563.6363636363636"/>
      <point x="1088.6464646464647" y="356.72727272727275"/>
    </contour>
    <contour>
      <point x="564.2626262626262" y="600.0" type="line"/>
      <point x="655.5151515151515" y="600.0" type="line"/>
      <point x="657.030303030303" y="815.8989898989898" type="line"/>
      <point x="763.3131313131313" y="815.8989898989898" type="line" smooth="yes"/>
      <point x="929.8585858585858" y="815.8989898989898"/>
      <point x="1012.3636363636364" y="881.3939393939394"/>
      <point x="1012.3636363636364" y="1002.9494949494949" type="curve" smooth="yes"/>
      <point x="1012.3636363636364" y="1124.5050505050506"/>
      <point x="927.8585858585858" y="1192.0"/>
      <point x="763.3131313131313" y="1192.0" type="curve" smooth="yes"/>
      <point x="564.2626262626262" y="1192.0" type="line"/>
    </contour>
    <contour>
      <point x="657.030303030303" y="895.5757575757576" type="line"/>
      <point x="657.030303030303" y="1112.3232323232323" type="line"/>
      <point x="778.8484848484849" y="1112.3232323232323" type="line" smooth="yes"/>
      <point x="874.6868686868687" y="1112.3232323232323"/>
      <point x="922.1212121212121" y="1076.3636363636363"/>
      <point x="922.1212121212121" y="1002.9494949494949" type="curve" smooth="yes"/>
      <point x="922.1212121212121" y="929.5353535353536"/>
      <point x="876.6868686868687" y="895.5757575757576"/>
      <point x="778.8484848484849" y="895.5757575757576" type="curve" smooth="yes"/>
    </contour>
  </outline>
</glyph>
<glyph name="macron" format="2">
  <advance width="1200.0"/>
  <unicode hex="00AF"/>
  <anchor x="600.0" y="1200.0" name="_top"/>
  <anchor x="600.0" y="1571.1515151515152" name="top"/>
  <outline>
    <contour>
      <point x="258.7474747474747" y="1368.7474747474748" type="line"/>
      <point x="941.2525252525252" y="1368.7474747474748" type="line"/>
      <point x="941.2525252525252" y="1476.7272727272727" type="line"/>
      <point x="258.7474747474747" y="1476.7272727272727" type="line"/>
    </contour>
  </outline>
</glyph>
<glyph name="degree" format="2">
  <advance width="1047.919191919192"/>
  <unicode hex="00B0"/>
  <outline>
    <contour>
      <point x="523.959595959596" y="784.2222222222222" type="curve" smooth="yes"/>
      <point x="732.5454545454545" y="784.2222222222222"/>
      <point x="882.1212121212121" y="934.2828282828283"/>
      <point x="882.1212121212121" y="1140.8686868686868" type="curve" smooth="yes"/>
      <point x="882.1212121212121" y="1347.4545454545455"/>
      <point x="732.5454545454545" y="1497.010101010101"/>
      <point x="523.959595959596" y="1497.010101010101" type="curve" smooth="yes"/>
      <point x="315.37373737373736" y="1497.010101010101"/>
      <point x="165.7979797979798" y="1347.4545454545455"/>
      <point x="165.7979797979798" y="1140.8686868686868" type="curve" smooth="yes"/>
      <point x="165.7979797979798" y="934.2828282828283"/>
      <point x="315.37373737373736" y="784.2222222222222"/>
    </contour>
    <contour>
      <point x="523.959595959596" y="894.6868686868687" type="curve" smooth="yes"/>
      <point x="382.6666666666667" y="894.6868686868687"/>
      <point x="281.7979797979798" y="990.060606060606"/>
      <point x="281.7979797979798" y="1140.8686868686868" type="curve" smooth="yes"/>
      <point x="281.7979797979798" y="1292.1818181818182"/>
      <point x="383.1717171717172" y="1386.5454545454545"/>
      <point x="523.959595959596" y="1386.5454545454545" type="curve" smooth="yes"/>
      <point x="664.7474747474747" y="1386.5454545454545"/>
      <point x="766.1212121212121" y="1292.1818181818182"/>
      <point x="766.1212121212121" y="1140.8686868686868" type="curve" smooth="yes"/>
      <point x="766.1212121212121" y="990.060606060606"/>
      <point x="665.2525252525253" y="894.6868686868687"/>
    </contour>
  </outline>
</glyph>
<glyph name="plusminus" format="2">
  <advance width="1130.2222222222222"/>
  <unicode hex="00B1"/>
  <outline>
    <contour>
      <point x="494.7474747474747" y="339.73737373737373" type="line"/>
      <point x="635.4747474747476" y="339.73737373737373" type="line"/>
      <point x="635.4747474747476" y="667.010101010101" type="line"/>
      <point x="959.4141414141415" y="667.010101010101" type="line"/>
      <point x="959.4141414141415" y="800.7070707070708" type="line"/>
      <point x="635.4747474747476" y="800.7070707070708" type="line"/>
      <point x="635.4747474747476" y="1127.979797979798" type="line"/>
      <point x="494.7474747474747" y="1127.979797979798" type="line"/>
      <point x="494.7474747474747" y="800.7070707070708" type="line"/>
      <point x="170.8080808080808" y="800.7070707070708" type="line"/>
      <point x="170.8080808080808" y="667.010101010101" type="line"/>
      <point x="494.7474747474747" y="667.010101010101" type="line"/>
    </contour>
    <contour>
      <point x="170.8080808080808" y="0.0" type="line"/>
      <point x="959.4141414141415" y="0.0" type="line"/>
      <point x="959.4141414141415" y="133.69696969696975" type="line"/>
      <point x="170.8080808080808" y="133.69696969696975" type="line"/>
    </contour>
  </outline>
</glyph>
<glyph name="threesuperior" format="2">
  <advance width="858.909090909091"/>
  <unicode hex="00B3"/>
  <outline>
    <contour>
      <point x="356.64646464646466" y="-148.50505050505052" type="curve" smooth="yes"/>
      <point x="648.8484848484849" y="-148.50505050505052"/>
      <point x="776.3838383838383" y="-37.474747474747474"/>
      <point x="776.3838383838383" y="141.53535353535355" type="curve" smooth="yes"/>
      <point x="776.3838383838383" y="285.5151515151515"/>
      <point x="678.929292929293" y="371.95959595959596"/>
      <point x="512.5858585858587" y="390.96969696969694" type="curve"/>
      <point x="512.5858585858587" y="374.5050505050505" type="line"/>
      <point x="647.4747474747476" y="402.98989898989896"/>
      <point x="739.878787878788" y="487.979797979798"/>
      <point x="739.878787878788" y="615.8989898989898" type="curve" smooth="yes"/>
      <point x="739.878787878788" y="779.4747474747475"/>
      <point x="612.3232323232323" y="876.5050505050505"/>
      <point x="372.04040404040404" y="876.5050505050505" type="curve" smooth="yes"/>
      <point x="277.01010101010104" y="876.5050505050505"/>
      <point x="174.9090909090909" y="862.989898989899"/>
      <point x="98.42424242424242" y="839.4949494949495" type="curve"/>
      <point x="98.42424242424242" y="729.5353535353535" type="line"/>
      <point x="183.39393939393938" y="758.5252525252525"/>
      <point x="277.95959595959596" y="770.5454545454545"/>
      <point x="359.95959595959596" y="770.5454545454545" type="curve" smooth="yes"/>
      <point x="521.3131313131313" y="770.5454545454545"/>
      <point x="604.1616161616162" y="709.1515151515151"/>
      <point x="604.1616161616162" y="606.3434343434343" type="curve" smooth="yes"/>
      <point x="604.1616161616162" y="488.1212121212121"/>
      <point x="508.4040404040404" y="430.22222222222223"/>
      <point x="317.69696969696975" y="430.22222222222223" type="curve" smooth="yes"/>
      <point x="215.7979797979798" y="430.22222222222223" type="line"/>
      <point x="215.7979797979798" y="323.75757575757575" type="line"/>
      <point x="387.030303030303" y="323.75757575757575" type="line" smooth="yes"/>
      <point x="564.3434343434343" y="323.75757575757575"/>
      <point x="643.1919191919192" y="261.37373737373736"/>
      <point x="643.1919191919192" y="150.08080808080808" type="curve" smooth="yes"/>
      <point x="643.1919191919192" y="28.323232323232347"/>
      <point x="555.8383838383838" y="-42.040404040404006"/>
      <point x="352.5858585858586" y="-42.040404040404006" type="curve" smooth="yes"/>
      <point x="264.06060606060606" y="-42.040404040404006"/>
      <point x="162.50505050505052" y="-28.040404040404006"/>
      <point x="67.97979797979798" y="1.939393939393966" type="curve"/>
      <point x="67.97979797979798" y="-108.02020202020202" type="line"/>
      <point x="157.03030303030303" y="-135.010101010101"/>
      <point x="260.06060606060606" y="-148.50505050505052"/>
    </contour>
  </outline>
</glyph>
<glyph name="acute" format="2">
  <advance width="1200.0"/>
  <unicode hex="00B4"/>
  <anchor x="600.0" y="1200.0" name="_top"/>
  <anchor x="600.0" y="1581.2525252525252" name="top"/>
  <outline>
    <contour>
      <point x="517.5353535353535" y="1252.888888888889" type="line"/>
      <point x="682.4646464646464" y="1252.888888888889" type="line"/>
      <point x="974.0808080808081" y="1616.0" type="line"/>
      <point x="783.0101010101009" y="1616.0" type="line"/>
    </contour>
  </outline>
</glyph>
<glyph name="paragraph" format="2">
  <advance width="1368.0404040404042"/>
  <unicode hex="00B6"/>
  <outline>
    <contour>
      <point x="776.4444444444443" y="0.0" type="line"/>
      <point x="907.5757575757575" y="0.0" type="line"/>
      <point x="907.5757575757575" y="1480.0" type="line"/>
      <point x="811.5353535353536" y="1489.5151515151515"/>
      <point x="701.030303030303" y="1495.5151515151515"/>
      <point x="587.5353535353536" y="1495.5151515151515" type="curve" smooth="yes"/>
      <point x="268.9090909090909" y="1495.5151515151515"/>
      <point x="98.92929292929293" y="1341.9595959595958"/>
      <point x="98.92929292929293" y="993.3333333333334" type="curve" smooth="yes"/>
      <point x="98.92929292929293" y="665.1919191919192"/>
      <point x="252.94949494949495" y="485.17171717171715"/>
      <point x="606.2828282828283" y="485.17171717171715" type="curve" smooth="yes"/>
      <point x="669.1515151515151" y="485.17171717171715"/>
      <point x="721.5555555555555" y="488.66666666666663"/>
      <point x="776.4444444444443" y="496.1414141414141" type="curve"/>
    </contour>
    <contour>
      <point x="1042.6262626262626" y="0.0" type="line"/>
      <point x="1173.7575757575758" y="0.0" type="line"/>
      <point x="1173.7575757575758" y="1480.0" type="line"/>
      <point x="1042.6262626262626" y="1480.0" type="line"/>
    </contour>
  </outline>
</glyph>
<glyph name="periodcentered" format="2">
  <advance width="513.6161616161617"/>
  <unicode hex="00B7"/>
  <anchor x="256.80808080808083" y="560.0" name="_periodcentered"/>
  <outline>
    <contour>
      <point x="256.80808080808083" y="447.5151515151515" type="curve" smooth="yes"/>
      <point x="329.6767676767677" y="447.5151515151515"/>
      <point x="376.38383838383845" y="491.2121212121212"/>
      <point x="376.38383838383845" y="558.5050505050505" type="curve" smooth="yes"/>
      <point x="376.38383838383845" y="625.7979797979798"/>
      <point x="330.6868686868687" y="670.9898989898991"/>
      <point x="256.80808080808083" y="670.9898989898991" type="curve" smooth="yes"/>
      <point x="182.92929292929293" y="670.9898989898991"/>
      <point x="137.2323232323232" y="626.8080808080808"/>
      <point x="137.2323232323232" y="558.5050505050505" type="curve" smooth="yes"/>
      <point x="137.2323232323232" y="490.2020202020202"/>
      <point x="183.93939393939394" y="447.5151515151515"/>
    </contour>
  </outline>
</glyph>
<glyph name="cedilla" format="2">
  <advance width="1200.0"/>
  <unicode hex="00B8"/>
  <anchor x="600.0" y="0.0" name="_bottom"/>
  <outline>
    <contour>
      <point x="608.9494949494949" y="-415.1515151515152" type="curve" smooth="yes"/>
      <point x="745.1515151515151" y="-415.1515151515152"/>
      <point x="823.2323232323233" y="-359.0909090909091"/>
      <point x="823.2323232323233" y="-258.52525252525254" type="curve" smooth="yes"/>
      <point x="823.2323232323233" y="-157.95959595959596"/>
      <point x="750.2020202020202" y="-100.38383838383838"/>
      <point x="615.010101010101" y="-100.38383838383838" type="curve"/>
      <point x="651.2121212121212" y="-136.94949494949495" type="line"/>
      <point x="651.2121212121212" y="20.0" type="line"/>
      <point x="558.3434343434343" y="20.0" type="line"/>
      <point x="558.3434343434343" y="-169.05050505050505" type="line"/>
      <point x="602.4040404040404" y="-169.05050505050505" type="line" smooth="yes"/>
      <point x="683.3333333333333" y="-169.05050505050505"/>
      <point x="724.8080808080808" y="-194.02020202020202"/>
      <point x="724.8080808080808" y="-252.96969696969697" type="curve" smooth="yes"/>
      <point x="724.8080808080808" y="-311.9191919191919"/>
      <point x="683.3333333333333" y="-336.88888888888886"/>
      <point x="603.3939393939394" y="-336.88888888888886" type="curve" smooth="yes"/>
      <point x="546.9090909090909" y="-336.88888888888886"/>
      <point x="481.35353535353534" y="-325.3939393939394"/>
      <point x="420.38383838383834" y="-296.42424242424244" type="curve"/>
      <point x="420.38383838383834" y="-377.1717171717172" type="line"/>
      <point x="469.41414141414145" y="-401.65656565656565"/>
      <point x="542.9090909090909" y="-415.1515151515152"/>
    </contour>
  </outline>
</glyph>
<glyph name="onesuperior" format="2">
  <advance width="858.909090909091"/>
  <unicode hex="00B9"/>
  <outline>
    <contour>
      <point x="405.83838383838383" y="-110.94949494949495" type="line"/>
      <point x="546.6060606060606" y="-110.94949494949495" type="line"/>
      <point x="546.6060606060606" y="868.0" type="line"/>
      <point x="451.0909090909091" y="868.0" type="line"/>
      <point x="142.44444444444443" y="655.4949494949495" type="line"/>
      <point x="142.44444444444443" y="524.4242424242424" type="line"/>
      <point x="451.0909090909091" y="736.9292929292928" type="line"/>
      <point x="405.83838383838383" y="778.7070707070707" type="line"/>
    </contour>
    <contour>
      <point x="142.44444444444443" y="-136.0" type="line"/>
      <point x="796.0" y="-136.0" type="line"/>
      <point x="796.0" y="-20.464646464646428" type="line"/>
      <point x="142.44444444444443" y="-20.464646464646428" type="line"/>
    </contour>
  </outline>
</glyph>
<glyph name="ordmasculine" format="2">
  <advance width="1088.949494949495"/>
  <unicode hex="00BA"/>
  <outline>
    <contour>
      <point x="544.2222222222223" y="594.989898989899" type="curve" smooth="yes"/>
      <point x="816.0606060606061" y="594.989898989899"/>
      <point x="994.1616161616162" y="746.6060606060606"/>
      <point x="994.1616161616162" y="1047.010101010101" type="curve" smooth="yes"/>
      <point x="994.1616161616162" y="1347.4141414141413"/>
      <point x="816.0606060606061" y="1494.5252525252524"/>
      <point x="544.2222222222223" y="1494.5252525252524" type="curve" smooth="yes"/>
      <point x="272.3838383838384" y="1494.5252525252524"/>
      <point x="94.78787878787877" y="1347.4141414141413"/>
      <point x="94.78787878787877" y="1047.010101010101" type="curve" smooth="yes"/>
      <point x="94.78787878787877" y="746.6060606060606"/>
      <point x="272.3838383838384" y="594.989898989899"/>
    </contour>
    <contour>
      <point x="544.2222222222223" y="722.1212121212121" type="curve" smooth="yes"/>
      <point x="368.00000000000006" y="722.1212121212121"/>
      <point x="253.19191919191923" y="817.979797979798"/>
      <point x="253.19191919191923" y="1047.010101010101" type="curve" smooth="yes"/>
      <point x="253.19191919191923" y="1276.040404040404"/>
      <point x="368.00000000000006" y="1367.3939393939393"/>
      <point x="544.2222222222223" y="1367.3939393939393" type="curve" smooth="yes"/>
      <point x="721.4545454545455" y="1367.3939393939393"/>
      <point x="835.7575757575758" y="1276.040404040404"/>
      <point x="835.7575757575758" y="1047.010101010101" type="curve" smooth="yes"/>
      <point x="835.7575757575758" y="817.979797979798"/>
      <point x="721.4545454545455" y="722.1212121212121"/>
    </contour>
  </outline>
</glyph>
<glyph name="guillemetright" format="2">
  <advance width="1182.767676767677"/>
  <unicode hex="00BB"/>
  <outline>
    <contour>
      <point x="87.3131313131313" y="137.47474747474746" type="line"/>
      <point x="268.3232323232324" y="137.47474747474746" type="line"/>
      <point x="585.7575757575758" y="562.5252525252525" type="line"/>
      <point x="268.3232323232324" y="987.5757575757576" type="line"/>
      <point x="87.3131313131313" y="987.5757575757576" type="line"/>
      <point x="404.7474747474747" y="562.5252525252525" type="line"/>
    </contour>
    <contour>
      <point x="557.010101010101" y="137.47474747474746" type="line"/>
      <point x="738.0202020202021" y="137.47474747474746" type="line"/>
      <point x="1055.4545454545455" y="562.5252525252525" type="line"/>
      <point x="738.0202020202021" y="987.5757575757576" type="line"/>
      <point x="557.010101010101" y="987.5757575757576" type="line"/>
      <point x="874.4444444444446" y="562.5252525252525" type="line"/>
    </contour>
  </outline>
</glyph>
<glyph name="onequarter" format="2">
  <advance width="2043.959595959596"/>
  <unicode hex="00BC"/>
  <outline>
    <contour>
      <point x="405.83838383838383" y="641.0505050505051" type="line"/>
      <point x="546.6060606060606" y="641.0505050505051" type="line"/>
      <point x="546.6060606060606" y="1620.0" type="line"/>
      <point x="451.0909090909091" y="1620.0" type="line"/>
      <point x="142.44444444444443" y="1407.4949494949494" type="line"/>
      <point x="142.44444444444443" y="1276.4242424242425" type="line"/>
      <point x="451.0909090909091" y="1488.9292929292928" type="line"/>
      <point x="405.83838383838383" y="1530.7070707070707" type="line"/>
    </contour>
    <contour>
      <point x="142.44444444444443" y="616.0" type="line"/>
      <point x="796.0" y="616.0" type="line"/>
      <point x="796.0" y="731.5353535353536" type="line"/>
      <point x="142.44444444444443" y="731.5353535353536" type="line"/>
    </contour>
    <contour>
      <point x="516.2828282828283" y="-136.0" type="line"/>
      <point x="662.0808080808081" y="-136.0" type="line"/>
      <point x="1527.6767676767677" y="1616.0" type="line"/>
      <point x="1381.878787878788" y="1616.0" type="line"/>
    </contour>
    <contour>
      <point x="1214.020202020202" y="93.27272727272725" type="line"/>
      <point x="2020.969696969697" y="93.27272727272725" type="line"/>
      <point x="2020.969696969697" y="205.79797979797982" type="line"/>
      <point x="1333.1717171717173" y="205.79797979797982" type="line"/>
      <point x="1348.1818181818182" y="168.64646464646466" type="line"/>
      <point x="1743.818181818182" y="864.0" type="line"/>
      <point x="1609.6565656565658" y="864.0" type="line"/>
      <point x="1214.020202020202" y="170.14141414141415" type="line"/>
    </contour>
    <contour>
      <point x="1742.909090909091" y="-136.0" type="line"/>
      <point x="1870.0606060606062" y="-136.0" type="line"/>
      <point x="1870.0606060606062" y="526.0" type="line"/>
      <point x="1764.5050505050506" y="526.0" type="line"/>
      <point x="1742.909090909091" y="205.79797979797982" type="line"/>
    </contour>
  </outline>
</glyph>
<glyph name="onehalf" format="2">
  <advance width="2043.959595959596"/>
  <unicode hex="00BD"/>
  <outline>
    <contour>
      <point x="405.83838383838383" y="641.0505050505051" type="line"/>
      <point x="546.6060606060606" y="641.0505050505051" type="line"/>
      <point x="546.6060606060606" y="1620.0" type="line"/>
      <point x="451.0909090909091" y="1620.0" type="line"/>
      <point x="142.44444444444443" y="1407.4949494949494" type="line"/>
      <point x="142.44444444444443" y="1276.4242424242425" type="line"/>
      <point x="451.0909090909091" y="1488.9292929292928" type="line"/>
      <point x="405.83838383838383" y="1530.7070707070707" type="line"/>
    </contour>
    <contour>
      <point x="142.44444444444443" y="616.0" type="line"/>
      <point x="796.0" y="616.0" type="line"/>
      <point x="796.0" y="731.5353535353536" type="line"/>
      <point x="142.44444444444443" y="731.5353535353536" type="line"/>
    </contour>
    <contour>
      <point x="516.2828282828283" y="-136.0" type="line"/>
      <point x="662.0808080808081" y="-136.0" type="line"/>
      <point x="1527.6767676767677" y="1616.0" type="line"/>
      <point x="1381.878787878788" y="1616.0" type="line"/>
    </contour>
    <contour>
      <point x="1273.9797979797981" y="-136.0" type="line"/>
      <point x="1972.4646464646466" y="-136.0" type="line"/>
      <point x="1972.4646464646466" y="-20.464646464646428" type="line"/>
      <point x="1433.3535353535356" y="-20.464646464646428" type="line"/>
      <point x="1433.79797979798" y="-59.63636363636361" type="line"/>
      <point x="1723.1111111111113" y="250.06060606060606" type="line" smooth="yes"/>
      <point x="1857.5353535353536" y="394.92929292929296"/>
      <point x="1909.030303030303" y="485.4343434343434"/>
      <point x="1909.0303030303032" y="599.8989898989898" type="curve" smooth="yes"/>
      <point x="1909.030303030303" y="787.959595959596"/>
      <point x="1783.4545454545455" y="876.5050505050505"/>
      <point x="1541.1313131313132" y="876.5050505050505" type="curve" smooth="yes"/>
      <point x="1435.5959595959596" y="876.5050505050505"/>
      <point x="1336.020202020202" y="862.5050505050505"/>
      <point x="1261.9797979797981" y="836.5050505050505" type="curve"/>
      <point x="1261.9797979797981" y="719.4747474747475" type="line"/>
      <point x="1337.939393939394" y="745.959595959596"/>
      <point x="1430.0" y="762.4848484848485"/>
      <point x="1527.0101010101012" y="762.4848484848485" type="curve" smooth="yes"/>
      <point x="1691.919191919192" y="762.4848484848485"/>
      <point x="1768.787878787879" y="706.0808080808081"/>
      <point x="1768.787878787879" y="584.8080808080808" type="curve" smooth="yes"/>
      <point x="1768.787878787879" y="504.44444444444446"/>
      <point x="1725.3333333333335" y="429.55555555555554"/>
      <point x="1609.959595959596" y="304.22222222222223" type="curve" smooth="yes"/>
      <point x="1273.9797979797981" y="-62.14141414141412" type="line"/>
    </contour>
  </outline>
</glyph>
<glyph name="questiondown" format="2">
  <advance width="1007.1111111111111"/>
  <unicode hex="00BF"/>
  <outline>
    <contour>
      <point x="595.1313131313132" y="726.4646464646464" type="line"/>
      <point x="489.0505050505051" y="726.4646464646464" type="line"/>
      <point x="474.5050505050505" y="413.5959595959596" type="line"/>
      <point x="181.15151515151516" y="316.72727272727275"/>
      <point x="65.97979797979798" y="190.22222222222223"/>
      <point x="65.97979797979798" y="-24.303030303030287" type="curve" smooth="yes"/>
      <point x="65.97979797979798" y="-257.45454545454544"/>
      <point x="245.07070707070707" y="-400.0"/>
      <point x="575.4545454545455" y="-400.0" type="curve" smooth="yes"/>
      <point x="709.4949494949495" y="-400.0"/>
      <point x="846.6464646464647" y="-379.979797979798"/>
      <point x="960.6262626262627" y="-344.4848484848485" type="curve"/>
      <point x="960.6262626262627" y="-205.27272727272722" type="line"/>
      <point x="837.6565656565657" y="-244.76767676767673"/>
      <point x="709.0909090909091" y="-262.78787878787875"/>
      <point x="589.0707070707072" y="-262.78787878787875" type="curve" smooth="yes"/>
      <point x="355.2525252525253" y="-262.78787878787875"/>
      <point x="232.4444444444445" y="-167.9595959595959"/>
      <point x="232.4444444444445" y="-15.23232323232321" type="curve" smooth="yes"/>
      <point x="232.4444444444445" y="143.45454545454544"/>
      <point x="325.3737373737374" y="240.84848484848484"/>
      <point x="624.3030303030304" y="322.1616161616161" type="curve"/>
    </contour>
    <contour>
      <point x="541.8383838383838" y="1097.5757575757575" type="curve" smooth="yes"/>
      <point x="467.47474747474746" y="1097.5757575757575"/>
      <point x="422.2626262626262" y="1054.4040404040404"/>
      <point x="422.2626262626262" y="991.6363636363636" type="curve" smooth="yes"/>
      <point x="422.2626262626262" y="927.3737373737373"/>
      <point x="467.95959595959596" y="884.2020202020201"/>
      <point x="541.8383838383838" y="884.2020202020201" type="curve" smooth="yes"/>
      <point x="615.7171717171718" y="884.2020202020201"/>
      <point x="661.4141414141415" y="926.3636363636363"/>
      <point x="661.4141414141415" y="991.6363636363636" type="curve" smooth="yes"/>
      <point x="661.4141414141415" y="1055.4141414141413"/>
      <point x="614.7070707070708" y="1097.5757575757575"/>
    </contour>
  </outline>
</glyph>
<glyph name="Aacute" format="2">
  <advance width="1522.3030303030305"/>
  <unicode hex="00C1"/>
  <anchor x="761.3939393939394" y="1520.0" name="_top"/>
  <anchor x="761.89898989899" y="0.0" name="bottom"/>
  <anchor x="1482.3838383838383" y="0.0" name="ogonek"/>
  <anchor x="761.3939393939394" y="1520.0" name="top"/>
  <outline>
    <contour>
      <point x="39.91919191919192" y="0.0" type="line"/>
      <point x="211.39393939393946" y="0.0" type="line"/>
      <point x="773.9191919191919" y="1400.6060606060605" type="line"/>
      <point x="745.8787878787879" y="1400.6060606060605" type="line"/>
      <point x="1308.4040404040404" y="0.0" type="line"/>
      <point x="1482.3838383838383" y="0.0" type="line"/>
      <point x="880.1616161616163" y="1480.0" type="line"/>
      <point x="642.1414141414141" y="1480.0" type="line"/>
    </contour>
    <contour>
      <point x="366.949494949495" y="479.010101010101" type="line"/>
      <point x="1154.3434343434344" y="479.010101010101" type="line"/>
      <point x="1112.1212121212122" y="616.7272727272727" type="line"/>
      <point x="409.6767676767677" y="616.7272727272727" type="line"/>
    </contour>
    <contour>
      <point x="680.4444444444445" y="1608.4242424242425" type="line"/>
      <point x="840.3232323232323" y="1608.4242424242425" type="line"/>
      <point x="1085.4141414141416" y="1891.5353535353536" type="line"/>
      <point x="897.8989898989898" y="1891.5353535353536" type="line"/>
    </contour>
  </outline>
</glyph>
<glyph name="Acircumflex" format="2">
  <advance width="1522.3030303030305"/>
  <unicode hex="00C2"/>
  <anchor x="761.3939393939394" y="1520.0" name="_top"/>
  <anchor x="761.89898989899" y="0.0" name="bottom"/>
  <anchor x="1482.3838383838383" y="0.0" name="ogonek"/>
  <anchor x="761.3939393939394" y="1520.0" name="top"/>
  <outline>
    <contour>
      <point x="39.91919191919192" y="0.0" type="line"/>
      <point x="211.39393939393946" y="0.0" type="line"/>
      <point x="773.9191919191919" y="1400.6060606060605" type="line"/>
      <point x="745.8787878787879" y="1400.6060606060605" type="line"/>
      <point x="1308.4040404040404" y="0.0" type="line"/>
      <point x="1482.3838383838383" y="0.0" type="line"/>
      <point x="880.1616161616163" y="1480.0" type="line"/>
      <point x="642.1414141414141" y="1480.0" type="line"/>
    </contour>
    <contour>
      <point x="366.949494949495" y="479.010101010101" type="line"/>
      <point x="1154.3434343434344" y="479.010101010101" type="line"/>
      <point x="1112.1212121212122" y="616.7272727272727" type="line"/>
      <point x="409.6767676767677" y="616.7272727272727" type="line"/>
    </contour>
    <contour>
      <point x="388.3838383838384" y="1608.4242424242425" type="line"/>
      <point x="549.0707070707072" y="1608.4242424242425" type="line"/>
      <point x="784.4444444444445" y="1839.2929292929293" type="line"/>
      <point x="738.3434343434344" y="1839.2929292929293" type="line"/>
      <point x="973.7171717171717" y="1608.4242424242425" type="line"/>
      <point x="1134.4040404040404" y="1608.4242424242425" type="line"/>
      <point x="838.2828282828284" y="1891.5353535353536" type="line"/>
      <point x="684.5050505050506" y="1891.5353535353536" type="line"/>
    </contour>
  </outline>
</glyph>
<glyph name="Atilde" format="2">
  <advance width="1522.3030303030305"/>
  <unicode hex="00C3"/>
  <anchor x="761.3939393939394" y="1520.0" name="_top"/>
  <anchor x="761.89898989899" y="0.0" name="bottom"/>
  <anchor x="1482.3838383838383" y="0.0" name="ogonek"/>
  <anchor x="761.3939393939394" y="1520.0" name="top"/>
  <outline>
    <contour>
      <point x="39.91919191919192" y="0.0" type="line"/>
      <point x="211.39393939393946" y="0.0" type="line"/>
      <point x="773.9191919191919" y="1400.6060606060605" type="line"/>
      <point x="745.8787878787879" y="1400.6060606060605" type="line"/>
      <point x="1308.4040404040404" y="0.0" type="line"/>
      <point x="1482.3838383838383" y="0.0" type="line"/>
      <point x="880.1616161616163" y="1480.0" type="line"/>
      <point x="642.1414141414141" y="1480.0" type="line"/>
    </contour>
    <contour>
      <point x="366.949494949495" y="479.010101010101" type="line"/>
      <point x="1154.3434343434344" y="479.010101010101" type="line"/>
      <point x="1112.1212121212122" y="616.7272727272727" type="line"/>
      <point x="409.6767676767677" y="616.7272727272727" type="line"/>
    </contour>
    <contour>
      <point x="930.9898989898991" y="1669.7171717171716" type="curve" smooth="yes"/>
      <point x="1018.060606060606" y="1669.7171717171716"/>
      <point x="1078.1010101010102" y="1690.2222222222222"/>
      <point x="1124.6666666666667" y="1733.2525252525252" type="curve"/>
      <point x="1124.6666666666667" y="1842.6666666666667" type="line"/>
      <point x="1069.5959595959596" y="1795.6767676767677"/>
      <point x="1014.5656565656566" y="1774.1818181818182"/>
      <point x="934.0202020202021" y="1774.1818181818182" type="curve" smooth="yes"/>
      <point x="821.4141414141415" y="1774.1818181818182"/>
      <point x="724.8888888888889" y="1848.1818181818182"/>
      <point x="591.7979797979798" y="1848.1818181818182" type="curve" smooth="yes"/>
      <point x="504.72727272727275" y="1848.1818181818182"/>
      <point x="444.6868686868687" y="1827.171717171717"/>
      <point x="398.1212121212121" y="1784.141414141414" type="curve"/>
      <point x="398.1212121212121" y="1674.7272727272727" type="line"/>
      <point x="453.1919191919192" y="1721.7171717171716"/>
      <point x="508.22222222222223" y="1743.2121212121212"/>
      <point x="588.7676767676768" y="1743.2121212121212" type="curve" smooth="yes"/>
      <point x="701.3737373737374" y="1743.2121212121212"/>
      <point x="797.89898989899" y="1669.7171717171716"/>
    </contour>
  </outline>
</glyph>
<glyph name="Adieresis" format="2">
  <advance width="1522.3030303030305"/>
  <unicode hex="00C4"/>
  <anchor x="761.3939393939394" y="1520.0" name="_top"/>
  <anchor x="761.89898989899" y="0.0" name="bottom"/>
  <anchor x="1482.3838383838383" y="0.0" name="ogonek"/>
  <anchor x="761.3939393939394" y="1520.0" name="top"/>
  <outline>
    <contour>
      <point x="39.91919191919192" y="0.0" type="line"/>
      <point x="211.39393939393946" y="0.0" type="line"/>
      <point x="773.9191919191919" y="1400.6060606060605" type="line"/>
      <point x="745.8787878787879" y="1400.6060606060605" type="line"/>
      <point x="1308.4040404040404" y="0.0" type="line"/>
      <point x="1482.3838383838383" y="0.0" type="line"/>
      <point x="880.1616161616163" y="1480.0" type="line"/>
      <point x="642.1414141414141" y="1480.0" type="line"/>
    </contour>
    <contour>
      <point x="366.949494949495" y="479.010101010101" type="line"/>
      <point x="1154.3434343434344" y="479.010101010101" type="line"/>
      <point x="1112.1212121212122" y="616.7272727272727" type="line"/>
      <point x="409.6767676767677" y="616.7272727272727" type="line"/>
    </contour>
    <contour>
      <point x="1030.4848484848485" y="1659.6969696969697" type="curve" smooth="yes"/>
      <point x="1097.79797979798" y="1659.6969696969697"/>
      <point x="1134.4040404040404" y="1694.8080808080808"/>
      <point x="1134.4040404040404" y="1751.4949494949494" type="curve" smooth="yes"/>
      <point x="1134.4040404040404" y="1808.1818181818182"/>
      <point x="1097.79797979798" y="1844.7878787878788"/>
      <point x="1030.4848484848485" y="1844.7878787878788" type="curve" smooth="yes"/>
      <point x="963.1717171717172" y="1844.7878787878788"/>
      <point x="926.5656565656566" y="1808.1818181818182"/>
      <point x="926.5656565656566" y="1751.4949494949494" type="curve" smooth="yes"/>
      <point x="926.5656565656566" y="1694.8080808080808"/>
      <point x="963.1717171717172" y="1659.6969696969697"/>
    </contour>
    <contour>
      <point x="492.3030303030303" y="1659.6969696969697" type="curve" smooth="yes"/>
      <point x="559.6161616161617" y="1659.6969696969697"/>
      <point x="596.2222222222223" y="1694.8080808080808"/>
      <point x="596.2222222222223" y="1751.4949494949494" type="curve" smooth="yes"/>
      <point x="596.2222222222223" y="1808.1818181818182"/>
      <point x="559.6161616161617" y="1844.7878787878788"/>
      <point x="492.3030303030303" y="1844.7878787878788" type="curve" smooth="yes"/>
      <point x="424.98989898989896" y="1844.7878787878788"/>
      <point x="388.3838383838384" y="1808.1818181818182"/>
      <point x="388.3838383838384" y="1751.4949494949494" type="curve" smooth="yes"/>
      <point x="388.3838383838384" y="1694.8080808080808"/>
      <point x="424.98989898989896" y="1659.6969696969697"/>
    </contour>
  </outline>
</glyph>
<glyph name="Egrave" format="2">
  <advance width="1338.0404040404042"/>
  <unicode hex="00C8"/>
  <anchor x="731.1919191919192" y="1520.0" name="_top"/>
  <anchor x="734.1818181818182" y="0.0" name="bottom"/>
  <anchor x="1150.5454545454545" y="0.0" name="ogonek"/>
  <anchor x="731.1919191919192" y="1520.0" name="top"/>
  <anchor x="44.484848484848484" y="1480.0" name="topleft"/>
  <outline>
    <contour>
      <point x="194.28282828282826" y="0.0" type="line"/>
      <point x="1235.5959595959596" y="0.0" type="line"/>
      <point x="1235.5959595959596" y="137.71717171717177" type="line"/>
      <point x="363.79797979797985" y="137.71717171717177" type="line"/>
      <point x="363.79797979797985" y="1342.2828282828282" type="line"/>
      <point x="1225.5959595959596" y="1342.2828282828282" type="line"/>
      <point x="1225.5959595959596" y="1480.0" type="line"/>
      <point x="194.28282828282826" y="1480.0" type="line"/>
    </contour>
    <contour>
      <point x="281.75757575757575" y="690.6262626262626" type="line"/>
      <point x="1124.080808080808" y="690.6262626262626" type="line"/>
      <point x="1124.080808080808" y="828.3434343434344" type="line"/>
      <point x="281.75757575757575" y="828.3434343434344" type="line"/>
    </contour>
    <contour>
      <point x="651.2525252525252" y="1608.4242424242425" type="line"/>
      <point x="811.1313131313132" y="1608.4242424242425" type="line"/>
      <point x="593.6767676767677" y="1891.5353535353536" type="line"/>
      <point x="406.16161616161617" y="1891.5353535353536" type="line"/>
    </contour>
  </outline>
</glyph>
<glyph name="Eacute" format="2">
  <advance width="1338.0404040404042"/>
  <unicode hex="00C9"/>
  <anchor x="731.1919191919192" y="1520.0" name="_top"/>
  <anchor x="734.1818181818182" y="0.0" name="bottom"/>
  <anchor x="1150.5454545454545" y="0.0" name="ogonek"/>
  <anchor x="731.1919191919192" y="1520.0" name="top"/>
  <anchor x="44.484848484848484" y="1480.0" name="topleft"/>
  <outline>
    <contour>
      <point x="194.28282828282826" y="0.0" type="line"/>
      <point x="1235.5959595959596" y="0.0" type="line"/>
      <point x="1235.5959595959596" y="137.71717171717177" type="line"/>
      <point x="363.79797979797985" y="137.71717171717177" type="line"/>
      <point x="363.79797979797985" y="1342.2828282828282" type="line"/>
      <point x="1225.5959595959596" y="1342.2828282828282" type="line"/>
      <point x="1225.5959595959596" y="1480.0" type="line"/>
      <point x="194.28282828282826" y="1480.0" type="line"/>
    </contour>
    <contour>
      <point x="281.75757575757575" y="690.6262626262626" type="line"/>
      <point x="1124.080808080808" y="690.6262626262626" type="line"/>
      <point x="1124.080808080808" y="828.3434343434344" type="line"/>
      <point x="281.75757575757575" y="828.3434343434344" type="line"/>
    </contour>
    <contour>
      <point x="650.2424242424242" y="1608.4242424242425" type="line"/>
      <point x="810.1212121212122" y="1608.4242424242425" type="line"/>
      <point x="1055.2121212121212" y="1891.5353535353536" type="line"/>
      <point x="867.6969696969696" y="1891.5353535353536" type="line"/>
    </contour>
  </outline>
</glyph>
<glyph name="Edieresis" format="2">
  <advance width="1338.0404040404042"/>
  <unicode hex="00CB"/>
  <anchor x="731.1919191919192" y="1520.0" name="_top"/>
  <anchor x="734.1818181818182" y="0.0" name="bottom"/>
  <anchor x="1150.5454545454545" y="0.0" name="ogonek"/>
  <anchor x="731.1919191919192" y="1520.0" name="top"/>
  <anchor x="44.484848484848484" y="1480.0" name="topleft"/>
  <outline>
    <contour>
      <point x="194.28282828282826" y="0.0" type="line"/>
      <point x="1235.5959595959596" y="0.0" type="line"/>
      <point x="1235.5959595959596" y="137.71717171717177" type="line"/>
      <point x="363.79797979797985" y="137.71717171717177" type="line"/>
      <point x="363.79797979797985" y="1342.2828282828282" type="line"/>
      <point x="1225.5959595959596" y="1342.2828282828282" type="line"/>
      <point x="1225.5959595959596" y="1480.0" type="line"/>
      <point x="194.28282828282826" y="1480.0" type="line"/>
    </contour>
    <contour>
      <point x="281.75757575757575" y="690.6262626262626" type="line"/>
      <point x="1124.080808080808" y="690.6262626262626" type="line"/>
      <point x="1124.080808080808" y="828.3434343434344" type="line"/>
      <point x="281.75757575757575" y="828.3434343434344" type="line"/>
    </contour>
    <contour>
      <point x="1000.2828282828283" y="1659.6969696969697" type="curve" smooth="yes"/>
      <point x="1067.5959595959596" y="1659.6969696969697"/>
      <point x="1104.2020202020203" y="1694.8080808080808"/>
      <point x="1104.2020202020203" y="1751.4949494949494" type="curve" smooth="yes"/>
      <point x="1104.2020202020203" y="1808.1818181818182"/>
      <point x="1067.5959595959596" y="1844.7878787878788"/>
      <point x="1000.2828282828283" y="1844.7878787878788" type="curve" smooth="yes"/>
      <point x="932.969696969697" y="1844.7878787878788"/>
      <point x="896.3636363636364" y="1808.1818181818182"/>
      <point x="896.3636363636364" y="1751.4949494949494" type="curve" smooth="yes"/>
      <point x="896.3636363636364" y="1694.8080808080808"/>
      <point x="932.969696969697" y="1659.6969696969697"/>
    </contour>
    <contour>
      <point x="462.1010101010101" y="1659.6969696969697" type="curve" smooth="yes"/>
      <point x="529.4141414141415" y="1659.6969696969697"/>
      <point x="566.0202020202021" y="1694.8080808080808"/>
      <point x="566.0202020202021" y="1751.4949494949494" type="curve" smooth="yes"/>
      <point x="566.0202020202021" y="1808.1818181818182"/>
      <point x="529.4141414141415" y="1844.7878787878788"/>
      <point x="462.1010101010101" y="1844.7878787878788" type="curve" smooth="yes"/>
      <point x="394.78787878787875" y="1844.7878787878788"/>
      <point x="358.18181818181813" y="1808.1818181818182"/>
      <point x="358.18181818181813" y="1751.4949494949494" type="curve" smooth="yes"/>
      <point x="358.18181818181813" y="1694.8080808080808"/>
      <point x="394.78787878787875" y="1659.6969696969697"/>
    </contour>
  </outline>
</glyph>
<glyph name="Igrave" format="2">
  <advance width="559.5959595959596"/>
  <unicode hex="00CC"/>
  <anchor x="279.7979797979798" y="1520.0" name="_top"/>
  <anchor x="279.29292929292933" y="0.0" name="bottom"/>
  <anchor x="365.3131313131314" y="0.0" name="ogonek"/>
  <anchor x="279.7979797979798" y="1520.0" name="top"/>
  <outline>
    <contour>
      <point x="194.28282828282826" y="0.0" type="line"/>
      <point x="365.3131313131314" y="0.0" type="line"/>
      <point x="365.3131313131314" y="1480.0" type="line"/>
      <point x="194.28282828282826" y="1480.0" type="line"/>
    </contour>
    <contour>
      <point x="199.85858585858585" y="1608.4242424242425" type="line"/>
      <point x="359.7373737373738" y="1608.4242424242425" type="line"/>
      <point x="142.28282828282835" y="1891.5353535353536" type="line"/>
      <point x="-45.23232323232325" y="1891.5353535353536" type="line"/>
    </contour>
  </outline>
</glyph>
<glyph name="Iacute" format="2">
  <advance width="559.5959595959596"/>
  <unicode hex="00CD"/>
  <anchor x="279.7979797979798" y="1520.0" name="_top"/>
  <anchor x="279.29292929292933" y="0.0" name="bottom"/>
  <anchor x="365.3131313131314" y="0.0" name="ogonek"/>
  <anchor x="279.7979797979798" y="1520.0" name="top"/>
  <outline>
    <contour>
      <point x="194.28282828282826" y="0.0" type="line"/>
      <point x="365.3131313131314" y="0.0" type="line"/>
      <point x="365.3131313131314" y="1480.0" type="line"/>
      <point x="194.28282828282826" y="1480.0" type="line"/>
    </contour>
    <contour>
      <point x="198.84848484848484" y="1608.4242424242425" type="line"/>
      <point x="358.72727272727275" y="1608.4242424242425" type="line"/>
      <point x="603.8181818181819" y="1891.5353535353536" type="line"/>
      <point x="416.3030303030303" y="1891.5353535353536" type="line"/>
    </contour>
  </outline>
</glyph>
<glyph name="Icircumflex" format="2">
  <advance width="559.5959595959596"/>
  <unicode hex="00CE"/>
  <anchor x="279.7979797979798" y="1520.0" name="_top"/>
  <anchor x="279.29292929292933" y="0.0" name="bottom"/>
  <anchor x="365.3131313131314" y="0.0" name="ogonek"/>
  <anchor x="279.7979797979798" y="1520.0" name="top"/>
  <outline>
    <contour>
      <point x="194.28282828282826" y="0.0" type="line"/>
      <point x="365.3131313131314" y="0.0" type="line"/>
      <point x="365.3131313131314" y="1480.0" type="line"/>
      <point x="194.28282828282826" y="1480.0" type="line"/>
    </contour>
    <contour>
      <point x="-93.21212121212122" y="1608.4242424242425" type="line"/>
      <point x="67.4747474747475" y="1608.4242424242425" type="line"/>
      <point x="302.8484848484849" y="1839.2929292929293" type="line"/>
      <point x="256.74747474747477" y="1839.2929292929293" type="line"/>
      <point x="492.1212121212121" y="1608.4242424242425" type="line"/>
      <point x="652.8080808080808" y="1608.4242424242425" type="line"/>
      <point x="356.6868686868687" y="1891.5353535353536" type="line"/>
      <point x="202.9090909090909" y="1891.5353535353536" type="line"/>
    </contour>
  </outline>
</glyph>
<glyph name="Idieresis" format="2">
  <advance width="559.5959595959596"/>
  <unicode hex="00CF"/>
  <anchor x="279.7979797979798" y="1520.0" name="_top"/>
  <anchor x="279.29292929292933" y="0.0" name="bottom"/>
  <anchor x="365.3131313131314" y="0.0" name="ogonek"/>
  <anchor x="279.7979797979798" y="1520.0" name="top"/>
  <outline>
    <contour>
      <point x="194.28282828282826" y="0.0" type="line"/>
      <point x="365.3131313131314" y="0.0" type="line"/>
      <point x="365.3131313131314" y="1480.0" type="line"/>
      <point x="194.28282828282826" y="1480.0" type="line"/>
    </contour>
    <contour>
      <point x="548.8888888888889" y="1659.6969696969697" type="curve" smooth="yes"/>
      <point x="616.2020202020203" y="1659.6969696969697"/>
      <point x="652.8080808080808" y="1694.8080808080808"/>
      <point x="652.8080808080808" y="1751.4949494949494" type="curve" smooth="yes"/>
      <point x="652.8080808080808" y="1808.1818181818182"/>
      <point x="616.2020202020203" y="1844.7878787878788"/>
      <point x="548.8888888888889" y="1844.7878787878788" type="curve" smooth="yes"/>
      <point x="481.57575757575756" y="1844.7878787878788"/>
      <point x="444.969696969697" y="1808.1818181818182"/>
      <point x="444.969696969697" y="1751.4949494949494" type="curve" smooth="yes"/>
      <point x="444.969696969697" y="1694.8080808080808"/>
      <point x="481.57575757575756" y="1659.6969696969697"/>
    </contour>
    <contour>
      <point x="10.70707070707072" y="1659.6969696969697" type="curve" smooth="yes"/>
      <point x="78.02020202020206" y="1659.6969696969697"/>
      <point x="114.62626262626267" y="1694.8080808080808"/>
      <point x="114.62626262626267" y="1751.4949494949494" type="curve" smooth="yes"/>
      <point x="114.62626262626267" y="1808.1818181818182"/>
      <point x="78.02020202020206" y="1844.7878787878788"/>
      <point x="10.70707070707072" y="1844.7878787878788" type="curve" smooth="yes"/>
      <point x="-56.60606060606061" y="1844.7878787878788"/>
      <point x="-93.21212121212122" y="1808.1818181818182"/>
      <point x="-93.21212121212122" y="1751.4949494949494" type="curve" smooth="yes"/>
      <point x="-93.21212121212122" y="1694.8080808080808"/>
      <point x="-56.60606060606061" y="1659.6969696969697"/>
    </contour>
  </outline>
</glyph>
<glyph name="Eth" format="2">
  <advance width="1598.1818181818182"/>
  <unicode hex="00D0"/>
  <anchor x="194.28282828282826" y="762.0" name="_stroke"/>
  <anchor x="728.2222222222222" y="0.0" name="bottom"/>
  <anchor x="794.8080808080808" y="740.0" name="center"/>
  <anchor x="194.28282828282826" y="762.0" name="stroke"/>
  <anchor x="723.1717171717172" y="1520.0" name="top"/>
  <outline>
    <contour>
      <point x="609.5757575757576" y="-11.01010101010101" type="curve" smooth="yes"/>
      <point x="1184.1010101010102" y="-11.01010101010101"/>
      <point x="1473.818181818182" y="227.8989898989899"/>
      <point x="1473.818181818182" y="740.0" type="curve" smooth="yes"/>
      <point x="1473.818181818182" y="1246.0404040404042"/>
      <point x="1188.6464646464647" y="1494.0"/>
      <point x="647.3131313131313" y="1494.0" type="curve" smooth="yes"/>
      <point x="505.61616161616166" y="1494.0"/>
      <point x="335.35353535353534" y="1478.969696969697"/>
      <point x="194.28282828282826" y="1448.4444444444443" type="curve"/>
      <point x="194.28282828282826" y="15.494949494949495" type="line"/>
      <point x="349.7979797979798" y="-4.505050505050505"/>
      <point x="474.5656565656566" y="-11.01010101010101"/>
    </contour>
    <contour>
      <point x="643.89898989899" y="131.7575757575758" type="curve" smooth="yes"/>
      <point x="524.6060606060606" y="131.7575757575758"/>
      <point x="441.71717171717177" y="137.7373737373738"/>
      <point x="365.3131313131314" y="149.21212121212125" type="curve"/>
      <point x="365.3131313131314" y="1327.2727272727273" type="line"/>
      <point x="464.6262626262627" y="1342.7474747474746"/>
      <point x="559.0303030303031" y="1351.7373737373737"/>
      <point x="648.3838383838383" y="1351.7373737373737" type="curve" smooth="yes"/>
      <point x="1080.5050505050506" y="1351.7373737373737"/>
      <point x="1297.7777777777778" y="1158.0"/>
      <point x="1297.7777777777778" y="741.010101010101" type="curve" smooth="yes"/>
      <point x="1297.7777777777778" y="322.0"/>
      <point x="1083.030303030303" y="131.7575757575758"/>
    </contour>
    <contour>
      <point x="8.0" y="704.2222222222222" type="line"/>
      <point x="754.4242424242425" y="704.2222222222222" type="line"/>
      <point x="754.4242424242425" y="819.7777777777778" type="line"/>
      <point x="8.0" y="819.7777777777778" type="line"/>
    </contour>
  </outline>
</glyph>
<glyph name="Ntilde" format="2">
  <advance width="1656.0"/>
  <unicode hex="00D1"/>
  <anchor x="828.7474747474748" y="1520.0" name="_top"/>
  <anchor x="828.7474747474748" y="0.0" name="bottom"/>
  <anchor x="828.7474747474748" y="1520.0" name="top"/>
  <outline>
    <contour>
      <point x="194.28282828282826" y="0.0" type="line"/>
      <point x="356.7474747474748" y="0.0" type="line"/>
      <point x="356.7474747474748" y="1297.2727272727273" type="line"/>
      <point x="315.6363636363637" y="1297.2727272727273" type="line"/>
      <point x="1286.20202020202" y="0.0" type="line"/>
      <point x="1461.7171717171718" y="0.0" type="line"/>
      <point x="1461.7171717171718" y="1480.0" type="line"/>
      <point x="1299.2525252525252" y="1480.0" type="line"/>
      <point x="1299.2525252525252" y="182.7272727272728" type="line"/>
      <point x="1340.3636363636365" y="182.7272727272728" type="line"/>
      <point x="369.79797979797985" y="1480.0" type="line"/>
      <point x="194.28282828282826" y="1480.0" type="line"/>
    </contour>
    <contour>
      <point x="998.3434343434344" y="1669.7171717171716" type="curve" smooth="yes"/>
      <point x="1085.4141414141413" y="1669.7171717171716"/>
      <point x="1145.4545454545455" y="1690.2222222222222"/>
      <point x="1192.020202020202" y="1733.2525252525252" type="curve"/>
      <point x="1192.020202020202" y="1842.6666666666667" type="line"/>
      <point x="1136.949494949495" y="1795.6767676767677"/>
      <point x="1081.919191919192" y="1774.1818181818182"/>
      <point x="1001.3737373737374" y="1774.1818181818182" type="curve" smooth="yes"/>
      <point x="888.7676767676768" y="1774.1818181818182"/>
      <point x="792.2424242424242" y="1848.1818181818182"/>
      <point x="659.1515151515151" y="1848.1818181818182" type="curve" smooth="yes"/>
      <point x="572.0808080808081" y="1848.1818181818182"/>
      <point x="512.040404040404" y="1827.171717171717"/>
      <point x="465.47474747474746" y="1784.141414141414" type="curve"/>
      <point x="465.47474747474746" y="1674.7272727272727" type="line"/>
      <point x="520.5454545454545" y="1721.7171717171716"/>
      <point x="575.5757575757576" y="1743.2121212121212"/>
      <point x="656.1212121212121" y="1743.2121212121212" type="curve" smooth="yes"/>
      <point x="768.7272727272727" y="1743.2121212121212"/>
      <point x="865.2525252525253" y="1669.7171717171716"/>
    </contour>
  </outline>
</glyph>
<glyph name="Otilde" format="2">
  <advance width="1652.8080808080808"/>
  <unicode hex="00D5"/>
  <anchor x="826.4040404040404" y="1520.0" name="_top"/>
  <anchor x="826.4040404040404" y="0.0" name="bottom"/>
  <anchor x="826.4040404040404" y="740.0" name="center"/>
  <anchor x="1000.8484848484849" y="0.0" name="ogonek"/>
  <anchor x="826.4040404040404" y="1520.0" name="top"/>
  <anchor x="52.525252525252526" y="1480.0" name="topleft"/>
  <anchor x="1017.5353535353536" y="1480.0" name="topright"/>
  <outline>
    <contour>
      <point x="826.4040404040404" y="-18.505050505050505" type="curve" smooth="yes"/>
      <point x="1242.3030303030305" y="-18.505050505050505"/>
      <point x="1528.4444444444446" y="224.66666666666669"/>
      <point x="1528.4444444444446" y="740.0" type="curve" smooth="yes"/>
      <point x="1528.4444444444446" y="1255.3333333333333"/>
      <point x="1247.2929292929293" y="1498.5050505050506"/>
      <point x="826.4040404040404" y="1498.5050505050506" type="curve" smooth="yes"/>
      <point x="410.0" y="1498.5050505050506"/>
      <point x="124.36363636363635" y="1256.3434343434344"/>
      <point x="124.36363636363635" y="740.0" type="curve" smooth="yes"/>
      <point x="124.36363636363635" y="223.65656565656568"/>
      <point x="406.020202020202" y="-18.505050505050505"/>
    </contour>
    <contour>
      <point x="826.4040404040404" y="125.2525252525253" type="curve" smooth="yes"/>
      <point x="510.1414141414142" y="125.2525252525253"/>
      <point x="300.4040404040405" y="302.10101010101016"/>
      <point x="300.4040404040405" y="745.010101010101" type="curve" smooth="yes"/>
      <point x="300.4040404040405" y="1177.8989898989898"/>
      <point x="511.6565656565657" y="1354.7474747474746"/>
      <point x="826.4040404040404" y="1354.7474747474746" type="curve" smooth="yes"/>
      <point x="1141.151515151515" y="1354.7474747474746"/>
      <point x="1352.4040404040404" y="1176.3838383838383"/>
      <point x="1352.4040404040404" y="734.989898989899" type="curve" smooth="yes"/>
      <point x="1352.4040404040404" y="303.61616161616166"/>
      <point x="1142.6666666666667" y="125.2525252525253"/>
    </contour>
    <contour>
      <point x="996.0" y="1669.7171717171716" type="curve" smooth="yes"/>
      <point x="1083.0707070707072" y="1669.7171717171716"/>
      <point x="1143.1111111111113" y="1690.2222222222222"/>
      <point x="1189.6767676767677" y="1733.2525252525252" type="curve"/>
      <point x="1189.6767676767677" y="1842.6666666666667" type="line"/>
      <point x="1134.6060606060607" y="1795.6767676767677"/>
      <point x="1079.5757575757575" y="1774.1818181818182"/>
      <point x="999.030303030303" y="1774.1818181818182" type="curve" smooth="yes"/>
      <point x="886.4242424242425" y="1774.1818181818182"/>
      <point x="789.89898989899" y="1848.1818181818182"/>
      <point x="656.8080808080808" y="1848.1818181818182" type="curve" smooth="yes"/>
      <point x="569.7373737373738" y="1848.1818181818182"/>
      <point x="509.69696969696975" y="1827.171717171717"/>
      <point x="463.13131313131316" y="1784.141414141414" type="curve"/>
      <point x="463.13131313131316" y="1674.7272727272727" type="line"/>
      <point x="518.2020202020202" y="1721.7171717171716"/>
      <point x="573.2323232323233" y="1743.2121212121212"/>
      <point x="653.7777777777778" y="1743.2121212121212" type="curve" smooth="yes"/>
      <point x="766.3838383838385" y="1743.2121212121212"/>
      <point x="862.909090909091" y="1669.7171717171716"/>
    </contour>
  </outline>
</glyph>
<glyph name="Odieresis" format="2">
  <advance width="1652.8080808080808"/>
  <unicode hex="00D6"/>
  <anchor x="826.4040404040404" y="1520.0" name="_top"/>
  <anchor x="826.4040404040404" y="0.0" name="bottom"/>
  <anchor x="826.4040404040404" y="740.0" name="center"/>
  <anchor x="1000.8484848484849" y="0.0" name="ogonek"/>
  <anchor x="826.4040404040404" y="1520.0" name="top"/>
  <anchor x="52.525252525252526" y="1480.0" name="topleft"/>
  <anchor x="1017.5353535353536" y="1480.0" name="topright"/>
  <outline>
    <contour>
      <point x="826.4040404040404" y="-18.505050505050505" type="curve" smooth="yes"/>
      <point x="1242.3030303030305" y="-18.505050505050505"/>
      <point x="1528.4444444444446" y="224.66666666666669"/>
      <point x="1528.4444444444446" y="740.0" type="curve" smooth="yes"/>
      <point x="1528.4444444444446" y="1255.3333333333333"/>
      <point x="1247.2929292929293" y="1498.5050505050506"/>
      <point x="826.4040404040404" y="1498.5050505050506" type="curve" smooth="yes"/>
      <point x="410.0" y="1498.5050505050506"/>
      <point x="124.36363636363635" y="1256.3434343434344"/>
      <point x="124.36363636363635" y="740.0" type="curve" smooth="yes"/>
      <point x="124.36363636363635" y="223.65656565656568"/>
      <point x="406.020202020202" y="-18.505050505050505"/>
    </contour>
    <contour>
      <point x="826.4040404040404" y="125.2525252525253" type="curve" smooth="yes"/>
      <point x="510.1414141414142" y="125.2525252525253"/>
      <point x="300.4040404040405" y="302.10101010101016"/>
      <point x="300.4040404040405" y="745.010101010101" type="curve" smooth="yes"/>
      <point x="300.4040404040405" y="1177.8989898989898"/>
      <point x="511.6565656565657" y="1354.7474747474746"/>
      <point x="826.4040404040404" y="1354.7474747474746" type="curve" smooth="yes"/>
      <point x="1141.151515151515" y="1354.7474747474746"/>
      <point x="1352.4040404040404" y="1176.3838383838383"/>
      <point x="1352.4040404040404" y="734.989898989899" type="curve" smooth="yes"/>
      <point x="1352.4040404040404" y="303.61616161616166"/>
      <point x="1142.6666666666667" y="125.2525252525253"/>
    </contour>
    <contour>
      <point x="1095.4949494949497" y="1659.6969696969697" type="curve" smooth="yes"/>
      <point x="1162.8080808080808" y="1659.6969696969697"/>
      <point x="1199.4141414141413" y="1694.8080808080808"/>
      <point x="1199.4141414141413" y="1751.4949494949494" type="curve" smooth="yes"/>
      <point x="1199.4141414141413" y="1808.1818181818182"/>
      <point x="1162.8080808080808" y="1844.7878787878788"/>
      <point x="1095.4949494949497" y="1844.7878787878788" type="curve" smooth="yes"/>
      <point x="1028.1818181818182" y="1844.7878787878788"/>
      <point x="991.5757575757575" y="1808.1818181818182"/>
      <point x="991.5757575757575" y="1751.4949494949494" type="curve" smooth="yes"/>
      <point x="991.5757575757575" y="1694.8080808080808"/>
      <point x="1028.1818181818182" y="1659.6969696969697"/>
    </contour>
    <contour>
      <point x="557.3131313131314" y="1659.6969696969697" type="curve" smooth="yes"/>
      <point x="624.6262626262627" y="1659.6969696969697"/>
      <point x="661.2323232323233" y="1694.8080808080808"/>
      <point x="661.2323232323233" y="1751.4949494949494" type="curve" smooth="yes"/>
      <point x="661.2323232323233" y="1808.1818181818182"/>
      <point x="624.6262626262627" y="1844.7878787878788"/>
      <point x="557.3131313131314" y="1844.7878787878788" type="curve" smooth="yes"/>
      <point x="490.0" y="1844.7878787878788"/>
      <point x="453.3939393939394" y="1808.1818181818182"/>
      <point x="453.3939393939394" y="1751.4949494949494" type="curve" smooth="yes"/>
      <point x="453.3939393939394" y="1694.8080808080808"/>
      <point x="490.0" y="1659.6969696969697"/>
    </contour>
  </outline>
</glyph>
<glyph name="multiply" format="2">
  <advance width="1035.3131313131314"/>
  <unicode hex="00D7"/>
  <outline>
    <contour>
      <point x="224.3030303030303" y="373.1515151515151" type="line"/>
      <point x="517.6565656565657" y="666.5050505050505" type="line"/>
      <point x="811.010101010101" y="373.1515151515151" type="line"/>
      <point x="904.5050505050506" y="466.64646464646466" type="line"/>
      <point x="611.1515151515152" y="760.0" type="line"/>
      <point x="904.5050505050506" y="1053.3535353535353" type="line"/>
      <point x="811.010101010101" y="1146.848484848485" type="line"/>
      <point x="517.6565656565657" y="853.4949494949495" type="line"/>
      <point x="224.3030303030303" y="1146.848484848485" type="line"/>
      <point x="130.8080808080808" y="1053.3535353535353" type="line"/>
      <point x="424.16161616161617" y="760.0" type="line"/>
      <point x="130.8080808080808" y="466.64646464646466" type="line"/>
    </contour>
  </outline>
</glyph>
<glyph name="Oslash" format="2">
  <advance width="1652.8080808080808"/>
  <unicode hex="00D8"/>
  <anchor x="826.4040404040404" y="740.0" name="_center"/>
  <anchor x="820.909090909091" y="0.0" name="bottom"/>
  <anchor x="826.4040404040404" y="740.0" name="center"/>
  <anchor x="1000.8484848484849" y="0.0" name="ogonek"/>
  <anchor x="817.9191919191919" y="1520.0" name="top"/>
  <anchor x="52.525252525252526" y="1480.0" name="topleft"/>
  <anchor x="1017.5353535353536" y="1480.0" name="topright"/>
  <outline>
    <contour>
      <point x="826.4040404040404" y="-18.505050505050505" type="curve" smooth="yes"/>
      <point x="1242.3030303030305" y="-18.505050505050505"/>
      <point x="1528.4444444444446" y="224.66666666666669"/>
      <point x="1528.4444444444446" y="740.0" type="curve" smooth="yes"/>
      <point x="1528.4444444444446" y="1255.3333333333333"/>
      <point x="1247.2929292929293" y="1498.5050505050506"/>
      <point x="826.4040404040404" y="1498.5050505050506" type="curve" smooth="yes"/>
      <point x="410.0" y="1498.5050505050506"/>
      <point x="124.36363636363635" y="1256.3434343434344"/>
      <point x="124.36363636363635" y="740.0" type="curve" smooth="yes"/>
      <point x="124.36363636363635" y="223.65656565656568"/>
      <point x="406.020202020202" y="-18.505050505050505"/>
    </contour>
    <contour>
      <point x="826.4040404040404" y="125.2525252525253" type="curve" smooth="yes"/>
      <point x="510.1414141414142" y="125.2525252525253"/>
      <point x="300.4040404040405" y="302.10101010101016"/>
      <point x="300.4040404040405" y="745.010101010101" type="curve" smooth="yes"/>
      <point x="300.4040404040405" y="1177.8989898989898"/>
      <point x="511.6565656565657" y="1354.7474747474746"/>
      <point x="826.4040404040404" y="1354.7474747474746" type="curve" smooth="yes"/>
      <point x="1141.151515151515" y="1354.7474747474746"/>
      <point x="1352.4040404040404" y="1176.3838383838383"/>
      <point x="1352.4040404040404" y="734.989898989899" type="curve" smooth="yes"/>
      <point x="1352.4040404040404" y="303.61616161616166"/>
      <point x="1142.6666666666667" y="125.2525252525253"/>
    </contour>
    <contour>
      <point x="230.40404040404042" y="-27.616161616161627" type="line"/>
      <point x="1500.7070707070707" y="1438.828282828283" type="line"/>
      <point x="1422.4040404040404" y="1507.6161616161617" type="line"/>
      <point x="152.1010101010101" y="41.171717171717184" type="line"/>
    </contour>
  </outline>
</glyph>
<glyph name="Ucircumflex" format="2">
  <advance width="1599.030303030303"/>
  <unicode hex="00DB"/>
  <anchor x="801.2727272727273" y="1520.0" name="_top"/>
  <anchor x="801.2727272727273" y="0.0" name="bottom"/>
  <anchor x="980.040404040404" y="2.989898989898989" name="ogonek"/>
  <anchor x="801.2727272727273" y="1520.0" name="top"/>
  <anchor x="1244.7272727272727" y="1480.0" name="topright"/>
  <outline>
    <contour>
      <point x="801.2727272727273" y="-18.505050505050505" type="curve" smooth="yes"/>
      <point x="1221.1515151515152" y="-18.505050505050505"/>
      <point x="1412.2424242424242" y="177.23232323232324"/>
      <point x="1412.2424242424242" y="598.3232323232323" type="curve" smooth="yes"/>
      <point x="1412.2424242424242" y="1480.0" type="line"/>
      <point x="1244.7272727272727" y="1480.0" type="line"/>
      <point x="1244.7272727272727" y="581.2525252525253" type="line" smooth="yes"/>
      <point x="1244.7272727272727" y="261.6363636363637"/>
      <point x="1102.888888888889" y="125.77777777777783"/>
      <point x="801.2727272727273" y="125.77777777777783" type="curve" smooth="yes"/>
      <point x="499.6565656565657" y="125.77777777777783"/>
      <point x="357.81818181818187" y="261.6363636363637"/>
      <point x="357.81818181818187" y="581.2525252525253" type="curve" smooth="yes"/>
      <point x="357.81818181818187" y="1480.0" type="line"/>
      <point x="186.78787878787878" y="1480.0" type="line"/>
      <point x="186.78787878787878" y="598.3232323232323" type="line" smooth="yes"/>
      <point x="186.78787878787878" y="177.23232323232324"/>
      <point x="378.86868686868684" y="-18.505050505050505"/>
    </contour>
    <contour>
      <point x="428.26262626262627" y="1608.4242424242425" type="line"/>
      <point x="588.949494949495" y="1608.4242424242425" type="line"/>
      <point x="824.3232323232323" y="1839.2929292929293" type="line"/>
      <point x="778.2222222222222" y="1839.2929292929293" type="line"/>
      <point x="1013.5959595959596" y="1608.4242424242425" type="line"/>
      <point x="1174.2828282828284" y="1608.4242424242425" type="line"/>
      <point x="878.1616161616162" y="1891.5353535353536" type="line"/>
      <point x="724.3838383838383" y="1891.5353535353536" type="line"/>
    </contour>
  </outline>
</glyph>
<glyph name="Yacute" format="2">
  <advance width="1316.7272727272727"/>
  <unicode hex="00DD"/>
  <anchor x="657.8585858585859" y="1520.0" name="_top"/>
  <anchor x="657.8585858585859" y="0.0" name="bottom"/>
  <anchor x="657.8585858585859" y="1520.0" name="top"/>
  <anchor x="14.989898989898988" y="1480.0" name="topleft"/>
  <outline>
    <contour>
      <point x="573.8585858585858" y="0.0" type="line"/>
      <point x="744.8888888888889" y="0.0" type="line"/>
      <point x="744.8888888888889" y="723.6767676767677" type="line"/>
      <point x="706.7070707070708" y="605.030303030303" type="line"/>
      <point x="1332.8080808080808" y="1480.0" type="line"/>
      <point x="1151.8383838383838" y="1480.0" type="line"/>
      <point x="631.2727272727273" y="755.3939393939394" type="line"/>
      <point x="694.5050505050506" y="755.3939393939394" type="line"/>
      <point x="165.4343434343435" y="1480.0" type="line"/>
      <point x="-27.111111111111118" y="1480.0" type="line"/>
      <point x="612.040404040404" y="605.030303030303" type="line"/>
      <point x="573.8585858585858" y="725.1919191919192" type="line"/>
    </contour>
    <contour>
      <point x="576.9090909090909" y="1608.4242424242425" type="line"/>
      <point x="736.7878787878789" y="1608.4242424242425" type="line"/>
      <point x="981.878787878788" y="1891.5353535353536" type="line"/>
      <point x="794.3636363636364" y="1891.5353535353536" type="line"/>
    </contour>
  </outline>
</glyph>
<glyph name="Thorn" format="2">
  <advance width="1378.0404040404042"/>
  <unicode hex="00DE"/>
  <outline>
    <contour>
      <point x="194.28282828282826" y="0.0" type="line"/>
      <point x="365.3131313131314" y="0.0" type="line"/>
      <point x="365.3131313131314" y="265.7979797979798" type="line"/>
      <point x="449.6565656565657" y="258.32323232323233"/>
      <point x="518.5858585858587" y="254.82828282828282"/>
      <point x="600.9494949494949" y="254.82828282828282" type="curve" smooth="yes"/>
      <point x="1064.4646464646464" y="254.82828282828282"/>
      <point x="1269.111111111111" y="434.8484848484848"/>
      <point x="1269.111111111111" y="762.989898989899" type="curve" smooth="yes"/>
      <point x="1269.111111111111" y="1111.6161616161617"/>
      <point x="1046.020202020202" y="1265.171717171717"/>
      <point x="629.1919191919192" y="1265.171717171717" type="curve" smooth="yes"/>
      <point x="516.9898989898991" y="1265.171717171717"/>
      <point x="437.15151515151524" y="1255.6969696969697"/>
      <point x="365.3131313131314" y="1243.7373737373737" type="curve"/>
      <point x="365.3131313131314" y="1481.4949494949494" type="line"/>
      <point x="194.28282828282826" y="1481.4949494949494" type="line"/>
    </contour>
    <contour>
      <point x="600.949494949495" y="386.4848484848485" type="curve" smooth="yes"/>
      <point x="511.0909090909091" y="386.4848484848485"/>
      <point x="441.21212121212125" y="391.4747474747475"/>
      <point x="365.3131313131314" y="401.4545454545455" type="curve"/>
      <point x="365.3131313131314" y="1110.5656565656566" type="line"/>
      <point x="446.66666666666674" y="1125.5353535353536"/>
      <point x="531.4949494949495" y="1133.5151515151515"/>
      <point x="638.2828282828283" y="1133.5151515151515" type="curve" smooth="yes"/>
      <point x="945.8787878787879" y="1133.5151515151515"/>
      <point x="1099.6363636363635" y="1020.6666666666666"/>
      <point x="1099.6363636363635" y="761.4949494949495" type="curve" smooth="yes"/>
      <point x="1099.6363636363635" y="510.26262626262627"/>
      <point x="959.3333333333333" y="386.4848484848485"/>
    </contour>
  </outline>
</glyph>
<glyph name="germandbls" format="2">
  <advance width="1572.2424242424242"/>
  <unicode hex="00DF"/>
  <outline>
    <contour>
      <point x="1004.3030303030304" y="-19.01010101010101" type="curve" smooth="yes"/>
      <point x="1333.6363636363637" y="-19.01010101010101"/>
      <point x="1486.848484848485" y="105.05050505050505"/>
      <point x="1486.848484848485" y="300.6868686868687" type="curve" smooth="yes"/>
      <point x="1486.848484848485" y="471.8787878787879"/>
      <point x="1391.7171717171718" y="554.8686868686868"/>
      <point x="1172.2020202020203" y="591.8383838383838" type="curve" smooth="yes"/>
      <point x="988.5252525252527" y="621.8383838383838" type="line" smooth="yes"/>
      <point x="847.3333333333335" y="647.2727272727273"/>
      <point x="806.9292929292931" y="709.5959595959596"/>
      <point x="806.9292929292931" y="790.3838383838383" type="curve" smooth="yes"/>
      <point x="806.9292929292931" y="896.1212121212121"/>
      <point x="881.2727272727274" y="975.4545454545454"/>
      <point x="1133.1919191919192" y="975.4545454545454" type="curve" smooth="yes"/>
      <point x="1209.6767676767677" y="975.4545454545454"/>
      <point x="1261.2121212121212" y="968.9696969696969"/>
      <point x="1301.2727272727275" y="963.4747474747475" type="curve"/>
      <point x="1317.7777777777778" y="1025.030303030303"/>
      <point x="1328.787878787879" y="1101.9595959595958"/>
      <point x="1328.787878787879" y="1162.040404040404" type="curve" smooth="yes"/>
      <point x="1328.787878787879" y="1489.7979797979797"/>
      <point x="1114.1010101010102" y="1636.0"/>
      <point x="818.6868686868687" y="1636.0" type="curve" smooth="yes"/>
      <point x="458.7070707070707" y="1636.0"/>
      <point x="253.91919191919192" y="1450.2626262626263"/>
      <point x="253.91919191919192" y="1086.5454545454545" type="curve" smooth="yes"/>
      <point x="253.91919191919192" y="0.0" type="line"/>
      <point x="421.919191919192" y="0.0" type="line"/>
      <point x="421.919191919192" y="1086.1010101010102" type="line" smooth="yes"/>
      <point x="421.919191919192" y="1383.919191919192"/>
      <point x="563.8383838383838" y="1511.919191919192"/>
      <point x="827.7979797979799" y="1511.919191919192" type="curve" smooth="yes"/>
      <point x="1044.7474747474748" y="1511.919191919192"/>
      <point x="1200.6464646464647" y="1420.949494949495"/>
      <point x="1199.1515151515152" y="1176.2222222222222" type="curve" smooth="yes"/>
      <point x="1199.1515151515152" y="1131.6363636363635"/>
      <point x="1191.6363636363637" y="1072.121212121212"/>
      <point x="1177.6161616161617" y="1023.070707070707" type="curve"/>
      <point x="1272.6060606060607" y="1088.0404040404042" type="line"/>
      <point x="1222.1212121212122" y="1093.5353535353536"/>
      <point x="1161.4545454545455" y="1097.030303030303"/>
      <point x="1111.4747474747476" y="1097.030303030303" type="curve" smooth="yes"/>
      <point x="787.2323232323233" y="1097.030303030303"/>
      <point x="643.010101010101" y="968.5050505050505"/>
      <point x="643.010101010101" y="780.8484848484849" type="curve" smooth="yes"/>
      <point x="643.010101010101" y="625.2525252525252"/>
      <point x="728.0404040404042" y="524.7070707070707"/>
      <point x="950.6868686868688" y="487.7171717171717" type="curve" smooth="yes"/>
      <point x="1134.3636363636365" y="457.7171717171717" type="line" smooth="yes"/>
      <point x="1280.0404040404042" y="432.2828282828283"/>
      <point x="1322.9292929292928" y="383.4141414141414"/>
      <point x="1322.9292929292928" y="289.65656565656565" type="curve" smooth="yes"/>
      <point x="1322.9292929292928" y="174.92929292929296"/>
      <point x="1241.0707070707072" y="107.09090909090914"/>
      <point x="1006.7676767676768" y="107.09090909090914" type="curve" smooth="yes"/>
      <point x="894.7272727272727" y="107.09090909090914"/>
      <point x="780.5050505050506" y="120.62626262626267"/>
      <point x="661.0505050505051" y="153.59595959595964" type="curve"/>
      <point x="661.0505050505051" y="25.494949494949495" type="line"/>
      <point x="769.1111111111112" y="-6.0"/>
      <point x="886.3030303030304" y="-19.01010101010101"/>
    </contour>
    <contour>
      <point x="29.070707070707076" y="941.7777777777777" type="line"/>
      <point x="329.67676767676767" y="941.7777777777777" type="line"/>
      <point x="329.67676767676767" y="1085.050505050505" type="line"/>
      <point x="29.070707070707076" y="1085.050505050505" type="line"/>
    </contour>
  </outline>
</glyph>
